<svg xmlns="http://www.w3.org/2000/svg" viewBox="0 0 512 512" width="512" height="512">
	<path d="M487.359,146.279c-1.777-3.742-6.254-5.334-9.992-3.556c-3.742,1.777-5.334,6.251-3.557,9.993    C489.198,185.107,497,219.857,497,256c0,64.374-25.068,124.894-70.587,170.413C380.895,471.932,320.374,497,256,497    c-38.177,0-74.687-8.664-108.513-25.751c-28.185-14.238-53.648-34.227-74.324-58.247l29.591,9.864    c3.929,1.31,8.177-0.814,9.487-4.744s-0.814-8.177-4.744-9.487l-53.25-17.75c-2.466-0.821-5.182-0.309-7.177,1.357    c-1.995,1.666-2.986,4.246-2.619,6.819l8.875,62.125c0.535,3.741,3.743,6.44,7.416,6.44c0.353,0,0.71-0.025,1.07-0.076    c4.101-0.586,6.95-4.385,6.364-8.485l-4.952-34.663c21.699,24.78,48.207,45.438,77.501,60.236    C176.667,502.794,215.451,512,256,512c68.38,0,132.668-26.629,181.02-74.98C485.371,388.667,512,324.38,512,256    C512,217.613,503.71,180.698,487.359,146.279z"/>
	<path d="M467.55,112.94l-8.875-62.125c-0.586-4.101-4.394-6.948-8.485-6.364c-4.101,0.586-6.95,4.385-6.364,8.485l4.947,34.628    C400.068,31.76,330.538,0,256,0C187.62,0,123.333,26.629,74.98,74.98C26.629,123.333,0,187.62,0,256    c0,38.388,8.291,75.304,24.641,109.721c1.284,2.703,3.974,4.284,6.78,4.284c1.078,0,2.174-0.234,3.213-0.728    c3.741-1.777,5.333-6.251,3.556-9.993C22.802,326.895,15,292.145,15,256c0-64.374,25.068-124.894,70.587-170.413    C131.106,40.068,191.626,15,256,15c70.856,0,136.903,30.494,182.816,83.991l-29.569-9.856c-3.932-1.312-8.178,0.814-9.487,4.744    c-1.309,3.93,0.813,8.177,4.743,9.487l53.25,17.75c0.776,0.258,1.576,0.385,2.371,0.385c1.732,0,3.438-0.6,4.807-1.742    C466.926,118.093,467.917,115.513,467.55,112.94z"/>
	<path d="M235.158,336.678h-75.444c3.013-26.25,21.666-43.862,41.316-62.416c20.466-19.324,41.628-39.306,41.628-69.312    c0-24.607-22.064-44.627-49.184-44.627s-49.184,20.02-49.184,44.627c0,4.142,3.358,7.5,7.5,7.5c4.142,0,7.5-3.358,7.5-7.5    c0-16.336,15.334-29.627,34.184-29.627s34.184,13.291,34.184,29.627c0,23.54-17.937,40.476-36.926,58.406    c-21.769,20.554-46.442,43.851-46.442,80.822c0,4.142,3.358,7.5,7.5,7.5h83.368c4.142,0,7.5-3.358,7.5-7.5    C242.658,340.036,239.3,336.678,235.158,336.678z"/>
	<path d="M360.21,288.58h-8.532V167.823c0-4.142-3.357-7.5-7.5-7.5s-7.5,3.358-7.5,7.5v120.758h-63.624l22.382-119.375    c0.764-4.071-1.918-7.991-5.989-8.754c-4.067-0.759-7.989,1.918-8.753,5.989l-24.048,128.258c-0.411,2.193,0.175,4.455,1.6,6.172    c1.425,1.717,3.54,2.71,5.771,2.71h72.661v40.597c0,4.141,3.357,7.499,7.5,7.499s7.5-3.358,7.5-7.5V303.58h8.532    c4.143,0,7.5-3.358,7.5-7.5C367.71,291.938,364.353,288.58,360.21,288.58z"/>
	<path d="M256,40.081c-4.142,0-7.5,3.358-7.5,7.5v32.064c0,4.142,3.358,7.5,7.5,7.5c4.143,0,7.5-3.358,7.5-7.5V47.581    C263.5,43.439,260.143,40.081,256,40.081z"/>
	<path d="M256,424.855c-4.142,0-7.5,3.358-7.5,7.5v32.064c0,4.142,3.358,7.5,7.5,7.5c4.143,0,7.5-3.358,7.5-7.5v-32.064    C263.5,428.213,260.143,424.855,256,424.855z"/>
	<path d="M464.418,248.5h-32.064c-4.143,0-7.5,3.358-7.5,7.5c0,4.142,3.357,7.5,7.5,7.5h32.064c4.143,0,7.5-3.358,7.5-7.5    C471.918,251.858,468.561,248.5,464.418,248.5z"/>
	<path d="M79.645,248.5H47.581c-4.142,0-7.5,3.358-7.5,7.5c0,4.142,3.358,7.5,7.5,7.5h32.064c4.142,0,7.5-3.358,7.5-7.5    C87.145,251.858,83.787,248.5,79.645,248.5z"/>
</svg>