<svg xmlns="http://www.w3.org/2000/svg" viewBox="0 0 512 512" width="512" height="512">
	<path d="M368.225,32.064H31.548C14.152,32.064,0,46.217,0,63.613v224.451c0,17.396,14.152,31.549,31.548,31.549H256    c4.142,0,7.5-3.357,7.5-7.5s-3.358-7.5-7.5-7.5H31.548c-9.125,0-16.548-7.424-16.548-16.549V63.613    c0-9.125,7.423-16.549,16.548-16.549h336.677c9.125,0,16.549,7.424,16.549,16.549v152.305c0,4.143,3.358,7.5,7.5,7.5    c4.142,0,7.5-3.357,7.5-7.5V63.613C399.774,46.217,385.621,32.064,368.225,32.064z"/>
	<path d="M103.693,120.243H71.629c-12.976,0-23.532,10.557-23.532,23.532v16.032c0,12.975,10.556,23.532,23.532,23.532h32.064    c12.976,0,23.532-10.557,23.532-23.532v-16.032C127.225,130.799,116.668,120.243,103.693,120.243z M80.161,168.339h-8.532    c-4.705,0-8.532-3.827-8.532-8.532v-16.033c0-4.705,3.828-8.532,8.532-8.532h8.532V168.339z M112.226,159.806    c0,4.705-3.828,8.532-8.532,8.532h-8.532v-33.097h8.532c4.704,0.001,8.532,3.828,8.532,8.533V159.806z"/>
	<path d="M103.694,208.419H55.597c-4.142,0-7.5,3.357-7.5,7.5s3.358,7.5,7.5,7.5h48.097c4.142,0,7.5-3.357,7.5-7.5    S107.836,208.419,103.694,208.419z"/>
	<path d="M183.855,208.419h-48.097c-4.142,0-7.5,3.357-7.5,7.5s3.358,7.5,7.5,7.5h48.097c4.142,0,7.5-3.357,7.5-7.5    S187.997,208.419,183.855,208.419z"/>
	<path d="M215.92,248.5H55.597c-4.142,0-7.5,3.357-7.5,7.5s3.358,7.5,7.5,7.5H215.92c4.142,0,7.5-3.357,7.5-7.5    S220.062,248.5,215.92,248.5z"/>
	<path d="M264.016,208.419h-48.097c-4.142,0-7.5,3.357-7.5,7.5s3.358,7.5,7.5,7.5h48.097c4.142,0,7.5-3.357,7.5-7.5    S268.158,208.419,264.016,208.419z"/>
	<path d="M344.178,208.419h-48.097c-4.142,0-7.5,3.357-7.5,7.5s3.358,7.5,7.5,7.5h48.097c4.142,0,7.5-3.357,7.5-7.5    S348.32,208.419,344.178,208.419z"/>
	<path d="M312.113,80.161c-13.182,0-24.871,6.486-32.064,16.427c-7.194-9.942-18.883-16.427-32.064-16.427    c-21.816,0-39.564,17.748-39.564,39.564c0,21.816,17.749,39.564,39.564,39.564c13.182,0,24.871-6.486,32.064-16.427    c7.194,9.942,18.883,16.427,32.064,16.427c21.816,0,39.564-17.748,39.564-39.564C351.677,97.909,333.929,80.161,312.113,80.161z     M247.984,144.29c-13.545,0-24.564-11.02-24.564-24.564c0-13.544,11.02-24.564,24.564-24.564s24.564,11.02,24.564,24.564    C272.548,133.27,261.529,144.29,247.984,144.29z M312.113,144.29c-13.545,0-24.564-11.02-24.564-24.564    c0-13.544,11.02-24.564,24.564-24.564s24.564,11.02,24.564,24.564C336.677,133.27,325.658,144.29,312.113,144.29z"/>
	<path d="M392.274,240.483c-66.017,0-119.726,53.709-119.726,119.727c0,66.017,53.709,119.726,119.726,119.726    S512,426.227,512,360.21C512,294.192,458.292,240.483,392.274,240.483z M392.274,464.936    c-57.746,0-104.726-46.979-104.726-104.726c0-57.747,46.98-104.727,104.726-104.727C450.02,255.483,497,302.464,497,360.21    C497,417.956,450.021,464.936,392.274,464.936z"/>
	<path d="M416.323,320.646h-53.085l16.863-10.118c3.552-2.131,4.704-6.737,2.572-10.289c-2.131-3.554-6.738-4.705-10.29-2.573    l-40.081,24.05c-2.259,1.354-3.641,3.796-3.641,6.431s1.382,5.076,3.641,6.432l40.081,24.048c1.208,0.725,2.539,1.069,3.852,1.069    c2.548,0,5.032-1.299,6.438-3.643c2.131-3.552,0.979-8.158-2.572-10.29l-16.861-10.116h53.084    c17.965,0,32.581,14.615,32.581,32.58s-14.616,32.581-32.581,32.581h-56.113c-4.142,0-7.5,3.357-7.5,7.5s3.358,7.5,7.5,7.5h56.113    c26.236,0,47.581-21.345,47.581-47.581C463.903,341.99,442.559,320.646,416.323,320.646z"/>
</svg>