<svg xmlns="http://www.w3.org/2000/svg" viewBox="0 0 511.999 511.999" width="512" height="512">
	<path d="M416.323,0H95.677C73.862,0,56.113,17.748,56.113,39.564v432.871c0,21.816,17.749,39.564,39.564,39.564h320.645    c21.815,0,39.564-17.748,39.564-39.564V39.564C455.887,17.748,438.138,0,416.323,0z M71.113,39.564    C71.113,26.02,82.133,15,95.677,15h320.645c13.545,0,24.564,11.02,24.564,24.564v152.822H71.113V39.564z M440.887,472.436    c0,13.544-11.02,24.564-24.564,24.564H95.677c-13.545,0-24.564-11.02-24.564-24.564V207.387h369.774V472.436z"/>
	<path d="M344.176,48.096h-224.45c-8.556,0-15.516,6.961-15.516,15.517v80.161c0,8.556,6.96,15.516,15.516,15.516h16.032    c4.142,0,7.5-3.357,7.5-7.5s-3.358-7.5-7.5-7.5h-16.032c-0.285,0-0.516-0.231-0.516-0.516V63.613c0-0.285,0.231-0.517,0.516-0.517    h224.45c4.143,0,7.5-3.357,7.5-7.5S348.319,48.096,344.176,48.096z"/>
	<path d="M392.275,48.096h-16.032c-4.143,0-7.5,3.357-7.5,7.5s3.357,7.501,7.499,7.501h16.032c0.284,0,0.516,0.231,0.516,0.517    v80.161c0,0.284-0.231,0.516-0.516,0.516h-224.45c-4.142,0-7.5,3.357-7.5,7.5s3.358,7.5,7.5,7.5h224.451    c8.556,0,15.516-6.96,15.516-15.516V63.613C407.791,55.057,400.831,48.096,392.275,48.096z"/>
	<path d="M215.92,240.483c-17.396,0-31.548,14.152-31.548,31.549c0,17.397,14.152,31.549,31.548,31.549    c17.396,0,31.548-14.152,31.548-31.549C247.468,254.635,233.316,240.483,215.92,240.483z M215.92,288.581    c-9.125,0-16.548-7.424-16.548-16.549s7.423-16.549,16.548-16.549s16.548,7.424,16.548,16.549S225.045,288.581,215.92,288.581z"/>
	<path d="M215.92,320.646c-17.396,0-31.548,14.152-31.548,31.548s14.152,31.549,31.548,31.549    c17.396,0,31.548-14.152,31.548-31.549C247.468,334.798,233.316,320.646,215.92,320.646z M215.92,368.742    c-9.125,0-16.548-7.424-16.548-16.549s7.423-16.548,16.548-16.548s16.548,7.423,16.548,16.548S225.045,368.742,215.92,368.742z"/>
	<path d="M215.92,400.807c-17.396,0-31.548,14.152-31.548,31.548s14.152,31.549,31.548,31.549    c17.396,0,31.548-14.152,31.548-31.549C247.468,414.959,233.316,400.807,215.92,400.807z M215.92,448.903    c-9.125,0-16.548-7.424-16.548-16.549s7.423-16.548,16.548-16.548s16.548,7.423,16.548,16.548S225.045,448.903,215.92,448.903z"/>
	<path d="M296.081,240.483c-17.396,0-31.549,14.152-31.549,31.549c0,17.397,14.152,31.549,31.549,31.549    c17.396,0,31.548-14.152,31.548-31.549C327.629,254.635,313.477,240.483,296.081,240.483z M296.081,288.581    c-9.125,0-16.549-7.424-16.549-16.549s7.424-16.549,16.549-16.549s16.548,7.424,16.548,16.549S305.206,288.581,296.081,288.581z"/>
	<path d="M296.081,320.646c-17.396,0-31.549,14.152-31.549,31.548s14.152,31.549,31.549,31.549    c17.396,0,31.548-14.152,31.548-31.549C327.629,334.798,313.477,320.646,296.081,320.646z M296.081,368.742    c-9.125,0-16.549-7.424-16.549-16.549s7.424-16.548,16.549-16.548s16.548,7.423,16.548,16.548S305.206,368.742,296.081,368.742z"/>
	<path d="M296.081,400.807c-17.396,0-31.549,14.152-31.549,31.548s14.152,31.549,31.549,31.549    c17.396,0,31.548-14.152,31.548-31.549C327.629,414.959,313.477,400.807,296.081,400.807z M296.081,448.903    c-9.125,0-16.549-7.424-16.549-16.549s7.424-16.548,16.549-16.548s16.548,7.423,16.548,16.548S305.206,448.903,296.081,448.903z"/>
	<path d="M135.759,240.483c-17.396,0-31.549,14.152-31.549,31.549c0,17.397,14.153,31.549,31.549,31.549    s31.548-14.152,31.548-31.549C167.307,254.635,153.155,240.483,135.759,240.483z M135.759,288.581    c-9.125,0-16.549-7.424-16.549-16.549s7.424-16.549,16.549-16.549s16.548,7.424,16.548,16.549S144.884,288.581,135.759,288.581z"/>
	<path d="M135.759,320.646c-17.396,0-31.549,14.152-31.549,31.548s14.153,31.549,31.549,31.549s31.548-14.152,31.548-31.549    C167.307,334.798,153.155,320.646,135.759,320.646z M135.759,368.742c-9.125,0-16.549-7.424-16.549-16.549    s7.424-16.548,16.549-16.548s16.548,7.423,16.548,16.548S144.884,368.742,135.759,368.742z"/>
	<path d="M135.759,400.807c-17.396,0-31.549,14.152-31.549,31.548s14.153,31.549,31.549,31.549s31.548-14.152,31.548-31.549    C167.307,414.959,153.155,400.807,135.759,400.807z M135.759,448.903c-9.125,0-16.549-7.424-16.549-16.549    s7.424-16.548,16.549-16.548s16.548,7.423,16.548,16.548S144.884,448.903,135.759,448.903z"/>
	<path d="M376.242,240.483c-17.396,0-31.549,14.152-31.549,31.549c0,17.397,14.152,31.549,31.549,31.549    c17.396,0,31.548-14.152,31.548-31.549C407.79,254.635,393.638,240.483,376.242,240.483z M376.242,288.581    c-9.125,0-16.549-7.424-16.549-16.549s7.424-16.549,16.549-16.549s16.548,7.424,16.548,16.549S385.367,288.581,376.242,288.581z"/>
	<path d="M376.242,320.646c-17.396,0-31.549,14.152-31.549,31.548v80.161c0,17.396,14.152,31.549,31.549,31.549    c17.396,0,31.548-14.152,31.548-31.549v-80.161C407.79,334.798,393.638,320.646,376.242,320.646z M392.79,432.354    c0,9.125-7.424,16.549-16.548,16.549c-9.125,0-16.549-7.424-16.549-16.549v-80.161c0-9.125,7.424-16.548,16.549-16.548    c9.124,0,16.548,7.423,16.548,16.548V432.354z"/>
</svg>