<svg xmlns="http://www.w3.org/2000/svg" viewBox="0 0 512 512" width="512" height="512">
	<path d="M391.465,381.706c-1.287-9.729-6.903-18.118-15.409-23.015l-96.078-55.319c-12.239-7.046-27.757-4.991-37.74,4.992    l-24.861,24.86c-4.887,4.887-12.645,5.282-18.046,0.922c-14.667-11.84-29.112-24.852-42.934-38.674    c-13.826-13.827-26.839-28.274-38.675-42.935c-4.361-5.401-3.964-13.159,0.922-18.045l24.861-24.861    c9.984-9.984,12.037-25.502,4.992-37.739L93.18,75.814c-4.897-8.505-13.285-14.121-23.014-15.408    c-9.732-1.289-19.289,1.954-26.23,8.895L15.421,97.817c-40.705,40.705,1.781,146.964,96.725,241.909    c70.564,70.564,147.368,112.152,198.875,112.145c17.795-0.002,32.582-4.969,43.033-15.421l28.515-28.516    C389.508,400.995,392.752,391.436,391.465,381.706z M371.961,397.327l-3.805,3.805l-82.259-46.947    c-3.596-2.053-8.178-0.801-10.233,2.796c-2.054,3.599-0.802,8.18,2.797,10.233l78.699,44.915l-13.714,13.712    c-15.452,15.453-47.316,14.695-87.418-2.074c-42.806-17.901-90.138-51.515-133.272-94.65    c-43.135-43.135-76.749-90.465-94.65-133.272c-16.771-40.104-17.527-71.966-2.075-87.418l14.645-14.645l5.198,9.028    c1.388,2.411,3.912,3.76,6.507,3.76c1.27,0,2.557-0.322,3.736-1.001c3.591-2.067,4.825-6.653,2.758-10.244l-7.213-12.528    l2.885-2.885c3.093-3.094,7.184-4.774,11.475-4.774c0.721,0,1.449,0.047,2.178,0.144c5.065,0.67,9.432,3.594,11.981,8.021    l55.319,96.079c3.668,6.369,2.598,14.448-2.598,19.644l-9.088,9.088l-48.907-84.945c-2.067-3.592-6.655-4.826-10.244-2.758    c-3.591,2.067-4.825,6.653-2.757,10.244l50.923,88.445l-4.788,4.788c-10.324,10.323-11.178,26.693-1.987,38.078    c12.169,15.074,25.539,29.918,39.74,44.12c14.196,14.195,29.04,27.567,44.119,39.739c11.385,9.19,27.755,8.336,38.078-1.986    l3.457-3.457l18.518,10.57c1.173,0.67,2.45,0.987,3.712,0.987c2.604,0,5.138-1.359,6.521-3.784    c2.054-3.599,0.802-8.179-2.795-10.233l-14.959-8.537l10.408-10.408c5.199-5.198,13.276-6.266,19.645-2.598l96.078,55.319    c4.428,2.549,7.351,6.915,8.021,11.981C377.262,388.739,375.574,393.715,371.961,397.327z"/>
	<path d="M239.92,252.553h-56.197c2.636-21.923,16.667-36.797,31.435-52.453c15.861-16.815,32.263-34.202,32.263-60.308    c0-21.819-17.752-39.571-39.571-39.571s-39.571,17.752-39.571,39.571c0,4.144,3.359,7.501,7.501,7.501    c4.143,0,7.501-3.358,7.501-7.501c0-13.547,11.022-24.568,24.568-24.568c13.546,0,24.568,11.022,24.568,24.569    c0,20.146-13.056,33.986-28.173,50.013c-16.859,17.871-35.967,38.128-35.967,70.249c0,4.144,3.359,7.501,7.501,7.501h64.14    c4.143,0,7.501-3.358,7.501-7.501C247.421,255.911,244.063,252.553,239.92,252.553z"/>
	<path d="M336.13,212.466h-8.534V107.722c0-4.144-3.358-7.501-7.501-7.501s-7.501,3.358-7.501,7.501v104.744h-39.972    l14.813-103.684c0.586-4.102-2.264-7.9-6.365-8.486c-4.092-0.576-7.9,2.265-8.487,6.365l-16.036,112.247    c-0.307,2.152,0.334,4.333,1.759,5.976c1.425,1.642,3.493,2.585,5.667,2.585h48.62v32.586c0,4.144,3.358,7.501,7.501,7.501    s7.501-3.358,7.501-7.501v-32.586h8.534c4.144,0,7.501-3.358,7.501-7.501S340.274,212.466,336.13,212.466z"/>
	<path d="M510.549,103.288c-1.413-1.928-3.661-3.067-6.051-3.067h-56.123c-4.144,0-7.501,3.358-7.501,7.501    c0,4.144,3.358,7.501,7.501,7.501h45.888L449.24,257.796c-1.247,3.951,0.944,8.164,4.895,9.413c0.752,0.237,1.513,0.35,2.261,0.35    c3.186,0,6.141-2.045,7.151-5.244l48.105-152.333C512.371,107.701,511.961,105.216,510.549,103.288z"/>
	<path d="M418.328,76.446c-3.995-1.113-8.129,1.212-9.247,5.201L352.96,282.085c-1.116,3.99,1.212,8.129,5.201,9.247    c0.677,0.188,1.357,0.279,2.026,0.279c3.28,0,6.292-2.167,7.22-5.48l56.122-200.438C424.645,81.703,422.317,77.563,418.328,76.446    z"/>
</svg>