<svg xmlns="http://www.w3.org/2000/svg" viewBox="0 0 511.999 511.999" width="512" height="512">
	<path d="M304.096,272.549c-4.142,0-7.5,3.357-7.5,7.5v192.387c0,13.545-11.02,24.564-24.564,24.564H63.612    c-13.545,0-24.564-11.02-24.564-24.564V39.564C39.047,26.02,50.067,15,63.612,15h208.419c4.142,0,7.5-3.357,7.5-7.5    s-3.358-7.5-7.5-7.5H63.612C41.796,0,24.047,17.748,24.047,39.564v432.871c0,21.816,17.749,39.564,39.564,39.564H272.03    c21.816,0,39.564-17.748,39.564-39.564V280.049C311.596,275.906,308.238,272.549,304.096,272.549z"/>
	<path d="M95.676,32.064H79.645c-4.142,0-7.5,3.357-7.5,7.5c0,4.143,3.358,7.5,7.5,7.5h16.032c4.142,0,7.5-3.357,7.5-7.5    C103.176,35.421,99.819,32.064,95.676,32.064z"/>
	<path d="M255.999,464.936H79.645c-4.142,0-7.5,3.357-7.5,7.5s3.358,7.5,7.5,7.5h176.355c4.142,0,7.5-3.357,7.5-7.5    S260.142,464.936,255.999,464.936z"/>
	<path d="M95.676,232.467H87.66c-4.705,0-8.532-3.827-8.532-8.532V103.693c0-4.705,3.828-8.532,8.532-8.532h8.016    c4.142,0,7.5-3.357,7.5-7.5s-3.358-7.5-7.5-7.5H87.66c-12.975,0-23.532,10.557-23.532,23.532v120.242    c0,12.976,10.557,23.532,23.532,23.532h8.016c4.142,0,7.5-3.357,7.5-7.5S99.818,232.467,95.676,232.467z"/>
	<path d="M103.692,280.564H87.66c-12.976,0-23.532,10.557-23.532,23.532c0,12.975,10.557,23.532,23.532,23.532h16.032    c12.976,0,23.532-10.557,23.532-23.532C127.224,291.121,116.668,280.564,103.692,280.564z M103.692,312.629H87.66    c-4.705,0-8.532-3.827-8.532-8.532s3.828-8.532,8.532-8.532h16.032c4.705,0,8.532,3.827,8.532,8.532    S108.397,312.629,103.692,312.629z"/>
	<path d="M175.838,280.565h-16.032c-12.976,0-23.532,10.557-23.532,23.532c0,12.975,10.556,23.532,23.532,23.532h16.032    c12.976,0,23.532-10.557,23.532-23.532C199.371,291.122,188.814,280.565,175.838,280.565z M175.838,312.628h-16.032    c-4.705,0-8.532-3.827-8.532-8.532s3.827-8.532,8.532-8.532h16.032c4.705,0,8.532,3.827,8.532,8.532    S180.543,312.628,175.838,312.628z"/>
	<path d="M247.983,280.565h-16.032c-12.976,0-23.532,10.557-23.532,23.532c0,12.975,10.556,23.532,23.532,23.532h16.032    c12.976,0,23.532-10.557,23.532-23.532C271.515,291.122,260.958,280.565,247.983,280.565z M247.983,312.628h-16.032    c-4.705,0-8.532-3.827-8.532-8.532s3.827-8.532,8.532-8.532h16.032c4.705,0,8.532,3.827,8.532,8.532    S252.687,312.628,247.983,312.628z"/>
	<path d="M103.692,336.678H87.66c-12.976,0-23.532,10.557-23.532,23.532c0,12.975,10.557,23.532,23.532,23.532h16.032    c12.976,0,23.532-10.557,23.532-23.532C127.224,347.235,116.668,336.678,103.692,336.678z M103.692,368.742H87.66    c-4.705,0-8.532-3.827-8.532-8.532s3.828-8.532,8.532-8.532h16.032c4.705,0,8.532,3.827,8.532,8.532    S108.396,368.742,103.692,368.742z"/>
	<path d="M175.838,336.678h-16.032c-12.976,0-23.532,10.557-23.532,23.532c0,12.975,10.556,23.532,23.532,23.532h16.032    c12.976,0,23.532-10.557,23.532-23.532C199.371,347.235,188.814,336.678,175.838,336.678z M175.838,368.742h-16.032    c-4.705,0-8.532-3.827-8.532-8.532s3.827-8.532,8.532-8.532h16.032c4.705,0,8.532,3.827,8.532,8.532    S180.543,368.742,175.838,368.742z"/>
	<path d="M247.983,336.678h-16.032c-12.976,0-23.532,10.557-23.532,23.532c0,12.975,10.556,23.532,23.532,23.532h16.032    c12.976,0,23.532-10.557,23.532-23.532C271.515,347.235,260.958,336.678,247.983,336.678z M247.983,368.742h-16.032    c-4.705,0-8.532-3.827-8.532-8.532s3.827-8.532,8.532-8.532h16.032c4.705,0,8.532,3.827,8.532,8.532    S252.687,368.742,247.983,368.742z"/>
	<path d="M103.692,392.79H87.66c-12.976,0-23.532,10.557-23.532,23.532c0,12.975,10.557,23.532,23.532,23.532h16.032    c12.976,0,23.532-10.557,23.532-23.532C127.224,403.347,116.668,392.79,103.692,392.79z M103.692,424.854H87.66    c-4.705,0-8.532-3.827-8.532-8.532s3.828-8.532,8.532-8.532h16.032c4.705,0,8.532,3.827,8.532,8.532    S108.396,424.854,103.692,424.854z"/>
	<path d="M175.838,392.79h-16.032c-12.976,0-23.532,10.557-23.532,23.532c0,12.975,10.556,23.532,23.532,23.532h16.032    c12.976,0,23.532-10.557,23.532-23.532C199.371,403.347,188.814,392.79,175.838,392.79z M175.838,424.854h-16.032    c-4.705,0-8.532-3.827-8.532-8.532s3.827-8.532,8.532-8.532h16.032c4.705,0,8.532,3.827,8.532,8.532    S180.543,424.854,175.838,424.854z"/>
	<path d="M247.983,392.79h-16.032c-12.976,0-23.532,10.557-23.532,23.532c0,12.975,10.556,23.532,23.532,23.532h16.032    c12.976,0,23.532-10.557,23.532-23.532C271.515,403.347,260.958,392.79,247.983,392.79z M247.983,424.854h-16.032    c-4.705,0-8.532-3.827-8.532-8.532s3.827-8.532,8.532-8.532h16.032c4.705,0,8.532,3.827,8.532,8.532    S252.687,424.854,247.983,424.854z"/>
	<path d="M456.402,32.064H151.79c-17.396,0-31.549,14.152-31.549,31.549v160.322c0,17.396,14.153,31.548,31.549,31.548h304.613    c17.396,0,31.548-14.152,31.548-31.548V63.613C487.952,46.217,473.798,32.064,456.402,32.064z M472.952,223.936    c0,9.125-7.423,16.548-16.548,16.548H151.79c-9.125,0-16.549-7.423-16.549-16.548V63.613c0-9.125,7.424-16.549,16.549-16.549h304.613c9.125,0,16.548,7.424,16.548,16.549V223.936z"/>
	<path d="M159.806,64.129c-4.142,0-7.5,3.357-7.5,7.5v144.29c0,4.143,3.358,7.5,7.5,7.5c4.142,0,7.5-3.357,7.5-7.5V71.629    C167.306,67.486,163.949,64.129,159.806,64.129z"/>
	<path d="M432.355,64.129c-4.142,0-7.5,3.357-7.5,7.5v144.29c0,4.143,3.358,7.5,7.5,7.5c4.142,0,7.5-3.357,7.5-7.5V71.629    C439.855,67.486,436.496,64.129,432.355,64.129z"/>
	<path d="M456.402,128.258c-4.142,0-7.5,3.357-7.5,7.5v16.032c0,4.143,3.358,7.5,7.5,7.5c4.142,0,7.5-3.357,7.5-7.5v-16.032    C463.902,131.615,460.545,128.258,456.402,128.258z"/>
	<path d="M333.538,143.776c0-3.209,1.25-6.227,3.519-8.496c2.93-2.93,2.929-7.679,0.001-10.608    c-2.929-2.928-7.677-2.929-10.607,0.001c-5.102,5.102-7.912,11.886-7.912,19.102s2.81,13.999,7.912,19.102    c1.465,1.464,3.384,2.196,5.303,2.196s3.839-0.732,5.303-2.197c2.929-2.929,2.929-7.678,0-10.606C334.788,150.001,333.538,146.985,333.538,143.776z"/>
	<path d="M294.511,143.774c0-13.634,5.31-26.451,14.95-36.092c2.929-2.929,2.929-7.677,0-10.607c-2.929-2.928-7.678-2.928-10.606,0    c-12.474,12.475-19.343,29.059-19.343,46.699s6.87,34.225,19.343,46.698c1.464,1.464,3.384,2.196,5.303,2.196    s3.839-0.732,5.303-2.196c2.929-2.93,2.929-7.678,0-10.607C299.821,170.225,294.511,157.408,294.511,143.774z"/>
	<path d="M281.863,207.463c-17.011-17.012-26.38-39.63-26.38-63.689c0-24.059,9.369-46.677,26.38-63.688    c2.929-2.93,2.929-7.678,0-10.607c-2.929-2.928-7.678-2.928-10.606,0c-19.845,19.846-30.774,46.23-30.774,74.296    c0,28.064,10.929,54.45,30.774,74.295c1.464,1.464,3.384,2.196,5.303,2.196s3.839-0.732,5.303-2.196C284.793,215.14,284.793,210.392,281.863,207.463z"/>
</svg>