<svg xmlns="http://www.w3.org/2000/svg" viewBox="0 0 512 512" width="512" height="512">
	<path d="M446.849,186.152l-48.873-83.781c-0.778-1.334-1.949-2.396-3.354-3.039L227.06,22.533c-1.984-0.909-4.266-0.909-6.25,0    L53.247,99.332c-1.404,0.644-2.575,1.705-3.354,3.039L1.021,186.153c-1.066,1.829-1.311,4.023-0.672,6.042    c0.639,2.019,2.101,3.673,4.025,4.555l167.563,76.8c1.01,0.463,2.072,0.683,3.121,0.683c2.594,0,5.099-1.35,6.482-3.722    l34.895-59.819v156.061L63.872,296.827v-49.15c0-4.142-3.357-7.5-7.5-7.5s-7.5,3.358-7.5,7.5v53.963    c0,2.933,1.709,5.596,4.375,6.818l167.563,76.8c0.992,0.455,2.059,0.682,3.125,0.682s2.133-0.228,3.125-0.682l24.052-11.024    c3.766-1.726,5.419-6.177,3.693-9.943c-1.727-3.765-6.174-5.419-9.943-3.693l-13.427,6.154v-156.06l34.894,59.818    c1.944,3.333,6.098,4.647,9.604,3.039l167.563-76.8c1.925-0.882,3.387-2.537,4.025-4.555    C448.159,190.176,447.916,187.981,446.849,186.152z M172.009,257.081l-153.86-70.52L59.425,115.8l153.862,70.52L172.009,257.081z     M223.935,174.7L74.372,106.15L223.935,37.6l149.562,68.549L223.935,174.7z M275.863,257.081l-41.278-70.762l153.861-70.52    l41.278,70.762L275.863,257.081z"/>
	<path d="M392.274,250.698c-66.017,0-119.726,53.709-119.726,119.726S326.257,490.15,392.274,490.15S512,436.441,512,370.424    S458.291,250.698,392.274,250.698z M392.274,475.149c-57.746,0-104.726-46.979-104.726-104.726s46.979-104.726,104.726-104.726    S497,312.678,497,370.424C497,428.17,450.02,475.149,392.274,475.149z"/>
	<path d="M442.714,341.553c-4.065-19.513-19.908-35.356-39.422-39.423c-15.557-3.242-31.429,0.546-43.544,10.396    c-12.114,9.85-19.063,24.446-19.063,40.045c0,4.142,3.357,7.5,7.5,7.5s7.5-3.358,7.5-7.5c0-11.063,4.93-21.417,13.526-28.406    c8.595-6.989,19.9-9.667,31.02-7.35c13.761,2.868,24.932,14.04,27.8,27.799c4.005,19.218-6.998,37.755-25.595,43.118    c-10.564,3.047-17.662,12.198-17.662,22.772c0,4.142,3.357,7.5,7.5,7.5s7.5-3.358,7.5-7.5c0-3.824,2.74-7.184,6.818-8.36    C432.809,394.583,448.338,368.534,442.714,341.553z"/>
	<path d="M392.354,431.745h-0.08c-4.143,0-7.46,3.358-7.46,7.5c0,4.142,3.397,7.5,7.54,7.5s7.5-3.358,7.5-7.5    C399.855,435.103,396.497,431.745,392.354,431.745z"/>
</svg>