<svg xmlns="http://www.w3.org/2000/svg" viewBox="0 0 512 512" width="512" height="512">
	<path d="M392.274,240.483c-66.017,0-119.726,53.709-119.726,119.727c0,66.017,53.709,119.726,119.726,119.726    S512,426.227,512,360.21C512,294.192,458.291,240.483,392.274,240.483z M392.274,464.936    c-57.746,0-104.726-46.979-104.726-104.726c0-57.747,46.979-104.727,104.726-104.727S497,302.464,497,360.21    C497,417.956,450.021,464.936,392.274,464.936z"/>
	<path d="M368.225,32.064H31.548C14.152,32.064,0,46.217,0,63.613v272.548c0,17.396,14.152,31.549,31.548,31.549h216.437    c4.142,0,7.5-3.357,7.5-7.5s-3.358-7.5-7.5-7.5H31.548c-9.125,0-16.548-7.424-16.548-16.549V111.193h313.144    c4.143,0,7.5-3.357,7.5-7.5s-3.357-7.5-7.5-7.5H15v-32.58c0-9.125,7.423-16.549,16.548-16.549h336.677    c9.125,0,16.549,7.424,16.549,16.549v32.58h-24.562c-4.143,0-7.5,3.357-7.5,7.5s3.357,7.5,7.5,7.5h24.562v104.724    c0,4.143,3.357,7.5,7.5,7.5s7.5-3.357,7.5-7.5V63.613C399.774,46.217,385.622,32.064,368.225,32.064z"/>
	<path d="M39.644,64.129h-0.08c-4.142,0-7.46,3.357-7.46,7.5c0,4.143,3.398,7.5,7.54,7.5c4.142,0,7.5-3.357,7.5-7.5    C47.144,67.486,43.786,64.129,39.644,64.129z"/>
	<path d="M87.741,64.129h-0.08c-4.142,0-7.46,3.357-7.46,7.5c0,4.143,3.398,7.5,7.54,7.5c4.142,0,7.5-3.357,7.5-7.5    C95.241,67.486,91.883,64.129,87.741,64.129z"/>
	<path d="M63.613,64.129h-0.08c-4.142,0-7.46,3.357-7.46,7.5c0,4.143,3.398,7.5,7.54,7.5c4.142,0,7.5-3.357,7.5-7.5    C71.113,67.486,67.755,64.129,63.613,64.129z"/>
	<path d="M272.033,64.129H119.726c-4.142,0-7.5,3.357-7.5,7.5c0,4.143,3.358,7.5,7.5,7.5h152.307c4.143,0,7.5-3.357,7.5-7.5    C279.533,67.486,276.176,64.129,272.033,64.129z"/>
	<path d="M360.21,64.129h-56.113c-4.143,0-7.5,3.357-7.5,7.5c0,4.143,3.357,7.5,7.5,7.5h56.113c4.143,0,7.5-3.358,7.5-7.5    C367.71,67.486,364.353,64.129,360.21,64.129z"/>
	<path d="M231.165,191.149l-7.771-31.082c-2.461-9.845-10.533-17.203-20.563-18.747c-43.778-6.734-88.173-6.734-131.953,0    c-10.031,1.544-18.102,8.902-20.563,18.747l-7.771,31.082c-1.533,6.13,1.343,12.385,6.996,15.211l26.907,13.453v94.438    c0.001,7.377,6.003,13.378,13.38,13.378h94.056c7.377,0,13.378-6.001,13.378-13.378v-94.438l26.908-13.453    C229.82,203.534,232.697,197.279,231.165,191.149z M164.38,152.195c-6.831,9.713-16.055,20.14-27.494,27.015    c-11.445-6.879-20.676-17.319-27.498-27.019C127.704,150.985,146.065,150.986,164.38,152.195z M197.262,203.042v-11.378    c0-4.143-3.358-7.5-7.5-7.5c-4.142,0-7.5,3.357-7.5,7.5v120.965H91.448V191.664c0-4.143-3.358-7.5-7.5-7.5    c-4.142,0-7.5,3.357-7.5,7.5v11.379l-19.035-9.518l7.455-29.821c0.993-3.97,4.247-6.937,8.292-7.559    c6.394-0.984,12.802-1.8,19.219-2.486c8.184,13.093,20.99,29.427,38.32,39.308c1.885,1.076,4.024,1.646,6.188,1.646    s4.304-0.569,6.184-1.643c17.316-9.873,30.113-26.177,38.32-39.305c6.397,0.685,12.786,1.499,19.16,2.48    c4.045,0.622,7.3,3.59,8.292,7.56l7.455,29.819L197.262,203.042z"/>
	<path d="M295.341,191.148l-7.771-31.082c-2.462-9.845-10.533-17.203-20.563-18.747c-8.011-1.231-16.153-2.251-24.201-3.029    c-4.121-0.4-7.789,2.619-8.188,6.743c-0.398,4.123,2.621,7.788,6.743,8.187c7.769,0.752,15.63,1.736,23.364,2.926    c4.045,0.622,7.3,3.59,8.292,7.56l7.455,29.819l-19.035,9.518v-11.378c0-4.143-3.358-7.5-7.5-7.5c-4.142,0-7.5,3.357-7.5,7.5    V312.63h-28.406c-4.142,0-7.5,3.357-7.5,7.5s3.358,7.5,7.5,7.5h30.028c7.377,0,13.379-6.001,13.379-13.378v-94.438l26.907-13.455    C293.995,203.534,296.873,197.279,295.341,191.148z"/>
	<path d="M359.469,191.148l-7.771-31.082c-2.462-9.845-10.533-17.203-20.563-18.747c-8.012-1.232-16.154-2.251-24.201-3.029    c-4.129-0.407-7.788,2.62-8.187,6.743c-0.399,4.123,2.62,7.788,6.743,8.187c7.768,0.752,15.628,1.735,23.364,2.926    c4.044,0.622,7.299,3.59,8.291,7.56l7.455,29.819l-19.035,9.518v-11.378c0.001-4.144-3.356-7.501-7.499-7.501s-7.5,3.357-7.5,7.5    v48.304c0,4.143,3.357,7.5,7.5,7.5s7.5-3.357,7.5-7.5v-20.155l26.907-13.454C358.123,203.534,361.001,197.279,359.469,191.148z"/>
	<path d="M437.658,314.825c-2.93-2.928-7.678-2.928-10.607,0l-80.161,80.161c-2.929,2.93-2.929,7.678,0,10.607    c1.465,1.464,3.385,2.196,5.304,2.196c1.919,0,3.839-0.732,5.304-2.196l80.161-80.161    C440.587,322.503,440.587,317.755,437.658,314.825z"/>
	<path d="M360.21,304.614c-12.975,0-23.532,10.557-23.532,23.532c0,12.975,10.557,23.532,23.532,23.532    c12.975,0,23.532-10.557,23.532-23.532C383.742,315.17,373.185,304.614,360.21,304.614z M360.21,336.678    c-4.705,0-8.532-3.827-8.532-8.532s3.827-8.532,8.532-8.532s8.532,3.827,8.532,8.532S364.915,336.678,360.21,336.678z"/>
	<path d="M424.339,368.742c-12.976,0-23.532,10.557-23.532,23.532c0,12.975,10.557,23.532,23.532,23.532    c12.975,0,23.532-10.557,23.532-23.532C447.871,379.299,437.314,368.742,424.339,368.742z M424.339,400.807    c-4.705,0-8.532-3.827-8.532-8.532s3.827-8.532,8.532-8.532s8.532,3.827,8.532,8.532S429.044,400.807,424.339,400.807z"/>
</svg>