<svg xmlns="http://www.w3.org/2000/svg" viewBox="0 0 512 512" width="512" height="512">
	<path d="M392.274,240.483c-66.017,0-119.726,53.709-119.726,119.727c0,66.017,53.709,119.726,119.726,119.726    S512,426.227,512,360.21C512,294.192,458.292,240.483,392.274,240.483z M392.274,464.936    c-57.746,0-104.726-46.979-104.726-104.726c0-57.747,46.98-104.727,104.726-104.727C450.02,255.483,497,302.464,497,360.21    C497,417.956,450.021,464.936,392.274,464.936z"/>
	<path d="M368.225,32.064H31.548C14.152,32.064,0,46.217,0,63.613v272.548c0,17.396,14.152,31.549,31.548,31.549h216.437    c4.142,0,7.5-3.357,7.5-7.5s-3.358-7.5-7.5-7.5H31.548c-9.125,0-16.548-7.424-16.548-16.549V111.193h313.143    c4.142,0,7.5-3.357,7.5-7.5s-3.358-7.5-7.5-7.5H15v-32.58c0-9.125,7.423-16.549,16.548-16.549h336.677    c9.125,0,16.549,7.424,16.549,16.549v32.58h-24.562c-4.142,0-7.5,3.357-7.5,7.5s3.358,7.5,7.5,7.5h24.562v104.724    c0,4.143,3.358,7.5,7.5,7.5c4.142,0,7.5-3.357,7.5-7.5V63.613C399.774,46.217,385.621,32.064,368.225,32.064z"/>
	<path d="M39.644,64.129h-0.08c-4.142,0-7.46,3.357-7.46,7.5c0,4.143,3.398,7.5,7.54,7.5c4.142,0,7.5-3.357,7.5-7.5    C47.144,67.486,43.786,64.129,39.644,64.129z"/>
	<path d="M87.741,64.129h-0.08c-4.142,0-7.46,3.357-7.46,7.5c0,4.143,3.398,7.5,7.54,7.5c4.142,0,7.5-3.357,7.5-7.5    C95.241,67.486,91.883,64.129,87.741,64.129z"/>
	<path d="M63.613,64.129h-0.08c-4.142,0-7.46,3.357-7.46,7.5c0,4.143,3.398,7.5,7.54,7.5c4.142,0,7.5-3.357,7.5-7.5    C71.113,67.486,67.755,64.129,63.613,64.129z"/>
	<path d="M272.033,64.129H119.726c-4.142,0-7.5,3.357-7.5,7.5c0,4.143,3.358,7.5,7.5,7.5h152.307c4.142,0,7.5-3.357,7.5-7.5    C279.533,67.486,276.175,64.129,272.033,64.129z"/>
	<path d="M360.209,64.129h-56.113c-4.142,0-7.5,3.357-7.5,7.5c0,4.143,3.358,7.5,7.5,7.5h56.113c4.143,0,7.5-3.358,7.5-7.5    C367.709,67.486,364.351,64.129,360.209,64.129z"/>
	<path d="M431.839,338.62v-10.475c0-21.815-17.749-39.564-39.565-39.564c-21.816,0-39.564,17.749-39.564,39.564v10.475    c-4.774,2.648-8.016,7.737-8.016,13.573v56.113c0,8.556,6.96,15.516,15.516,15.516h64.129c8.556,0,15.516-6.96,15.516-15.516    v-56.113C439.855,346.357,436.613,341.269,431.839,338.62z M367.709,328.145c0-13.544,11.02-24.564,24.565-24.564    c13.545,0,24.564,11.02,24.564,24.564v8.532h-49.129V328.145z M424.855,408.307c0,0.284-0.231,0.516-0.516,0.516H360.21    c-0.285,0-0.516-0.231-0.516-0.516v-56.113c0-0.284,0.231-0.516,0.516-0.516h64.129c0.285,0,0.516,0.231,0.516,0.516V408.307z"/>
	<path d="M392.274,368.742c-4.142,0-7.5,3.357-7.5,7.5v8.016c0,4.143,3.358,7.5,7.5,7.5c4.142,0,7.5-3.357,7.5-7.5v-8.016    C399.774,372.1,396.417,368.742,392.274,368.742z"/>
	<path d="M247.984,200.403h-0.516v-24.564c0-12.976-10.557-23.532-23.532-23.532H79.645c-12.976,0-23.532,10.557-23.532,23.532    v112.226c0,12.976,10.557,23.532,23.532,23.532h144.291c12.976,0,23.532-10.557,23.532-23.532V263.5h0.516    c8.556,0,15.516-6.961,15.516-15.517v-32.064C263.5,207.363,256.54,200.403,247.984,200.403z M232.468,288.064    c0,4.705-3.828,8.532-8.532,8.532H79.645c-4.705,0-8.532-3.827-8.532-8.532V175.839c0-4.705,3.828-8.532,8.532-8.532h144.291    c4.705,0,8.532,3.827,8.532,8.532v24.564h-40.597c-8.556,0-15.516,6.96-15.516,15.516v32.064c0,8.556,6.96,15.517,15.516,15.517    h40.597V288.064z M248.5,247.983c0,0.285-0.231,0.517-0.516,0.517h-56.113c-0.285,0-0.516-0.231-0.516-0.517v-32.064    c0-0.284,0.231-0.516,0.516-0.516h56.113c0.285,0,0.516,0.231,0.516,0.516V247.983z"/>
	<path d="M207.903,224.451h-0.08c-4.142,0-7.46,3.357-7.46,7.5s3.398,7.5,7.54,7.5c4.142,0,7.5-3.357,7.5-7.5    S212.045,224.451,207.903,224.451z"/>
	<path d="M352.193,168.339h-64.129c-4.142,0-7.5,3.357-7.5,7.5s3.358,7.5,7.5,7.5h64.129c4.142,0,7.5-3.358,7.5-7.5    C359.693,171.696,356.335,168.339,352.193,168.339z"/>
	<path d="M304.096,232.468h-16.032c-4.142,0-7.5,3.357-7.5,7.5s3.358,7.5,7.5,7.5h16.032c4.142,0,7.5-3.357,7.5-7.5    S308.238,232.468,304.096,232.468z"/>
	<path d="M328.145,200.403h-40.081c-4.142,0-7.5,3.357-7.5,7.5s3.358,7.5,7.5,7.5h40.081c4.142,0,7.5-3.357,7.5-7.5    S332.287,200.403,328.145,200.403z"/>
</svg>