<svg xmlns="http://www.w3.org/2000/svg" viewBox="0 0 512 512" width="512" height="512">
	<path d="M368.226,33.029H31.549C14.152,33.029,0,47.182,0,64.577v272.549c0,17.396,14.152,31.548,31.549,31.548h216.436    c4.143,0,7.5-3.357,7.5-7.5s-3.358-7.5-7.501-7.5H31.549c-9.125,0-16.549-7.423-16.549-16.548V112.158h313.144    c4.143,0,7.5-3.357,7.5-7.5c0-4.143-3.357-7.5-7.5-7.5H15V64.577c0-9.125,7.424-16.548,16.549-16.548h336.677    c9.125,0,16.549,7.423,16.549,16.548v32.581h-24.562c-4.143,0-7.5,3.357-7.5,7.5s3.357,7.5,7.5,7.5h24.562v136.79    c0,4.143,3.357,7.5,7.5,7.5s7.5-3.357,7.5-7.5V64.577C399.775,47.181,385.623,33.029,368.226,33.029z"/>
	<path d="M39.644,65.094h-0.08c-4.143,0-7.46,3.357-7.46,7.5s3.397,7.5,7.54,7.5s7.5-3.357,7.5-7.5S43.787,65.094,39.644,65.094z"/>
	<path d="M87.741,65.094h-0.08c-4.143,0-7.46,3.357-7.46,7.5s3.397,7.5,7.54,7.5s7.5-3.357,7.5-7.5S91.884,65.094,87.741,65.094z"/>
	<path d="M63.613,65.094h-0.08c-4.143,0-7.46,3.357-7.46,7.5s3.397,7.5,7.54,7.5c4.143,0,7.5-3.357,7.5-7.5    S67.756,65.094,63.613,65.094z"/>
	<path d="M272.033,65.094H119.726c-4.143,0-7.5,3.357-7.5,7.5s3.357,7.5,7.5,7.5h152.307c4.143,0,7.5-3.357,7.5-7.5    S276.176,65.094,272.033,65.094z"/>
	<path d="M360.21,65.094h-56.113c-4.143,0-7.5,3.357-7.5,7.5s3.357,7.5,7.5,7.5h56.113c4.143,0,7.5-3.358,7.5-7.5    C367.71,68.451,364.353,65.094,360.21,65.094z"/>
	<path d="M439.041,265.496c-15.741,0-30.733,4.938-43.356,14.28c-1.732,1.281-3.969,1.281-5.701,0    c-12.623-9.343-27.615-14.28-43.355-14.28c-40.23,0-72.96,32.729-72.96,72.96c0,51.136,55.237,110.298,108.639,137.953    c3.296,1.708,6.911,2.562,10.527,2.562c3.615,0,7.231-0.854,10.527-2.561C456.763,448.754,512,389.592,512,338.456    C512,298.226,479.271,265.496,439.041,265.496z M396.463,463.091c-2.273,1.176-4.986,1.177-7.258-0.001    c-62.1-32.159-100.537-89.734-100.537-124.634c0-31.959,26.001-57.96,57.96-57.96c12.504,0,24.41,3.92,34.432,11.337    c7.042,5.212,16.507,5.214,23.549,0c10.021-7.417,21.928-11.337,34.433-11.337c31.959,0,57.959,26.001,57.959,57.96    C497,383.279,444.813,438.051,396.463,463.091z"/>
	<path d="M344.177,137.238h-104.21c-8.556,0-15.517,6.961-15.517,15.517v16.032c0,8.556,6.961,15.516,15.517,15.516h104.21    c8.556,0,15.516-6.96,15.516-15.516v-16.032C359.693,144.199,352.733,137.238,344.177,137.238z M344.694,168.787    c0,0.284-0.231,0.516-0.516,0.516h-104.21c-0.285,0-0.517-0.232-0.517-0.516v-16.032c0-0.285,0.231-0.517,0.517-0.517h104.21    c0.284,0,0.516,0.231,0.516,0.517V168.787z"/>
	<path d="M328.146,201.367h-88.178c-4.143,0-7.5,3.357-7.5,7.5s3.357,7.5,7.5,7.5h88.178c4.142,0,7.5-3.357,7.5-7.5    S332.289,201.367,328.146,201.367z"/>
	<path d="M304.097,233.432h-64.129c-4.143,0-7.5,3.357-7.5,7.5s3.357,7.5,7.5,7.5h64.129c4.143,0,7.5-3.357,7.5-7.5    S308.24,233.432,304.097,233.432z"/>
	<path d="M151.988,187.212l21.138-21.138c2.929-2.93,2.929-7.678,0-10.607l-16.032-16.032c-1.407-1.406-3.314-2.196-5.304-2.196    h-32.064c-1.989,0-3.896,0.79-5.304,2.196L98.39,155.467c-2.929,2.93-2.929,7.678,0,10.607l21.138,21.138    c-31.701,7.376-55.399,35.839-55.399,69.752c0,39.497,32.133,71.63,71.629,71.63c39.496,0,71.629-32.133,71.629-71.63    C207.387,223.051,183.689,194.588,151.988,187.212z M114.3,160.771l8.532-8.533h25.852l8.532,8.532l-21.458,21.458L114.3,160.771z     M135.758,313.594c-31.226,0-56.629-25.404-56.629-56.63s25.403-56.629,56.629-56.629s56.629,25.403,56.629,56.629    S166.984,313.594,135.758,313.594z"/>
</svg>