<svg xmlns="http://www.w3.org/2000/svg" viewBox="0 0 512 512" width="512" height="512">
	<path d="M403.734,91.798L215.126,0.746c-2.061-0.995-4.461-0.995-6.521,0L19.998,91.798c-2.592,1.251-4.239,3.876-4.239,6.754    v221.125c0,2.878,1.647,5.503,4.239,6.754l188.607,91.051c1.03,0.498,2.146,0.746,3.261,0.746c1.115,0,2.23-0.249,3.261-0.746    l70.512-34.041c3.73-1.8,5.294-6.283,3.493-10.014c-1.8-3.73-6.286-5.294-10.015-3.493l-59.751,28.846V194.311l37.175-17.947    c3.73-1.801,5.294-6.284,3.493-10.015c-1.8-3.73-6.285-5.294-10.015-3.493l-38.154,18.419L40.51,98.552l57.193-27.61    l181.456,87.599v72.197c0,2.581,1.327,4.98,3.513,6.353c1.214,0.762,2.599,1.147,3.987,1.147c1.112,0,2.228-0.247,3.261-0.746    l45.525-21.978c2.592-1.251,4.239-3.875,4.239-6.754v-72.533l53.289-25.725V296.43c0,4.142,3.357,7.5,7.5,7.5s7.5-3.358,7.5-7.5    V98.552C407.973,95.674,406.326,93.049,403.734,91.798z M204.366,194.311V398.78L30.759,314.97V110.501L204.366,194.311z     M286.309,145.336L115.274,62.768l32.39-15.699l171.1,82.6L286.309,145.336z M324.684,204.052l-30.525,14.737v-60.585    l30.525-14.736V204.052z M335.968,121.364c-0.173-0.102-0.34-0.211-0.523-0.3L164.66,38.617l47.206-22.789l171.356,82.724    L335.968,121.364z"/>
	<path d="M86.679,290.287l-27.678-13.362c-3.731-1.802-8.214-0.237-10.015,3.493c-1.801,3.73-0.237,8.214,3.493,10.015    l27.678,13.362c1.051,0.507,2.162,0.748,3.255,0.748c2.788,0,5.466-1.562,6.759-4.241    C91.973,296.572,90.409,292.088,86.679,290.287z"/>
	<path d="M112.151,268.69l-53.113-25.641c-3.732-1.803-8.214-0.237-10.015,3.493c-1.801,3.73-0.237,8.214,3.493,10.015    l53.113,25.641c1.051,0.508,2.162,0.748,3.255,0.748c2.788,0,5.466-1.562,6.759-4.241    C117.446,274.974,115.881,270.491,112.151,268.69z"/>
	<path d="M486.964,290.197c-5.992-5.993-13.96-9.293-22.435-9.293c-8.475,0-16.442,3.3-22.435,9.293l-34.927,34.927    l-112.646-19.878c-3.271-0.577-6.527,1.063-8.012,4.032l-13.704,27.41c-1.853,3.705-0.351,8.21,3.354,10.062l72.922,36.461    l-19.574,19.574l-35.933-1.711c-2.114-0.094-4.166,0.695-5.66,2.188l-20.557,20.558c-1.729,1.73-2.507,4.195-2.082,6.604    c0.424,2.41,1.997,4.46,4.214,5.495l48.922,22.83l22.83,48.922c1.035,2.217,3.086,3.791,5.495,4.215    c0.435,0.077,0.869,0.114,1.302,0.114c1.972,0,3.885-0.778,5.304-2.197l20.558-20.558c1.494-1.494,2.288-3.549,2.188-5.66    l-1.711-35.931l19.575-19.575l36.461,72.922c0.89,1.779,2.449,3.132,4.336,3.761c0.772,0.257,1.573,0.385,2.372,0.385    c1.153,0,2.303-0.266,3.354-0.792l27.409-13.705c2.968-1.484,4.608-4.743,4.031-8.011l-19.878-112.646l34.928-34.928    C499.334,322.696,499.334,302.567,486.964,290.197z M289.576,336.687l7.848-15.697l96.797,17.081l-33.959,33.959L289.576,336.687z     M456.171,479.737l-15.696,7.849L405.131,416.9l33.959-33.959L456.171,479.737z M476.357,324.459L361.423,439.394    c-1.494,1.494-2.288,3.549-2.188,5.66l1.711,35.932l-10.64,10.64l-19.456-41.69c-0.744-1.597-2.027-2.88-3.624-3.625    l-41.69-19.456l10.639-10.64l35.933,1.711c2.125,0.1,4.166-0.695,5.66-2.188l114.935-114.934    c3.159-3.159,7.359-4.899,11.827-4.899c4.468,0,8.669,1.74,11.828,4.899C482.879,307.325,482.879,317.937,476.357,324.459z"/>
</svg>