<svg xmlns="http://www.w3.org/2000/svg" viewBox="0 0 512 512" width="512" height="512">
	<path d="M391.465,405.755c-1.286-9.729-6.902-18.117-15.408-23.014l-96.078-55.318c-12.236-7.044-27.755-4.993-37.739,4.991    l-24.861,24.861c-4.885,4.886-12.644,5.282-18.045,0.921c-14.665-11.84-29.11-24.852-42.934-38.675    c-13.823-13.823-26.836-28.269-38.675-42.934c-4.361-5.402-3.965-13.159,0.922-18.045l24.861-24.861    c9.983-9.984,12.035-25.503,4.991-37.738L93.182,99.864c-4.897-8.504-13.285-14.12-23.015-15.408    c-9.723-1.284-19.289,1.954-26.23,8.894l-28.516,28.516c-40.705,40.705,1.781,146.963,96.725,241.908    c70.565,70.564,147.368,112.152,198.875,112.146c17.795-0.002,32.582-4.969,43.033-15.421l28.516-28.516    C389.509,425.045,392.752,415.484,391.465,405.755z M371.963,421.375l-3.804,3.804l-82.26-46.947    c-3.596-2.052-8.179-0.802-10.233,2.796s-0.802,8.179,2.797,10.233l78.7,44.915l-13.717,13.715    c-15.452,15.452-47.317,14.695-87.418-2.075c-42.807-17.901-90.137-51.515-133.272-94.65    C79.62,310.031,46.007,262.7,28.105,219.894c-16.771-40.104-17.526-71.967-2.074-87.419l14.644-14.644l5.198,9.028    c1.389,2.41,3.913,3.76,6.508,3.76c1.27,0,2.557-0.323,3.736-1.002c3.591-2.067,4.825-6.653,2.758-10.244l-7.214-12.528    l2.885-2.885c3.094-3.093,7.185-4.774,11.476-4.774c0.722,0,1.449,0.047,2.178,0.144c5.064,0.669,9.432,3.593,11.98,8.02    l55.319,96.078c3.668,6.369,2.599,14.448-2.599,19.644l-9.087,9.088l-48.907-84.945c-2.067-3.591-6.654-4.825-10.244-2.757    c-3.591,2.066-4.825,6.653-2.758,10.244l50.924,88.445l-4.788,4.788c-10.324,10.323-11.178,26.693-1.987,38.078    c12.172,15.078,25.542,29.922,39.74,44.12s29.041,27.568,44.119,39.739c11.384,9.191,27.755,8.338,38.078-1.986l3.456-3.456    l18.519,10.569c1.173,0.669,2.45,0.988,3.712,0.988c2.605,0,5.138-1.359,6.522-3.785c2.054-3.598,0.802-8.179-2.796-10.233    l-14.959-8.537l10.408-10.408c5.196-5.197,13.273-6.266,19.645-2.598l96.078,55.318c4.428,2.549,7.351,6.916,8.021,11.98    C377.264,412.787,375.576,417.764,371.963,421.375z"/>
	<path d="M434.685,118.932c-4.066-19.517-19.912-35.363-39.43-39.431c-15.565-3.244-31.436,0.547-43.552,10.398    c-12.116,9.852-19.066,24.45-19.066,40.052c0,4.143,3.358,7.501,7.501,7.501c4.144,0,7.501-3.359,7.501-7.501    c0-11.065,4.931-21.421,13.527-28.412c8.595-6.989,19.901-9.669,31.026-7.351c13.763,2.869,24.936,14.042,27.805,27.805    c4.006,19.221-6.999,37.761-25.598,43.125c-10.566,3.047-17.666,12.2-17.666,22.776c0,4.143,3.358,7.501,7.501,7.501    s7.501-3.359,7.501-7.501c0-3.825,2.74-7.185,6.82-8.36C424.778,171.971,440.309,145.919,434.685,118.932z"/>
	<path d="M384.317,209.14h-0.08c-4.144,0-7.461,3.359-7.461,7.501s3.398,7.501,7.541,7.501c4.144,0,7.501-3.359,7.501-7.501    S388.459,209.14,384.317,209.14z"/>
	<path d="M480.446,36.079h-192.42c-17.399,0-31.553,14.154-31.553,31.553V236c0,17.399,14.154,31.553,31.553,31.553h32.587v38.944    c0,4.672,2.789,8.846,7.105,10.634c1.433,0.593,2.932,0.881,4.416,0.881c2.99,0,5.92-1.169,8.127-3.377l47.081-47.082h93.103    C497.844,267.554,512,253.399,512,236V67.632C512,50.233,497.845,36.079,480.446,36.079z M496.998,236L496.998,236    c0,9.127-7.425,16.551-16.552,16.551h-96.21c-1.989,0-3.897,0.79-5.305,2.197l-43.316,43.317v-38.013    c0-4.143-3.358-7.501-7.501-7.501h-40.088c-9.127,0-16.551-7.424-16.551-16.551V67.632c0-9.127,7.424-16.551,16.551-16.551h192.42    c9.127,0,16.552,7.424,16.552,16.551V236z"/>
</svg>