<svg xmlns="http://www.w3.org/2000/svg" viewBox="0 0 512 512" width="512" height="512">
	<path d="M406.46,90.141c-31.352-28.457-69.678-47.279-111.101-54.621C293.326,15.596,276.451,0,256,0    c-21.816,0-39.564,17.749-39.564,39.564c0,21.817,17.748,39.565,39.564,39.565c18.015,0,33.245-12.107,38.009-28.608    c38.149,7.006,73.439,24.467,102.369,50.726c1.437,1.304,3.24,1.947,5.039,1.947c2.041,0,4.075-0.829,5.556-2.459    C409.757,97.668,409.527,92.925,406.46,90.141z M256,64.129c-13.545,0-24.564-11.02-24.564-24.564S242.455,15,256,15    c13.545,0,24.564,11.02,24.564,24.564C280.564,53.108,269.545,64.129,256,64.129z"/>
	<path d="M256,432.871c-18.016,0-33.247,12.108-38.01,28.611c-38.136-7.005-73.44-24.478-102.349-50.711    c-3.067-2.783-7.811-2.554-10.594,0.514c-2.784,3.067-2.554,7.811,0.514,10.594c31.329,28.43,69.672,47.262,111.081,54.604    C218.674,496.404,235.55,512,256,512c21.816,0,39.564-17.749,39.564-39.564C295.564,450.619,277.816,432.871,256,432.871z     M256,497c-13.545,0-24.564-11.02-24.564-24.564s11.02-24.564,24.564-24.564s24.564,11.02,24.564,24.564S269.545,497,256,497z"/>
	<path d="M199.032,47.004c-1.226-3.955-5.422-6.171-9.384-4.944c-40.963,12.69-77.147,36.728-104.885,69.625    c-8.291-3.74-17.54-4.505-26.443-2.119c-10.208,2.735-18.739,9.282-24.023,18.434c-10.907,18.893-4.411,43.138,14.482,54.046    c6.216,3.589,13.007,5.294,19.716,5.293c13.683-0.001,27.011-7.097,34.33-19.774c5.284-9.152,6.688-19.814,3.952-30.022    c-1.758-6.563-5.1-12.428-9.69-17.188c25.772-30.186,59.207-52.258,97.001-63.967C198.044,55.162,200.258,50.961,199.032,47.004z     M89.834,160.065c-6.772,11.729-21.825,15.765-33.556,8.991c-11.729-6.773-15.762-21.826-8.99-33.556    c3.281-5.683,8.578-9.747,14.916-11.445c2.116-0.567,4.264-0.848,6.397-0.848c4.256,0,8.457,1.116,12.242,3.302    c5.683,3.281,9.747,8.578,11.445,14.916S93.114,154.382,89.834,160.065z"/>
	<path d="M463.221,329.954c-18.892-10.908-43.138-4.413-54.046,14.481c-5.284,9.152-6.688,19.814-3.952,30.022    c1.758,6.563,5.1,12.428,9.69,17.188c-25.771,30.186-59.2,52.256-97,63.967c-3.956,1.226-6.17,5.427-4.944,9.383    c0.997,3.217,3.961,5.283,7.162,5.283c0.734,0,1.482-0.109,2.222-0.338c40.976-12.695,77.159-36.733,104.899-69.64    c5.115,2.306,10.586,3.499,16.124,3.499c3.437,0,6.896-0.452,10.305-1.365c10.208-2.735,18.739-9.282,24.023-18.434    C488.61,365.107,482.114,340.862,463.221,329.954z M464.712,376.5c-3.281,5.683-8.578,9.747-14.916,11.445    c-6.336,1.698-12.957,0.827-18.64-2.454c-5.683-3.281-9.747-8.578-11.445-14.916c-1.698-6.338-0.826-12.957,2.454-18.64    c4.545-7.872,12.818-12.277,21.315-12.277c4.164,0,8.382,1.059,12.24,3.286C467.451,349.717,471.484,364.77,464.712,376.5z"/>
	<path d="M477.702,128.001c-5.284-9.152-13.815-15.699-24.023-18.434c-10.21-2.735-20.871-1.332-30.022,3.953    c-9.152,5.284-15.699,13.815-18.434,24.023c-2.736,10.207-1.332,20.869,3.952,30.021c7.32,12.679,20.646,19.775,34.33,19.774    c3.16,0,6.337-0.393,9.465-1.168c7.934,22.363,11.965,45.818,11.965,69.83c0,15.67-1.741,31.294-5.177,46.436    c-0.916,4.04,1.616,8.057,5.655,8.974c0.559,0.126,1.116,0.188,1.666,0.188c3.425,0,6.518-2.362,7.308-5.843    c3.682-16.229,5.548-32.969,5.548-49.754c0-26.202-4.475-51.795-13.296-76.168C482.862,168.108,487.923,145.705,477.702,128.001z     M455.72,169.056c-11.731,6.773-26.782,2.738-33.556-8.991c-3.279-5.683-4.151-12.302-2.453-18.64s5.763-11.635,11.445-14.916    c3.785-2.186,7.985-3.302,12.242-3.302c2.134,0,4.281,0.281,6.397,0.848c6.338,1.698,11.635,5.763,14.916,11.445    C471.483,147.23,467.45,162.283,455.72,169.056z"/>
	<path d="M102.825,344.436c-9.011-15.608-27.125-22.743-43.802-18.607C51.09,303.458,47.064,279.989,47.064,256    c0-15.673,1.742-31.297,5.178-46.438c0.916-4.04-1.615-8.057-5.655-8.974c-4.039-0.916-8.057,1.615-8.974,5.655    c-3.682,16.229-5.549,32.969-5.549,49.757c0,26.178,4.483,51.783,13.302,76.164C29.138,343.888,24.075,366.294,34.298,384    c5.284,9.152,13.815,15.699,24.023,18.434c3.409,0.914,6.868,1.365,10.305,1.365c6.855,0,13.622-1.798,19.718-5.318    c9.152-5.284,15.699-13.815,18.434-24.023C109.513,364.25,108.109,353.588,102.825,344.436z M92.289,370.575    c-1.698,6.338-5.763,11.635-11.445,14.916s-12.302,4.152-18.64,2.454c-6.338-1.698-11.635-5.763-14.916-11.445    c-6.772-11.73-2.739-26.783,8.991-33.556c11.732-6.772,26.783-2.738,33.556,8.991C93.115,357.618,93.987,364.237,92.289,370.575z"/>
	<path d="M342.499,338.478l-13.941-160.322c-0.884-10.167-9.245-17.833-19.45-17.833h-21.557v-8.532    c0-17.396-14.152-31.548-31.549-31.548c-17.397,0-31.549,14.152-31.549,31.548v8.532h-21.557    c-10.207-0.001-18.568,7.666-19.452,17.832l-13.941,160.323c-0.473,5.438,1.372,10.863,5.061,14.886    c3.688,4.022,8.934,6.329,14.391,6.329h134.092c5.457,0,10.703-2.307,14.391-6.329    C341.126,349.341,342.971,343.916,342.499,338.478z M256,135.242c9.125,0,16.549,7.423,16.549,16.548v8.532h-33.098v-8.532h0    C239.451,142.665,246.875,135.242,256,135.242z M326.382,343.227c-0.503,0.548-1.604,1.467-3.335,1.467H188.954    c-1.731,0-2.832-0.919-3.335-1.467c-0.502-0.548-1.322-1.725-1.173-3.449l13.941-160.323c0.206-2.356,2.143-4.133,4.508-4.133    h21.557v8.532c0,4.143,3.357,7.5,7.5,7.5s7.5-3.357,7.5-7.5v-8.532h33.098v8.532c0,4.143,3.357,7.5,7.5,7.5s7.5-3.357,7.5-7.5    v-8.532h21.557c2.364,0,4.302,1.776,4.507,4.133l13.941,160.322C327.704,341.502,326.884,342.679,326.382,343.227z"/>
</svg>