<svg xmlns="http://www.w3.org/2000/svg" viewBox="0 0 512.001 512.001" width="512" height="512">
	<path d="M392.269,144.296h-81.69l-65.593-131.27c-5.8-11.607-19.962-16.331-31.569-10.532c-2.043,1.021-3.882,2.322-5.506,3.836    c-1.631-1.516-3.482-2.813-5.529-3.836c-5.623-2.81-12.002-3.261-17.966-1.272c-5.962,1.989-10.793,6.182-13.603,11.804    l-68.143,136.376c-4.594,9.193-2.58,19.985,4.221,26.959H23.532c-4.705,0-8.532-3.828-8.532-8.532s3.828-8.532,8.532-8.532h53.774    c4.142,0,7.5-3.358,7.5-7.5c0-4.142-3.358-7.5-7.5-7.5H23.532C10.557,144.297,0,154.854,0,167.829    c0,10.718,7.206,19.779,17.025,22.61l27.825,166.944c2.546,15.275,15.633,26.362,31.119,26.362h180.025c4.142,0,7.5-3.358,7.5-7.5    c0-4.142-3.358-7.5-7.5-7.5h-40.592v-49.128h32.581c4.142,0,7.5-3.358,7.5-7.5c0-4.142-3.358-7.5-7.5-7.5h-32.581v-49.128h74.935    l-1.6,18.403c-0.359,4.127,2.695,7.763,6.822,8.122c0.221,0.02,0.44,0.029,0.658,0.029c3.848,0,7.123-2.945,7.463-6.851    l1.713-19.703h76.189c3.666,0,6.795-2.65,7.397-6.267l9.799-58.784c9.819-2.831,17.025-11.892,17.025-22.61    C415.801,154.852,405.244,144.296,392.269,144.296z M207.9,44.098l63.128,126.34c1.121,2.243,2.563,4.219,4.23,5.922H140.543    c1.667-1.702,3.109-3.679,4.23-5.922l5.567-11.142h83.947c4.142,0,7.5-3.358,7.5-7.5c0-4.142-3.358-7.5-7.5-7.5h-76.452    L207.9,44.098z M116.089,156.107L184.232,19.73c1.019-2.039,2.771-3.558,4.932-4.28c2.161-0.722,4.475-0.557,6.515,0.461    c4.208,2.103,5.921,7.237,3.818,11.446l-68.143,136.376c-2.103,4.209-7.236,5.922-11.447,3.819    C115.7,165.45,113.986,160.316,116.089,156.107z M32.385,191.36h72.447l4.272,49.128H40.573L32.385,191.36z M51.261,304.616    l-8.188-49.128h67.335l4.272,49.128H51.261z M75.967,368.744c-8.122,0-14.987-5.815-16.322-13.828l-5.884-35.3h62.223    l4.272,49.128H75.967z M200.4,368.744h-65.087l-4.272-49.128H200.4V368.744z M200.4,304.616h-70.664l-4.272-49.128H200.4V304.616z     M200.4,240.488h-76.24l-4.272-49.128H200.4V240.488z M291.639,240.489H215.4v-49.128h80.512L291.639,240.489z M295.892,167.553    c-4.207,2.103-9.343,0.39-11.446-3.819L216.303,27.358c-2.102-4.208-0.389-9.343,3.82-11.446c1.221-0.61,2.52-0.899,3.8-0.899    c3.133,0,6.153,1.73,7.646,4.718l68.143,136.375C301.814,160.315,300.1,165.45,295.892,167.553z M375.227,240.489h-68.532    l4.272-49.128h72.447L375.227,240.489z M392.269,176.36h-83.361c4.447-4.561,6.845-10.752,6.688-17.064h76.673    c4.705,0,8.532,3.828,8.532,8.532C400.801,172.533,396.974,176.36,392.269,176.36z"/>
	<path d="M511.889,311.689c-0.182-3.186-2.359-5.907-5.427-6.784L394.33,272.842c-1.348-0.386-2.775-0.386-4.123,0l-112.132,32.063    c-3.063,0.876-5.239,3.591-5.426,6.772c-0.079,1.358-1.798,33.743,11.568,74.601c12.354,37.765,40.5,90.076,104.427,124.812    c1.116,0.606,2.348,0.91,3.581,0.91c1.173,0,2.348-0.275,3.423-0.827c64.085-32.867,92.291-85.336,104.667-123.565    C513.683,346.322,511.968,313.084,511.889,311.689z M486.045,382.988c-7.333,22.65-18.018,43.168-31.756,60.986    c-16.383,21.247-37.213,38.727-61.965,52.006c-45.776-25.888-77.279-64.159-93.669-113.811    c-9.587-29.045-10.985-53.938-11.096-64.374l104.708-29.941l104.717,29.944C496.898,328.339,495.561,353.593,486.045,382.988z"/>
	<path d="M473.35,328.785l-79.02-22.596c-1.348-0.384-2.775-0.384-4.123,0.001l-79.017,22.595    c-3.535,1.011-5.816,4.435-5.388,8.085c3.896,33.172,19.813,95.048,82.661,136.736c1.255,0.833,2.7,1.25,4.146,1.25    c1.403,0,2.808-0.393,4.04-1.181c62.393-39.889,78.214-102.849,82.091-136.828C479.156,333.203,476.877,329.794,473.35,328.785z     M392.681,458.324c-50.794-35.72-66.419-86.067-71.128-116.9l70.716-20.222l70.746,20.23    C458.368,372.922,442.932,424.064,392.681,458.324z"/>
</svg>