<svg xmlns="http://www.w3.org/2000/svg" width="138" height="45" viewBox="0 0 1380 449" fill="#ffffff">
  <path fill-rule="nonzero" d="M476 435c-8,0 -12,-5 -10,-13l20 -118c2,-8 7,-13 15,-13l7 0c8,0 11,5 10,13l-19 105 46 0c8,0 12,4 10,13l0 0c-1,8 -6,13 -14,13l-65 0zm163 2c-43,0 -67,-27 -58,-72 8,-48 40,-76 84,-76 42,0 64,28 56,74 -4,24 -14,42 -29,55 -15,13 -32,19 -53,19zm-28 -72l0 0c-5,26 7,46 32,46 24,0 43,-19 48,-48 5,-28 -7,-48 -31,-48 -13,0 -24,4 -33,14 -8,9 -13,21 -16,36zm205 -76c9,0 22,2 33,6 9,3 13,7 10,13l-3 5c-4,7 -9,8 -15,6 -7,-3 -19,-4 -28,-4 -24,0 -41,17 -46,47 -6,33 4,49 28,49 7,0 13,-1 20,-2l6 -34c1,-10 7,-13 14,-13l5 0c8,0 12,4 10,13l-7 43c-2,8 -6,12 -13,14 -14,3 -29,5 -41,5 -44,0 -62,-25 -53,-74 4,-25 13,-43 27,-56 13,-12 31,-18 53,-18zm68 146c-8,0 -12,-5 -10,-13l21 -118c1,-8 6,-13 14,-13l7 0c8,0 11,5 10,13l-21 118c-1,8 -6,13 -14,13l-7 0zm49 -21l2 -4c5,-6 10,-7 17,-5 10,5 17,6 28,6 15,0 24,-6 26,-17 2,-9 -5,-15 -21,-20 -30,-8 -42,-18 -38,-42 5,-27 27,-43 60,-43 8,0 20,1 31,6 8,3 12,8 8,15l-3 4c-5,8 -11,6 -16,4 -7,-2 -14,-3 -21,-3 -16,0 -26,5 -27,15 -2,10 3,13 24,20 27,8 38,21 35,42 -6,29 -27,45 -60,45 -14,0 -30,-3 -42,-10 -5,-2 -7,-7 -3,-13zm140 -97c-8,0 -12,-4 -10,-12l0 -1c1,-8 6,-13 14,-13l85 0c9,0 12,5 11,13l0 1c-2,8 -7,12 -15,12l-27 0 -19 105c-1,8 -6,13 -14,13l-7 0c-7,0 -11,-5 -10,-13l19 -105 -27 0zm109 118c-8,0 -12,-5 -11,-13l21 -118c2,-8 7,-13 15,-13l6 0c9,0 12,5 10,13l-20 118c-2,8 -7,13 -15,13l-6 0zm118 -24c7,0 15,-1 24,-4 5,-2 12,-3 14,2l1 5c2,7 -2,12 -9,14 -15,7 -28,9 -40,9 -43,0 -62,-24 -53,-72 9,-50 36,-76 79,-76 9,0 17,2 26,4 3,1 6,2 8,3 6,3 12,8 7,16l-2 4c-4,6 -10,6 -16,3 -7,-3 -15,-4 -22,-4 -27,0 -44,15 -49,49 -3,16 -2,28 4,36 5,8 14,11 28,11z"/>
  <path fill-rule="nonzero" d="M125 348l6 -10c11,-16 23,-18 39,-12 23,10 41,14 67,14 34,0 57,-15 61,-40 4,-23 -11,-36 -49,-47 -72,-20 -99,-42 -90,-98 12,-66 63,-102 142,-102 17,0 46,3 73,13 19,8 28,18 18,35l-6 9c-12,20 -26,15 -38,11 -16,-6 -33,-8 -51,-8 -37,0 -59,12 -63,35 -4,25 7,32 56,48 65,18 91,49 82,99 -12,68 -62,105 -140,105 -33,0 -70,-5 -99,-22 -13,-6 -18,-16 -8,-30z"/>
  <path fill="#ffd200" fill-rule="nonzero" d="M1267 116c-7,0 -11,-5 -10,-12l0 -1c2,-9 7,-13 15,-13l85 0c8,0 12,4 10,13l0 1c-1,7 -6,12 -14,12l-27 0 -19 105c-1,8 -6,13 -14,13l-7 0c-8,0 -12,-5 -10,-13l18 -105 -27 0zm-50 118l-4 2c-6,4 -12,4 -17,-2 -10,-14 -20,-33 -25,-47 0,0 0,0 -1,0l-17 0 -6 34c-2,8 -7,13 -15,13l-6 0c-8,0 -12,-5 -11,-13l21 -118c2,-9 7,-13 15,-13l40 0c29,0 50,16 46,45 -4,19 -17,34 -37,43 3,8 7,16 12,24 3,5 7,10 9,14 4,6 5,12 -4,18zm-60 -71l0 0 19 0c16,0 27,-11 30,-25 2,-14 -7,-23 -21,-23l-20 0 -8 48zm-79 71l-8 0c-7,0 -11,-3 -11,-10l-2 -22 -58 0 -5 13c-6,14 -9,19 -19,19l-8 0c-8,0 -12,-6 -8,-14 12,-28 41,-88 62,-121 4,-6 9,-9 16,-9l22 0c7,0 11,3 13,9 11,39 16,81 19,121 1,8 -5,14 -13,14zm-36 -118l0 0c-6,10 -21,38 -32,62l45 0c-3,-24 -6,-44 -10,-62l-3 0zm-263 118c-8,0 -12,-5 -10,-13 6,-31 18,-77 32,-119 2,-8 7,-12 15,-12l21 0c7,0 11,4 12,11l10 92 1 0 43 -92c3,-7 8,-11 15,-11l21 0c8,0 12,4 12,12 -2,45 -8,102 -10,119 -1,7 -6,13 -14,13l-8 0c-7,0 -11,-5 -10,-12 6,-52 9,-81 9,-94l-2 0 -44 95c-3,7 -8,11 -15,11l-8 0c-8,0 -12,-4 -12,-11l-11 -95 -1 0c-5,13 -12,38 -20,71l-5 23c-2,7 -6,12 -14,12l-7 0zm-127 -21l2 -4c5,-6 10,-7 17,-5 10,4 17,6 28,6 15,0 24,-6 26,-17 2,-10 -5,-15 -21,-20 -30,-8 -42,-18 -38,-42 5,-28 27,-43 60,-43 8,0 20,1 31,6 9,3 12,7 8,15l-2 4c-6,8 -11,6 -17,4 -7,-2 -14,-3 -21,-3 -16,0 -25,5 -27,15 -2,10 3,13 24,20 28,8 38,21 35,42 -5,29 -27,45 -60,45 -14,0 -29,-3 -42,-10 -5,-2 -7,-7 -3,-13z"/>
  <path fill="#ffd200" fill-rule="nonzero" d="M401 134c-27,28 -66,9 -98,4 -9,-2 -25,1 -23,13 2,12 14,17 23,21 27,12 55,22 84,23 29,2 62,-3 88,-18 20,-11 31,-31 28,-55 -9,-59 -66,-103 -124,-110 -5,0 -11,-1 -16,0 -4,1 -8,4 -9,8 -2,6 3,12 8,16 17,11 38,12 51,29 16,21 5,45 -8,64 -2,2 -3,3 -4,5zm-286 177c27,-27 66,-7 98,-1 9,1 25,0 23,-13 -1,-12 -14,-17 -23,-21 -25,-13 -54,-23 -83,-26 -29,-2 -62,2 -88,16 -20,12 -32,31 -29,55 7,60 64,105 122,113 5,0 10,1 15,0 4,-1 8,-3 9,-7 2,-7 -2,-13 -7,-16 -17,-12 -38,-14 -51,-31 -15,-22 -4,-45 10,-64 1,-1 3,-3 4,-5z"/>
</svg>