<svg xmlns="http://www.w3.org/2000/svg" xmlns:xlink="http://www.w3.org/1999/xlink"><symbol id="1_clock" viewBox="0 0 512 512"><path d="M256.312 42.519c-162.58 0-267.814 176.467-183.302 321.861 82.561 138.705 283.61 139.437 366.606 0 20.727-35.659 30.064-72.89 30.064-108.493 0-116.619-94.966-213.368-213.368-213.368zm175.117 305.8l-17.993-10.388a7.508 7.508 0 0 0-10.258 2.748 7.509 7.509 0 0 0 2.749 10.258l17.962 10.37a199.68 199.68 0 0 1-62.187 62.099l-10.34-17.906a7.509 7.509 0 1 0-13.006 7.509l10.346 17.921c-25.521 13.509-54.326 21.603-84.881 22.747v-20.696a7.51 7.51 0 0 0-7.51-7.51 7.51 7.51 0 0 0-7.51 7.51v20.696c-30.555-1.144-59.36-9.238-84.881-22.747l10.346-17.921a7.509 7.509 0 0 0-2.749-10.258 7.509 7.509 0 0 0-10.258 2.749l-10.339 17.907a199.71 199.71 0 0 1-62.187-62.099l17.962-10.37a7.509 7.509 0 1 0-7.51-13.006L81.192 348.32c-13.556-25.525-21.692-54.345-22.867-84.922h20.889a7.51 7.51 0 0 0 7.51-7.51 7.51 7.51 0 0 0-7.51-7.51H58.313c1.115-30.604 9.203-59.456 22.721-85.017l18.155 10.481a7.508 7.508 0 0 0 10.258-2.749 7.509 7.509 0 0 0-2.749-10.258l-18.146-10.476a199.701 199.701 0 0 1 62.201-62.288l10.508 18.201a7.507 7.507 0 0 0 10.258 2.749 7.509 7.509 0 0 0 2.748-10.258l-10.523-18.227c25.565-13.565 54.432-21.694 85.058-22.841v21.097a7.51 7.51 0 0 0 15.02 0V57.695c30.626 1.147 59.493 9.275 85.058 22.841l-10.523 18.227a7.51 7.51 0 1 0 13.006 7.509l10.508-18.201a199.705 199.705 0 0 1 62.202 62.288l-18.146 10.476a7.51 7.51 0 0 0 7.509 13.007l18.155-10.481c13.518 25.561 21.605 54.413 22.721 85.017h-20.905a7.51 7.51 0 0 0-7.51 7.51 7.51 7.51 0 0 0 7.51 7.51h20.889c-1.176 30.576-9.311 59.396-22.867 84.921z"/><path d="M368.149 250.576l-23.439-23.439a7.51 7.51 0 0 0-10.62 10.621l10.723 10.723h-52.706v-9.063c0-10.766-8.759-19.525-19.525-19.525h-8.759v-90.239l10.723 10.724c1.466 1.467 3.388 2.2 5.31 2.2s3.844-.733 5.31-2.2a7.509 7.509 0 0 0 0-10.62l-23.44-23.44a7.506 7.506 0 0 0-10.62 0l-23.44 23.44a7.509 7.509 0 0 0 0 10.62 7.509 7.509 0 0 0 10.62 0l10.517-10.517v90.033h-8.759c-10.766 0-19.525 8.759-19.525 19.525v32.537c0 10.766 8.759 19.525 19.525 19.525h32.537c10.766 0 19.525-8.759 19.525-19.525v-8.455h52.501l-10.516 10.516a7.509 7.509 0 0 0 0 10.62c1.466 1.467 3.388 2.2 5.31 2.2s3.844-.733 5.31-2.199l23.44-23.439a7.508 7.508 0 0 0-.002-10.623zm-91.063 21.379c0 2.442-2.064 4.506-4.506 4.506h-32.537c-2.442 0-4.506-2.064-4.506-4.506v-32.537c0-2.442 2.064-4.506 4.506-4.506h32.537c2.442 0 4.506 2.064 4.506 4.506v32.537zM511.981 237.64C503.095 110.558 401.193 8.885 274.358.018c-4.132-.279-7.726 2.831-8.015 6.968a7.511 7.511 0 0 0 6.968 8.015C392.5 23.334 488.665 119.499 496.998 238.688a7.51 7.51 0 0 0 14.983-1.048z"/><path d="M505.013 265.718c-4.131-.296-7.726 2.83-8.015 6.967-8.794 125.773-114.517 224.295-240.686 224.295-133.049 0-241.293-108.243-241.293-241.293 0-126.17 98.522-231.892 224.294-240.686a7.51 7.51 0 0 0 6.968-8.015c-.289-4.137-3.881-7.242-8.015-6.968C104.85 9.347 0 120.802 0 255.687c0 141.331 114.981 256.312 256.312 256.312 134.844 0 246.336-104.813 255.669-238.266a7.51 7.51 0 0 0-6.968-8.015z"/></symbol><symbol id="1_employee" viewBox="0 0 512.001 512.001"><path d="M504.501 421.9a7.5 7.5 0 0 0-7.5 7.5v50.113c0 .696-.566 1.263-1.263 1.263H467.24V371.199c0-4.142-3.357-7.5-7.5-7.5s-7.5 3.358-7.5 7.5v109.578h-55.07l14.905-16.397c2.302-2.533 3.387-6.13 2.904-9.623a8.671 8.671 0 0 0-.035-.224l-16.755-98.996 3.083-4.641.803.57a11.728 11.728 0 0 0 9.647 1.818 11.73 11.73 0 0 0 7.656-6.146v-.001l17.049-34.171 38.945 15.083c1.537.668 21.625 9.879 21.625 33.845v32.504a7.501 7.501 0 0 0 15.001.001v-32.504c0-34.61-29.685-47.211-30.948-47.731a4.252 4.252 0 0 0-.143-.057l-66.317-25.684v-13.66c10.352-8.328 17.622-20.331 19.805-34.014 5.163-.648 9.953-2.715 13.928-6.134a25.781 25.781 0 0 0 8.971-19.568 25.79 25.79 0 0 0-5.824-16.337v-20.238c0-39.606-32.222-71.827-71.826-71.827-17.781 0-34.061 6.508-46.618 17.25a25.782 25.782 0 0 0-5.804-15.607V88.051c0-39.606-32.222-71.827-71.826-71.827-39.606 0-71.827 32.222-71.827 71.827v20.765c-3.605 4.308-5.622 9.502-5.8 15.015a71.505 71.505 0 0 0-28.288-14.816c-4.012-1.056-8.109 1.337-9.164 5.343s1.337 8.109 5.343 9.164c24.913 6.56 42.313 29.157 42.313 54.949v11.217a67.132 67.132 0 0 0-1.404-.252c-.102-2.117-.638-3.41-1.792-5.07-1.92-2.759-5.368-6.196-16.458-18.116a11.856 11.856 0 0 0-15.196-1.852c-18.995 12.408-42.072 18.732-63.488 17.475-6.976-.409-11.333 2.656-13.19 7.679-.166.027-2.021.401-2.124.426v-11.507c0-24.869 16.618-47.242 40.411-54.409a7.501 7.501 0 1 0-4.327-14.363c-14.47 4.358-27.477 13.432-36.622 25.548-9.463 12.534-14.464 27.481-14.464 43.225v20.766c-3.778 4.514-5.821 10-5.821 15.809 0 12.84 9.46 24.038 22.938 25.708 2.208 13.363 9.458 26.178 20.9 34.891v12.781l-66.243 25.682a8.255 8.255 0 0 0-.141.056C29.686 314.684 0 327.284 0 361.894v117.619c0 8.969 7.296 16.264 16.265 16.264h230.971a16.16 16.16 0 0 0 8.765-2.585 16.153 16.153 0 0 0 8.765 2.585h230.972c8.968 0 16.264-7.295 16.264-16.264V429.4a7.501 7.501 0 0 0-7.501-7.5zM75.702 225.258c-4.397-1.596-7.206-5.663-7.206-10.213 0-4.413 3.2-8.039 7.206-9.76v19.973zm346.677 82.267l-14.722 29.506-16.585-11.78 18.408-22.721 12.899 4.995zm-42.149 7.278l-19.397-23.943v-7.195c6.305 2.18 13.097 3.186 19.49 3.188h.005c6.61-.001 13.302-1.256 19.262-3.499v7.552l-19.36 23.897zm8.806 27.403l-2.759 4.153h-12.091l-2.759-4.153 8.805-6.253 8.804 6.253zM255.981 224.381l-19.397-23.943v-7.195c6.28 2.171 13.065 3.186 19.49 3.188h.005c6.598 0 13.289-1.251 19.262-3.498v7.551l-19.36 23.897zm8.805 27.405l-2.759 4.153h-12.091l-2.759-4.153 8.805-6.253 8.804 6.253zm-67.868-102.172c1.226.334 2.486.561 3.765.719 2.208 13.363 9.458 26.178 20.9 34.891v12.781l-15.301 5.931a25.706 25.706 0 0 0-3.312-5.227v-20.237a71.65 71.65 0 0 0-6.052-28.858zm98.918-7.942c0 21.953-17.908 39.756-39.757 39.756-24.651 0-41.125-19.105-41.125-39.756V106.54c23.683.948 48.286-6.071 68.401-18.591 6.763 7.252 10.787 11.465 12.482 13.421l-.001 40.302zm14.311 8.656a26.983 26.983 0 0 0 3.745-.721 71.392 71.392 0 0 0-6.076 28.865v20.765a25.593 25.593 0 0 0-2.966 4.383l-14.508-5.618v-13.66c10.351-8.329 17.622-20.332 19.805-34.014zm-83.442 61.792l18.412 22.726-12.556 8.918-.019.015-3.985 2.831-14.723-29.505 12.871-4.985zm46.538 14.784l11.987-14.796 12.899 4.995-14.721 29.507-3.994-2.836-.012-.01-12.579-8.935 6.42-7.925zm3.78 33.571l.803.57a11.725 11.725 0 0 0 9.647 1.818 11.73 11.73 0 0 0 7.656-6.146v-.001l12.658-25.369c4.349 5.36 10.639 8.62 17.117 9.429 2.288 14.34 10.039 26.578 20.929 34.87v12.78l-63.764 24.721-8.13-48.03 3.084-4.642zm73.931 42.066l18.412 22.726-16.56 11.764-14.723-29.505 12.871-4.985zm69.13-70.447c.002 21.417-17.391 39.756-39.756 39.756-25.492 0-41.125-19.966-41.125-39.756v-35.132c23.514.939 48.149-5.987 68.4-18.591 6.763 7.252 10.787 11.465 12.482 13.421l-.001 40.302zm22.21-17.048c0 4.558-2.818 8.617-7.206 10.212v-20.403c4.536 1.652 7.206 5.797 7.206 10.191zm-119.477-36.575c0-31.334 25.493-56.826 56.826-56.826 31.334 0 56.825 25.493 56.825 56.826v11.217a51.376 51.376 0 0 0-1.404-.252c-.102-2.119-.641-3.415-1.792-5.07-1.971-2.831-5.381-6.209-16.458-18.116-3.868-4.152-10.246-5.087-15.196-1.852-18.48 12.072-41.828 18.891-64.045 17.448-6.241-.409-10.762 2.647-12.633 7.707-.167.027-2.019.401-2.124.426v-11.508zm1.385 26.815v19.962c-4.41-1.59-7.206-5.668-7.206-10.203-.001-4.413 3.197-8.037 7.206-9.759zm-6.159-80.661c0 3.158-1.367 6.145-3.75 8.194a11.099 11.099 0 0 1-3.456 2.017v-20.403c4.485 1.628 7.206 5.751 7.206 10.192zm-62.65-93.401c31.334 0 56.826 25.492 56.826 56.826v11.217a54.006 54.006 0 0 0-1.404-.252c-.111-2.297-.773-3.709-2.124-5.536-2.008-2.718-5.71-6.455-16.126-17.651a11.86 11.86 0 0 0-15.196-1.852c-19.516 12.75-43.191 18.955-64.65 17.418-5.25-.397-10.193 2.775-12.027 7.736-.167.027-2.02.401-2.124.426V88.051h-.001c0-31.335 25.493-56.827 56.826-56.827zm-55.442 83.64v19.973c-4.397-1.596-7.206-5.663-7.206-10.213 0-4.388 3.175-8.027 7.206-9.76zm-13.364 89.991c4.196 1.527 6.891 5.188 7.158 9.539.336 4.838-2.637 9.213-7.158 10.855v-20.394zm-.695 35.919c7.074-.885 13.567-4.613 17.825-10.348l13.118 26.29.001.001a11.722 11.722 0 0 0 7.655 6.146c3.293.823 6.816.193 9.647-1.818l.803-.57 3.083 4.641-8.127 48.017-63.804-24.711v-13.654h-.001c10.623-8.565 17.668-20.667 19.8-33.994zm-54.162 74.029l-19.397-23.943v-7.195c6.28 2.171 13.066 3.186 19.491 3.187h.004a55.423 55.423 0 0 0 19.262-3.498v7.552l-19.36 23.897zm8.806 27.403l-2.759 4.153h-12.091l-2.759-4.153 8.805-6.253 8.804 6.253zm20.443-39.676l12.9 4.996-14.722 29.505-3.994-2.836-.012-.01-12.579-8.934 18.407-22.721zm-70.276-70.436v-35.132c23.809.951 48.428-6.161 68.4-18.591 6.699 7.184 10.785 11.463 12.482 13.421v40.302c0 21.813-17.785 39.756-39.757 39.756-24.463 0-41.125-18.887-41.125-39.756zm11.752 70.447l18.412 22.726-12.556 8.918-.019.015-3.985 2.831-14.723-29.505 12.871-4.985zM59.763 480.778V371.199c0-4.142-3.357-7.5-7.5-7.5s-7.5 3.358-7.5 7.5v109.578H16.265a1.265 1.265 0 0 1-1.264-1.263v-117.62c0-24.089 20.297-33.271 21.611-33.839l38.921-15.089 17.051 34.171.001.001a11.722 11.722 0 0 0 7.656 6.146c3.293.823 6.816.193 9.647-1.818l.803-.57 3.083 4.641-16.755 98.996a8.043 8.043 0 0 0-.035.224c-.482 3.491.603 7.088 2.906 9.625l14.903 16.395h-55.03zm52.31-25.297l15.929-94.121h7.459l15.93 94.121-19.659 21.627-19.659-21.627zm136.426 24.032c0 .697-.566 1.264-1.263 1.264H218.74V371.199a7.5 7.5 0 0 0-7.5-7.5 7.5 7.5 0 0 0-7.5 7.5v109.578h-55.07l14.905-16.397c2.302-2.533 3.387-6.13 2.904-9.623a8.671 8.671 0 0 0-.035-.224l-16.755-98.996 3.083-4.641.803.57a11.742 11.742 0 0 0 17.304-4.328v-.001l17.049-34.17 38.945 15.083c11.352 4.938 21.625 17.673 21.625 33.844v117.619zM256 334.64c-3.107-5.006-7.243-9.638-12.229-13.591l8.481-50.109h7.459l8.485 50.135c-5.119 4.065-9.201 8.739-12.196 13.565zm52.262 146.138V371.199c0-4.142-3.357-7.5-7.5-7.5s-7.5 3.358-7.5 7.5v109.578h-28.497a1.265 1.265 0 0 1-1.264-1.263v-117.62c0-8.916 2.796-17.128 8.752-24.027 3.971-4.555 9.238-8.243 12.86-9.812l38.921-15.09 17.051 34.172.001.001a11.722 11.722 0 0 0 7.655 6.146c3.293.823 6.816.193 9.647-1.818l.803-.57 3.083 4.641-16.755 98.996a8.043 8.043 0 0 0-.035.224c-.482 3.491.603 7.088 2.906 9.625l14.903 16.395h-55.031zm52.31-25.296l15.93-94.121h7.459l15.93 94.121-19.66 21.627-19.659-21.627z"/></symbol><symbol id="1_hours" viewBox="0 0 512 512"><path d="M487.359 146.279a7.5 7.5 0 0 0-9.992-3.556 7.5 7.5 0 0 0-3.557 9.993C489.198 185.107 497 219.857 497 256c0 64.374-25.068 124.894-70.587 170.413C380.895 471.932 320.374 497 256 497c-38.177 0-74.687-8.664-108.513-25.751-28.185-14.238-53.648-34.227-74.324-58.247l29.591 9.864a7.5 7.5 0 0 0 4.743-14.231l-53.25-17.75a7.5 7.5 0 0 0-9.796 8.176l8.875 62.125a7.502 7.502 0 0 0 8.486 6.364 7.5 7.5 0 0 0 6.364-8.485l-4.952-34.663c21.699 24.78 48.207 45.438 77.501 60.236C176.667 502.794 215.451 512 256 512c68.38 0 132.668-26.629 181.02-74.98C485.371 388.667 512 324.38 512 256c0-38.387-8.29-75.302-24.641-109.721zM467.55 112.94l-8.875-62.125a7.5 7.5 0 1 0-14.849 2.121l4.947 34.628C400.068 31.76 330.538 0 256 0 187.62 0 123.333 26.629 74.98 74.98 26.629 123.333 0 187.62 0 256c0 38.388 8.291 75.304 24.641 109.721a7.5 7.5 0 0 0 6.78 4.284 7.5 7.5 0 0 0 6.769-10.721C22.802 326.895 15 292.145 15 256c0-64.374 25.068-124.894 70.587-170.413C131.106 40.068 191.626 15 256 15c70.856 0 136.903 30.494 182.816 83.991l-29.569-9.856a7.497 7.497 0 0 0-9.487 4.744 7.5 7.5 0 0 0 4.743 9.487l53.25 17.75a7.502 7.502 0 0 0 9.797-8.176z"/><path d="M235.158 336.678h-75.444c3.013-26.25 21.666-43.862 41.316-62.416 20.466-19.324 41.628-39.306 41.628-69.312 0-24.607-22.064-44.627-49.184-44.627s-49.184 20.02-49.184 44.627a7.5 7.5 0 0 0 15 0c0-16.336 15.334-29.627 34.184-29.627s34.184 13.291 34.184 29.627c0 23.54-17.937 40.476-36.926 58.406-21.769 20.554-46.442 43.851-46.442 80.822a7.5 7.5 0 0 0 7.5 7.5h83.368a7.5 7.5 0 0 0 0-15zM360.21 288.58h-8.532V167.823c0-4.142-3.357-7.5-7.5-7.5s-7.5 3.358-7.5 7.5v120.758h-63.624l22.382-119.375a7.5 7.5 0 1 0-14.742-2.765l-24.048 128.258a7.5 7.5 0 0 0 7.371 8.882h72.661v40.597c0 4.141 3.357 7.499 7.5 7.499s7.5-3.358 7.5-7.5V303.58h8.532a7.5 7.5 0 0 0 7.5-7.5 7.5 7.5 0 0 0-7.5-7.5zM256 40.081a7.5 7.5 0 0 0-7.5 7.5v32.064a7.5 7.5 0 0 0 15 0V47.581a7.5 7.5 0 0 0-7.5-7.5zM256 424.855a7.5 7.5 0 0 0-7.5 7.5v32.064a7.5 7.5 0 0 0 15 0v-32.064a7.5 7.5 0 0 0-7.5-7.5zM464.418 248.5h-32.064a7.5 7.5 0 0 0-7.5 7.5 7.5 7.5 0 0 0 7.5 7.5h32.064a7.5 7.5 0 0 0 7.5-7.5 7.5 7.5 0 0 0-7.5-7.5zM79.645 248.5H47.581a7.5 7.5 0 0 0 0 15h32.064a7.5 7.5 0 0 0 0-15z"/></symbol><symbol id="2_box" viewBox="0 0 512 512"><path d="M491.729 112.971L259.261.745a7.503 7.503 0 0 0-6.521 0L20.271 112.971a7.5 7.5 0 0 0-4.239 6.754v272.549a7.5 7.5 0 0 0 4.239 6.754l232.468 112.226a7.504 7.504 0 0 0 6.522 0l232.468-112.226a7.5 7.5 0 0 0 4.239-6.754V119.726a7.502 7.502 0 0 0-4.239-6.755zM256 15.828l215.217 103.897-62.387 30.118a7.434 7.434 0 0 0-1.27-.8L193.805 45.853 256 15.828zm-79.133 38.505l214.904 103.746-44.015 21.249L132.941 75.624l43.926-21.291zm219.932 117.974v78.546l-41.113 19.848v-78.546l41.113-19.848zm84.169 215.261L263.5 492.55V236.658l51.873-25.042a7.5 7.5 0 1 0-6.522-13.508L256 223.623l-20.796-10.04a7.498 7.498 0 0 0-10.015 3.493 7.5 7.5 0 0 0 3.493 10.015l19.818 9.567V492.55L31.032 387.566V131.674l165.6 79.945a7.463 7.463 0 0 0 3.255.748 7.5 7.5 0 0 0 3.266-14.256l-162.37-78.386 74.505-35.968L340.582 192.52c.033.046.07.087.104.132v89.999a7.502 7.502 0 0 0 10.761 6.754l56.113-27.089a7.499 7.499 0 0 0 4.239-6.754v-90.495l69.169-33.392v255.893z"/><path d="M92.926 358.479L58.811 342.01a7.5 7.5 0 0 0-6.522 13.508l34.115 16.469a7.463 7.463 0 0 0 3.255.748 7.5 7.5 0 0 0 6.759-4.241 7.499 7.499 0 0 0-3.492-10.015zM124.323 338.042l-65.465-31.604a7.501 7.501 0 0 0-6.521 13.509l65.465 31.604a7.477 7.477 0 0 0 3.255.748 7.5 7.5 0 0 0 3.266-14.257z"/></symbol><symbol id="2_calculator" viewBox="0 0 511.999 511.999"><path d="M416.323 0H95.677C73.862 0 56.113 17.748 56.113 39.564v432.871c0 21.816 17.749 39.564 39.564 39.564h320.645c21.815 0 39.564-17.748 39.564-39.564V39.564C455.887 17.748 438.138 0 416.323 0zM71.113 39.564C71.113 26.02 82.133 15 95.677 15h320.645c13.545 0 24.564 11.02 24.564 24.564v152.822H71.113V39.564zm369.774 432.872c0 13.544-11.02 24.564-24.564 24.564H95.677c-13.545 0-24.564-11.02-24.564-24.564V207.387h369.774v265.049z"/><path d="M344.176 48.096h-224.45c-8.556 0-15.516 6.961-15.516 15.517v80.161c0 8.556 6.96 15.516 15.516 15.516h16.032c4.142 0 7.5-3.357 7.5-7.5s-3.358-7.5-7.5-7.5h-16.032a.516.516 0 0 1-.516-.516V63.613c0-.285.231-.517.516-.517h224.45c4.143 0 7.5-3.357 7.5-7.5s-3.357-7.5-7.5-7.5z"/><path d="M392.275 48.096h-16.032c-4.143 0-7.5 3.357-7.5 7.5s3.357 7.501 7.499 7.501h16.032c.284 0 .516.231.516.517v80.161a.517.517 0 0 1-.516.516h-224.45c-4.142 0-7.5 3.357-7.5 7.5s3.358 7.5 7.5 7.5h224.451c8.556 0 15.516-6.96 15.516-15.516V63.613c0-8.556-6.96-15.517-15.516-15.517zM215.92 240.483c-17.396 0-31.548 14.152-31.548 31.549s14.152 31.549 31.548 31.549 31.548-14.152 31.548-31.549-14.152-31.549-31.548-31.549zm0 48.098c-9.125 0-16.548-7.424-16.548-16.549s7.423-16.549 16.548-16.549 16.548 7.424 16.548 16.549-7.423 16.549-16.548 16.549zM215.92 320.646c-17.396 0-31.548 14.152-31.548 31.548s14.152 31.549 31.548 31.549 31.548-14.152 31.548-31.549c0-17.396-14.152-31.548-31.548-31.548zm0 48.096c-9.125 0-16.548-7.424-16.548-16.549s7.423-16.548 16.548-16.548 16.548 7.423 16.548 16.548-7.423 16.549-16.548 16.549zM215.92 400.807c-17.396 0-31.548 14.152-31.548 31.548s14.152 31.549 31.548 31.549 31.548-14.152 31.548-31.549c0-17.396-14.152-31.548-31.548-31.548zm0 48.096c-9.125 0-16.548-7.424-16.548-16.549s7.423-16.548 16.548-16.548 16.548 7.423 16.548 16.548-7.423 16.549-16.548 16.549zM296.081 240.483c-17.396 0-31.549 14.152-31.549 31.549s14.152 31.549 31.549 31.549c17.396 0 31.548-14.152 31.548-31.549s-14.152-31.549-31.548-31.549zm0 48.098c-9.125 0-16.549-7.424-16.549-16.549s7.424-16.549 16.549-16.549 16.548 7.424 16.548 16.549-7.423 16.549-16.548 16.549zM296.081 320.646c-17.396 0-31.549 14.152-31.549 31.548s14.152 31.549 31.549 31.549c17.396 0 31.548-14.152 31.548-31.549 0-17.396-14.152-31.548-31.548-31.548zm0 48.096c-9.125 0-16.549-7.424-16.549-16.549s7.424-16.548 16.549-16.548 16.548 7.423 16.548 16.548-7.423 16.549-16.548 16.549zM296.081 400.807c-17.396 0-31.549 14.152-31.549 31.548s14.152 31.549 31.549 31.549c17.396 0 31.548-14.152 31.548-31.549 0-17.396-14.152-31.548-31.548-31.548zm0 48.096c-9.125 0-16.549-7.424-16.549-16.549s7.424-16.548 16.549-16.548 16.548 7.423 16.548 16.548-7.423 16.549-16.548 16.549zM135.759 240.483c-17.396 0-31.549 14.152-31.549 31.549s14.153 31.549 31.549 31.549 31.548-14.152 31.548-31.549-14.152-31.549-31.548-31.549zm0 48.098c-9.125 0-16.549-7.424-16.549-16.549s7.424-16.549 16.549-16.549 16.548 7.424 16.548 16.549-7.423 16.549-16.548 16.549zM135.759 320.646c-17.396 0-31.549 14.152-31.549 31.548s14.153 31.549 31.549 31.549 31.548-14.152 31.548-31.549c0-17.396-14.152-31.548-31.548-31.548zm0 48.096c-9.125 0-16.549-7.424-16.549-16.549s7.424-16.548 16.549-16.548 16.548 7.423 16.548 16.548-7.423 16.549-16.548 16.549zM135.759 400.807c-17.396 0-31.549 14.152-31.549 31.548s14.153 31.549 31.549 31.549 31.548-14.152 31.548-31.549c0-17.396-14.152-31.548-31.548-31.548zm0 48.096c-9.125 0-16.549-7.424-16.549-16.549s7.424-16.548 16.549-16.548 16.548 7.423 16.548 16.548-7.423 16.549-16.548 16.549zM376.242 240.483c-17.396 0-31.549 14.152-31.549 31.549s14.152 31.549 31.549 31.549c17.396 0 31.548-14.152 31.548-31.549s-14.152-31.549-31.548-31.549zm0 48.098c-9.125 0-16.549-7.424-16.549-16.549s7.424-16.549 16.549-16.549 16.548 7.424 16.548 16.549-7.423 16.549-16.548 16.549zM376.242 320.646c-17.396 0-31.549 14.152-31.549 31.548v80.161c0 17.396 14.152 31.549 31.549 31.549 17.396 0 31.548-14.152 31.548-31.549v-80.161c0-17.396-14.152-31.548-31.548-31.548zm16.548 111.708c0 9.125-7.424 16.549-16.548 16.549-9.125 0-16.549-7.424-16.549-16.549v-80.161c0-9.125 7.424-16.548 16.549-16.548 9.124 0 16.548 7.423 16.548 16.548v80.161z"/></symbol><symbol id="2_card" viewBox="0 0 512 512"><path d="M368.225 32.064H31.548C14.152 32.064 0 46.217 0 63.613v224.451c0 17.396 14.152 31.549 31.548 31.549H256c4.142 0 7.5-3.357 7.5-7.5s-3.358-7.5-7.5-7.5H31.548c-9.125 0-16.548-7.424-16.548-16.549V63.613c0-9.125 7.423-16.549 16.548-16.549h336.677c9.125 0 16.549 7.424 16.549 16.549v152.305a7.5 7.5 0 0 0 7.5 7.5 7.5 7.5 0 0 0 7.5-7.5V63.613c0-17.396-14.153-31.549-31.549-31.549z"/><path d="M103.693 120.243H71.629c-12.976 0-23.532 10.557-23.532 23.532v16.032c0 12.975 10.556 23.532 23.532 23.532h32.064c12.976 0 23.532-10.557 23.532-23.532v-16.032c0-12.976-10.557-23.532-23.532-23.532zm-23.532 48.096h-8.532c-4.705 0-8.532-3.827-8.532-8.532v-16.033c0-4.705 3.828-8.532 8.532-8.532h8.532v33.097zm32.065-8.533c0 4.705-3.828 8.532-8.532 8.532h-8.532v-33.097h8.532c4.704.001 8.532 3.828 8.532 8.533v16.032zM103.694 208.419H55.597c-4.142 0-7.5 3.357-7.5 7.5s3.358 7.5 7.5 7.5h48.097c4.142 0 7.5-3.357 7.5-7.5s-3.358-7.5-7.5-7.5zM183.855 208.419h-48.097c-4.142 0-7.5 3.357-7.5 7.5s3.358 7.5 7.5 7.5h48.097c4.142 0 7.5-3.357 7.5-7.5s-3.358-7.5-7.5-7.5zM215.92 248.5H55.597c-4.142 0-7.5 3.357-7.5 7.5s3.358 7.5 7.5 7.5H215.92c4.142 0 7.5-3.357 7.5-7.5s-3.358-7.5-7.5-7.5zM264.016 208.419h-48.097c-4.142 0-7.5 3.357-7.5 7.5s3.358 7.5 7.5 7.5h48.097c4.142 0 7.5-3.357 7.5-7.5s-3.358-7.5-7.5-7.5zM344.178 208.419h-48.097c-4.142 0-7.5 3.357-7.5 7.5s3.358 7.5 7.5 7.5h48.097c4.142 0 7.5-3.357 7.5-7.5s-3.358-7.5-7.5-7.5zM312.113 80.161c-13.182 0-24.871 6.486-32.064 16.427-7.194-9.942-18.883-16.427-32.064-16.427-21.816 0-39.564 17.748-39.564 39.564s17.749 39.564 39.564 39.564c13.182 0 24.871-6.486 32.064-16.427 7.194 9.942 18.883 16.427 32.064 16.427 21.816 0 39.564-17.748 39.564-39.564s-17.748-39.564-39.564-39.564zm-64.129 64.129c-13.545 0-24.564-11.02-24.564-24.564s11.02-24.564 24.564-24.564 24.564 11.02 24.564 24.564-11.019 24.564-24.564 24.564zm64.129 0c-13.545 0-24.564-11.02-24.564-24.564s11.02-24.564 24.564-24.564 24.564 11.02 24.564 24.564-11.019 24.564-24.564 24.564zM392.274 240.483c-66.017 0-119.726 53.709-119.726 119.727 0 66.017 53.709 119.726 119.726 119.726S512 426.227 512 360.21c0-66.018-53.708-119.727-119.726-119.727zm0 224.453c-57.746 0-104.726-46.979-104.726-104.726s46.98-104.727 104.726-104.727S497 302.464 497 360.21s-46.979 104.726-104.726 104.726z"/><path d="M416.323 320.646h-53.085l16.863-10.118a7.498 7.498 0 0 0 2.572-10.289 7.498 7.498 0 0 0-10.29-2.573l-40.081 24.05a7.501 7.501 0 0 0 0 12.863l40.081 24.048a7.495 7.495 0 0 0 10.29-2.574 7.501 7.501 0 0 0-2.572-10.29l-16.861-10.116h53.084c17.965 0 32.581 14.615 32.581 32.58s-14.616 32.581-32.581 32.581h-56.113c-4.142 0-7.5 3.357-7.5 7.5s3.358 7.5 7.5 7.5h56.113c26.236 0 47.581-21.345 47.581-47.581-.002-26.237-21.346-47.581-47.582-47.581z"/></symbol><symbol id="2_hours" viewBox="0 0 512 512"><path d="M391.465 381.706c-1.287-9.729-6.903-18.118-15.409-23.015l-96.078-55.319c-12.239-7.046-27.757-4.991-37.74 4.992l-24.861 24.86c-4.887 4.887-12.645 5.282-18.046.922-14.667-11.84-29.112-24.852-42.934-38.674-13.826-13.827-26.839-28.274-38.675-42.935-4.361-5.401-3.964-13.159.922-18.045l24.861-24.861c9.984-9.984 12.037-25.502 4.992-37.739L93.18 75.814c-4.897-8.505-13.285-14.121-23.014-15.408-9.732-1.289-19.289 1.954-26.23 8.895L15.421 97.817c-40.705 40.705 1.781 146.964 96.725 241.909 70.564 70.564 147.368 112.152 198.875 112.145 17.795-.002 32.582-4.969 43.033-15.421l28.515-28.516c6.939-6.939 10.183-16.498 8.896-26.228zm-19.504 15.621l-3.805 3.805-82.259-46.947a7.503 7.503 0 0 0-10.233 2.796 7.5 7.5 0 0 0 2.797 10.233l78.699 44.915-13.714 13.712c-15.452 15.453-47.316 14.695-87.418-2.074-42.806-17.901-90.138-51.515-133.272-94.65-43.135-43.135-76.749-90.465-94.65-133.272-16.771-40.104-17.527-71.966-2.075-87.418l14.645-14.645 5.198 9.028a7.498 7.498 0 0 0 10.243 2.759 7.501 7.501 0 0 0 2.758-10.244l-7.213-12.528 2.885-2.885c3.093-3.094 7.184-4.774 11.475-4.774.721 0 1.449.047 2.178.144a16.173 16.173 0 0 1 11.981 8.021l55.319 96.079c3.668 6.369 2.598 14.448-2.598 19.644l-9.088 9.088-48.907-84.945a7.5 7.5 0 0 0-10.244-2.758 7.5 7.5 0 0 0-2.757 10.244l50.923 88.445-4.788 4.788c-10.324 10.323-11.178 26.693-1.987 38.078 12.169 15.074 25.539 29.918 39.74 44.12 14.196 14.195 29.04 27.567 44.119 39.739 11.385 9.19 27.755 8.336 38.078-1.986l3.457-3.457 18.518 10.57a7.498 7.498 0 0 0 10.233-2.797 7.501 7.501 0 0 0-2.795-10.233l-14.959-8.537 10.408-10.408c5.199-5.198 13.276-6.266 19.645-2.598l96.078 55.319c4.428 2.549 7.351 6.915 8.021 11.981a16.18 16.18 0 0 1-4.636 13.648z"/><path d="M239.92 252.553h-56.197c2.636-21.923 16.667-36.797 31.435-52.453 15.861-16.815 32.263-34.202 32.263-60.308 0-21.819-17.752-39.571-39.571-39.571s-39.571 17.752-39.571 39.571a7.5 7.5 0 0 0 7.501 7.501 7.5 7.5 0 0 0 7.501-7.501c0-13.547 11.022-24.568 24.568-24.568 13.546 0 24.568 11.022 24.568 24.569 0 20.146-13.056 33.986-28.173 50.013-16.859 17.871-35.967 38.128-35.967 70.249a7.5 7.5 0 0 0 7.501 7.501h64.14a7.5 7.5 0 0 0 7.501-7.501 7.498 7.498 0 0 0-7.499-7.502zM336.13 212.466h-8.534V107.722c0-4.144-3.358-7.501-7.501-7.501s-7.501 3.358-7.501 7.501v104.744h-39.972l14.813-103.684a7.5 7.5 0 0 0-6.365-8.486c-4.092-.576-7.9 2.265-8.487 6.365l-16.036 112.247a7.504 7.504 0 0 0 1.759 5.976 7.504 7.504 0 0 0 5.667 2.585h48.62v32.586c0 4.144 3.358 7.501 7.501 7.501s7.501-3.358 7.501-7.501v-32.586h8.534c4.144 0 7.501-3.358 7.501-7.501s-3.356-7.502-7.5-7.502zM510.549 103.288a7.503 7.503 0 0 0-6.051-3.067h-56.123a7.5 7.5 0 0 0-7.501 7.501 7.5 7.5 0 0 0 7.501 7.501h45.888L449.24 257.796a7.503 7.503 0 0 0 7.156 9.763 7.504 7.504 0 0 0 7.151-5.244l48.105-152.333a7.508 7.508 0 0 0-1.103-6.694zM418.328 76.446a7.504 7.504 0 0 0-9.247 5.201L352.96 282.085a7.504 7.504 0 0 0 7.227 9.526 7.505 7.505 0 0 0 7.22-5.48l56.122-200.438a7.503 7.503 0 0 0-5.201-9.247z"/></symbol><symbol id="2_invoice" viewBox="0 0 512.003 512.003"><path d="M440.372 120.243a7.499 7.499 0 0 0-7.5 7.5v368.742a.517.517 0 0 1-.517.517H79.646a.517.517 0 0 1-.517-.517V15.519c0-.285.231-.517.517-.517h265.048v72.661c0 8.556 6.961 15.517 15.517 15.517h80.161a7.499 7.499 0 0 0 5.304-12.804L357.498 2.198a8.38 8.38 0 0 0-.192-.185l-.004-.004-.011-.01a.065.065 0 0 0-.009-.008l-.006-.006-.014-.013-.001-.001A7.476 7.476 0 0 0 352.24 0H79.646C71.091.002 64.13 6.963 64.13 15.519v480.967c0 8.556 6.961 15.517 15.517 15.517h352.709c8.556 0 15.517-6.961 15.517-15.517V127.743a7.501 7.501 0 0 0-7.501-7.5zm-80.678-94.635l62.571 62.571h-62.054a.517.517 0 0 1-.517-.517V25.608z"/><path d="M159.291 90.404V64.257c5.555 1.815 9.049 5.479 9.049 8.876 0 4.143 3.357 7.5 7.5 7.5s7.5-3.357 7.5-7.5c0-11.98-10.095-21.739-24.049-24.345v-1.206c0-4.143-3.357-7.5-7.5-7.5s-7.5 3.357-7.5 7.5v1.206c-13.953 2.606-24.048 12.365-24.048 24.345 0 16.739 13.374 23.773 24.048 27.822v26.146c-5.555-1.815-9.048-5.479-9.048-8.876 0-4.143-3.357-7.5-7.5-7.5s-7.5 3.357-7.5 7.5c0 11.979 10.095 21.739 24.048 24.345v1.207c0 4.143 3.357 7.5 7.5 7.5s7.5-3.357 7.5-7.5v-1.207c13.954-2.606 24.049-12.365 24.049-24.345 0-16.741-13.375-23.774-24.049-27.821zm-15-5.81c-7.518-3.68-9.048-6.892-9.048-11.46 0-3.397 3.493-7.062 9.048-8.876v20.336zm15 42.507v-20.336c7.519 3.679 9.049 6.891 9.049 11.46 0 3.397-3.493 7.062-9.049 8.876zM399.775 183.856c0-4.143-3.357-7.5-7.5-7.5H119.727a7.499 7.499 0 0 0-7.5 7.5v144.291c0 4.143 3.357 7.5 7.5 7.5h272.549c4.143 0 7.5-3.357 7.5-7.5V183.856h-.001zM256.518 320.648H127.227v-33.097h129.291v33.097zm0-48.097H127.227v-33.098h129.291v33.098zm0-48.098H127.227v-33.097h129.291v33.097zm64.128 96.195h-49.129v-33.097h49.129v33.097zm.001-48.097h-49.129v-33.098h49.129v33.098zm0-48.098h-49.129v-33.097h49.129v33.097zm64.128 96.195h-49.129v-33.097h49.129v33.097zm0-48.097h-49.129v-33.098h49.129v33.098zm0-48.098h-49.129v-33.097h49.129v33.097zM256.001 360.728c-26.236 0-47.581 21.344-47.581 47.581 0 26.235 21.345 47.58 47.581 47.58 26.236 0 47.581-21.345 47.581-47.58 0-26.236-21.345-47.581-47.581-47.581zm0 80.161c-17.965 0-32.581-14.615-32.581-32.58s14.616-32.581 32.581-32.581c17.965 0 32.581 14.616 32.581 32.581 0 17.965-14.616 32.58-32.581 32.58z"/><path d="M256.001 392.792c-8.556 0-15.517 6.961-15.517 15.517s6.961 15.516 15.517 15.516 15.517-6.96 15.517-15.516c0-8.556-6.961-15.517-15.517-15.517zM183.855 384.776h-64.129c-4.143 0-7.5 3.357-7.5 7.5s3.357 7.5 7.5 7.5h64.129c4.143 0 7.5-3.357 7.5-7.5s-3.357-7.5-7.5-7.5zM183.855 416.841h-48.097c-4.143 0-7.5 3.357-7.5 7.5s3.357 7.5 7.5 7.5h48.097c4.143 0 7.5-3.357 7.5-7.5s-3.357-7.5-7.5-7.5zM384.259 376.76h-48.097c-8.556 0-15.516 6.961-15.516 15.517v32.064c0 8.556 6.96 15.516 15.516 15.516h48.097c8.556 0 15.517-6.96 15.517-15.516v-32.064c-.001-8.556-6.962-15.517-15.517-15.517zm.516 47.581a.517.517 0 0 1-.517.516h-48.097a.517.517 0 0 1-.516-.516v-32.064c0-.285.231-.517.516-.517h48.097c.285 0 .517.231.517.517v32.064zM296.08 56.115h-16.029c-4.143 0-7.5 3.357-7.5 7.5s3.357 7.5 7.5 7.5h16.029c4.143 0 7.5-3.357 7.5-7.5s-3.357-7.5-7.5-7.5zM247.984 56.115H215.92c-4.143 0-7.5 3.357-7.5 7.5s3.357 7.5 7.5 7.5h32.064c4.143 0 7.5-3.357 7.5-7.5s-3.357-7.5-7.5-7.5zM320.13 88.18H215.92c-4.143 0-7.5 3.357-7.5 7.5s3.357 7.5 7.5 7.5h104.21c4.143 0 7.5-3.357 7.5-7.5s-3.357-7.5-7.5-7.5zM320.13 120.244h-16.032c-4.143 0-7.5 3.357-7.5 7.5s3.357 7.5 7.5 7.5h16.032c4.143 0 7.5-3.357 7.5-7.5s-3.358-7.5-7.5-7.5zM272.033 120.244H215.92c-4.143 0-7.5 3.357-7.5 7.5s3.357 7.5 7.5 7.5h56.113c4.143 0 7.5-3.357 7.5-7.5s-3.357-7.5-7.5-7.5z"/></symbol><symbol id="2_pack" viewBox="0 0 512 512"><path d="M446.849 186.152l-48.873-83.781a7.493 7.493 0 0 0-3.354-3.039L227.06 22.533a7.503 7.503 0 0 0-6.25 0L53.247 99.332a7.51 7.51 0 0 0-3.354 3.039L1.021 186.153a7.503 7.503 0 0 0 3.353 10.597l167.563 76.8a7.499 7.499 0 0 0 9.603-3.039l34.895-59.819v156.061L63.872 296.827v-49.15c0-4.142-3.357-7.5-7.5-7.5s-7.5 3.358-7.5 7.5v53.963a7.5 7.5 0 0 0 4.375 6.818l167.563 76.8a7.495 7.495 0 0 0 6.25 0l24.052-11.024a7.5 7.5 0 0 0 3.693-9.943 7.5 7.5 0 0 0-9.943-3.693l-13.427 6.154v-156.06l34.894 59.818a7.499 7.499 0 0 0 9.604 3.039l167.563-76.8a7.503 7.503 0 0 0 3.353-10.597zm-274.84 70.929l-153.86-70.52L59.425 115.8l153.862 70.52-41.278 70.761zm51.926-82.381L74.372 106.15 223.935 37.6l149.562 68.549L223.935 174.7zm51.928 82.381l-41.278-70.762 153.861-70.52 41.278 70.762-153.861 70.52z"/><path d="M392.274 250.698c-66.017 0-119.726 53.709-119.726 119.726S326.257 490.15 392.274 490.15 512 436.441 512 370.424s-53.709-119.726-119.726-119.726zm0 224.451c-57.746 0-104.726-46.979-104.726-104.726s46.979-104.726 104.726-104.726S497 312.678 497 370.424s-46.98 104.725-104.726 104.725z"/><path d="M442.714 341.553c-4.065-19.513-19.908-35.356-39.422-39.423-15.557-3.242-31.429.546-43.544 10.396-12.114 9.85-19.063 24.446-19.063 40.045 0 4.142 3.357 7.5 7.5 7.5s7.5-3.358 7.5-7.5c0-11.063 4.93-21.417 13.526-28.406 8.595-6.989 19.9-9.667 31.02-7.35 13.761 2.868 24.932 14.04 27.8 27.799 4.005 19.218-6.998 37.755-25.595 43.118-10.564 3.047-17.662 12.198-17.662 22.772 0 4.142 3.357 7.5 7.5 7.5s7.5-3.358 7.5-7.5c0-3.824 2.74-7.184 6.818-8.36 26.217-7.561 41.746-33.61 36.122-60.591zM392.354 431.745h-.08c-4.143 0-7.46 3.358-7.46 7.5 0 4.142 3.397 7.5 7.54 7.5s7.5-3.358 7.5-7.5a7.499 7.499 0 0 0-7.5-7.5z"/></symbol><symbol id="2_package" viewBox="0 0 512 512"><path d="M87.661 448.903h-40.08a7.5 7.5 0 0 0 0 15h40.081a7.5 7.5 0 1 0-.001-15zM111.709 416.839H47.581a7.5 7.5 0 0 0 0 15h64.129a7.5 7.5 0 1 0-.001-15z"/><path d="M496.484 248.5H387.75V15.516C387.75 6.96 380.79 0 372.234 0H139.766c-8.556 0-15.516 6.96-15.516 15.516V248.5H15.516C6.96 248.5 0 255.46 0 264.016v232.468C0 505.04 6.96 512 15.516 512h480.968c8.556 0 15.516-6.96 15.516-15.516V264.016c0-8.556-6.96-15.516-15.516-15.516zm-103.694 15v65.161h-25.081V263.5h25.081zM268.54 15v65.161h-25.081V15h25.081zM119.209 263.5h25.081v65.161h-25.081V263.5zM496.484 497H263.5V263.5h48.613a7.5 7.5 0 0 0 0-15H199.887a7.5 7.5 0 0 0 0 15H248.5V497H15.516a.516.516 0 0 1-.516-.516V264.016c0-.285.231-.516.516-.516h88.693v72.661a7.5 7.5 0 0 0 7.5 7.5h40.081a7.5 7.5 0 0 0 7.5-7.5V263.5h8.528a7.5 7.5 0 0 0 0-15H139.25V15.516c0-.285.231-.516.516-.516h88.693v72.661a7.5 7.5 0 0 0 7.5 7.5h40.081a7.5 7.5 0 0 0 7.5-7.5V15h88.693c.285 0 .516.231.516.516V248.5H344.18a7.5 7.5 0 0 0 0 15h8.528v72.661a7.5 7.5 0 0 0 7.5 7.5h40.081a7.5 7.5 0 0 0 7.5-7.5V263.5h88.693c.285 0 .516.231.516.516v232.468H497a.516.516 0 0 1-.516.516z"/><path d="M336.161 448.903H296.08a7.5 7.5 0 0 0 0 15h40.081a7.5 7.5 0 0 0 0-15zM360.209 416.839H296.08a7.5 7.5 0 0 0 0 15h64.129a7.5 7.5 0 0 0 0-15zM211.911 200.403H171.83a7.5 7.5 0 0 0 0 15h40.081a7.5 7.5 0 0 0 0-15zM235.959 168.339H171.83a7.5 7.5 0 0 0 0 15h64.129a7.5 7.5 0 0 0 0-15z"/></symbol><symbol id="2_pay" viewBox="0 0 511.999 511.999"><path d="M304.096 272.549a7.5 7.5 0 0 0-7.5 7.5v192.387c0 13.545-11.02 24.564-24.564 24.564H63.612c-13.545 0-24.564-11.02-24.564-24.564V39.564C39.047 26.02 50.067 15 63.612 15h208.419c4.142 0 7.5-3.357 7.5-7.5s-3.358-7.5-7.5-7.5H63.612C41.796 0 24.047 17.748 24.047 39.564v432.871c0 21.816 17.749 39.564 39.564 39.564H272.03c21.816 0 39.564-17.748 39.564-39.564V280.049a7.497 7.497 0 0 0-7.498-7.5z"/><path d="M95.676 32.064H79.645a7.5 7.5 0 0 0-7.5 7.5 7.5 7.5 0 0 0 7.5 7.5h16.032a7.5 7.5 0 0 0-.001-15zM255.999 464.936H79.645c-4.142 0-7.5 3.357-7.5 7.5s3.358 7.5 7.5 7.5H256a7.5 7.5 0 1 0-.001-15zM95.676 232.467H87.66c-4.705 0-8.532-3.827-8.532-8.532V103.693c0-4.705 3.828-8.532 8.532-8.532h8.016c4.142 0 7.5-3.357 7.5-7.5s-3.358-7.5-7.5-7.5H87.66c-12.975 0-23.532 10.557-23.532 23.532v120.242c0 12.976 10.557 23.532 23.532 23.532h8.016c4.142 0 7.5-3.357 7.5-7.5s-3.358-7.5-7.5-7.5zM103.692 280.564H87.66c-12.976 0-23.532 10.557-23.532 23.532s10.557 23.532 23.532 23.532h16.032c12.976 0 23.532-10.557 23.532-23.532s-10.556-23.532-23.532-23.532zm0 32.065H87.66c-4.705 0-8.532-3.827-8.532-8.532s3.828-8.532 8.532-8.532h16.032c4.705 0 8.532 3.827 8.532 8.532s-3.827 8.532-8.532 8.532zM175.838 280.565h-16.032c-12.976 0-23.532 10.557-23.532 23.532s10.556 23.532 23.532 23.532h16.032c12.976 0 23.532-10.557 23.532-23.532.001-12.975-10.556-23.532-23.532-23.532zm0 32.063h-16.032c-4.705 0-8.532-3.827-8.532-8.532s3.827-8.532 8.532-8.532h16.032c4.705 0 8.532 3.827 8.532 8.532s-3.827 8.532-8.532 8.532zM247.983 280.565h-16.032c-12.976 0-23.532 10.557-23.532 23.532s10.556 23.532 23.532 23.532h16.032c12.976 0 23.532-10.557 23.532-23.532s-10.557-23.532-23.532-23.532zm0 32.063h-16.032c-4.705 0-8.532-3.827-8.532-8.532s3.827-8.532 8.532-8.532h16.032c4.705 0 8.532 3.827 8.532 8.532s-3.828 8.532-8.532 8.532zM103.692 336.678H87.66c-12.976 0-23.532 10.557-23.532 23.532s10.557 23.532 23.532 23.532h16.032c12.976 0 23.532-10.557 23.532-23.532s-10.556-23.532-23.532-23.532zm0 32.064H87.66c-4.705 0-8.532-3.827-8.532-8.532s3.828-8.532 8.532-8.532h16.032c4.705 0 8.532 3.827 8.532 8.532s-3.828 8.532-8.532 8.532zM175.838 336.678h-16.032c-12.976 0-23.532 10.557-23.532 23.532s10.556 23.532 23.532 23.532h16.032c12.976 0 23.532-10.557 23.532-23.532.001-12.975-10.556-23.532-23.532-23.532zm0 32.064h-16.032c-4.705 0-8.532-3.827-8.532-8.532s3.827-8.532 8.532-8.532h16.032c4.705 0 8.532 3.827 8.532 8.532s-3.827 8.532-8.532 8.532zM247.983 336.678h-16.032c-12.976 0-23.532 10.557-23.532 23.532s10.556 23.532 23.532 23.532h16.032c12.976 0 23.532-10.557 23.532-23.532s-10.557-23.532-23.532-23.532zm0 32.064h-16.032c-4.705 0-8.532-3.827-8.532-8.532s3.827-8.532 8.532-8.532h16.032c4.705 0 8.532 3.827 8.532 8.532s-3.828 8.532-8.532 8.532zM103.692 392.79H87.66c-12.976 0-23.532 10.557-23.532 23.532s10.557 23.532 23.532 23.532h16.032c12.976 0 23.532-10.557 23.532-23.532s-10.556-23.532-23.532-23.532zm0 32.064H87.66c-4.705 0-8.532-3.827-8.532-8.532s3.828-8.532 8.532-8.532h16.032c4.705 0 8.532 3.827 8.532 8.532s-3.828 8.532-8.532 8.532zM175.838 392.79h-16.032c-12.976 0-23.532 10.557-23.532 23.532s10.556 23.532 23.532 23.532h16.032c12.976 0 23.532-10.557 23.532-23.532.001-12.975-10.556-23.532-23.532-23.532zm0 32.064h-16.032c-4.705 0-8.532-3.827-8.532-8.532s3.827-8.532 8.532-8.532h16.032c4.705 0 8.532 3.827 8.532 8.532s-3.827 8.532-8.532 8.532zM247.983 392.79h-16.032c-12.976 0-23.532 10.557-23.532 23.532s10.556 23.532 23.532 23.532h16.032c12.976 0 23.532-10.557 23.532-23.532s-10.557-23.532-23.532-23.532zm0 32.064h-16.032c-4.705 0-8.532-3.827-8.532-8.532s3.827-8.532 8.532-8.532h16.032c4.705 0 8.532 3.827 8.532 8.532s-3.828 8.532-8.532 8.532zM456.402 32.064H151.79c-17.396 0-31.549 14.152-31.549 31.549v160.322c0 17.396 14.153 31.548 31.549 31.548h304.613c17.396 0 31.548-14.152 31.548-31.548V63.613c.001-17.396-14.153-31.549-31.549-31.549zm16.55 191.872c0 9.125-7.423 16.548-16.548 16.548H151.79c-9.125 0-16.549-7.423-16.549-16.548V63.613c0-9.125 7.424-16.549 16.549-16.549h304.613c9.125 0 16.548 7.424 16.548 16.549v160.323z"/><path d="M159.806 64.129a7.5 7.5 0 0 0-7.5 7.5v144.29a7.5 7.5 0 0 0 7.5 7.5 7.5 7.5 0 0 0 7.5-7.5V71.629c0-4.143-3.357-7.5-7.5-7.5zM432.355 64.129a7.5 7.5 0 0 0-7.5 7.5v144.29a7.5 7.5 0 0 0 7.5 7.5 7.5 7.5 0 0 0 7.5-7.5V71.629a7.5 7.5 0 0 0-7.5-7.5zM456.402 128.258a7.5 7.5 0 0 0-7.5 7.5v16.032a7.5 7.5 0 0 0 7.5 7.5 7.5 7.5 0 0 0 7.5-7.5v-16.032c0-4.143-3.357-7.5-7.5-7.5zM333.538 143.776c0-3.209 1.25-6.227 3.519-8.496a7.5 7.5 0 0 0-10.606-10.607c-5.102 5.102-7.912 11.886-7.912 19.102s2.81 13.999 7.912 19.102c1.465 1.464 3.384 2.196 5.303 2.196s3.839-.732 5.303-2.197a7.5 7.5 0 0 0 0-10.606 11.933 11.933 0 0 1-3.519-8.494zM294.511 143.774c0-13.634 5.31-26.451 14.95-36.092a7.5 7.5 0 0 0-10.606-10.607c-12.474 12.475-19.343 29.059-19.343 46.699s6.87 34.225 19.343 46.698c1.464 1.464 3.384 2.196 5.303 2.196s3.839-.732 5.303-2.196a7.5 7.5 0 0 0 0-10.607c-9.64-9.64-14.95-22.457-14.95-36.091z"/><path d="M281.863 207.463c-17.011-17.012-26.38-39.63-26.38-63.689 0-24.059 9.369-46.677 26.38-63.688a7.5 7.5 0 0 0-10.606-10.607c-19.845 19.846-30.774 46.23-30.774 74.296 0 28.064 10.929 54.45 30.774 74.295 1.464 1.464 3.384 2.196 5.303 2.196s3.839-.732 5.303-2.196a7.499 7.499 0 0 0 0-10.607z"/></symbol><symbol id="2_truck" viewBox="0 0 512 512"><path d="M111.709 344.693c-8.556 0-15.516 6.96-15.516 15.516 0 8.556 6.96 15.516 15.516 15.516 8.556 0 15.516-6.96 15.516-15.516 0-8.556-6.96-15.516-15.516-15.516zM432.355 344.693c-8.556 0-15.516 6.96-15.516 15.516 0 8.556 6.96 15.516 15.516 15.516 8.556 0 15.516-6.96 15.516-15.516 0-8.556-6.96-15.516-15.516-15.516z"/><path d="M495.909 245.23l-57.744-19.248-26.989-74.218c-3.369-9.265-12.256-15.49-22.115-15.49h-69.448v-16.549c0-8.556-6.96-15.516-15.516-15.516H15.516C6.96 104.209 0 111.17 0 119.726v216.436c0 8.556 6.96 15.516 15.516 15.516H64.91a47.61 47.61 0 0 0-.781 8.532c0 26.236 21.345 47.581 47.581 47.581s47.581-21.345 47.581-47.581c0-2.914-.277-5.762-.781-8.532h227.047a47.61 47.61 0 0 0-.781 8.532c0 26.236 21.345 47.581 47.581 47.581 26.236 0 47.581-21.345 47.581-47.581 0-3.706-.44-7.31-1.245-10.774l15.871-7.935C505.318 336.122 512 325.309 512 313.282v-45.727a23.504 23.504 0 0 0-16.091-22.325zM15 119.726c0-.285.231-.517.516-.517h288.581c.285 0 .516.231.516.516v160.839H15V119.726zm96.709 273.065c-17.965 0-32.581-14.616-32.581-32.581 0-17.965 14.616-32.581 32.581-32.581 17.965 0 32.581 14.616 32.581 32.581.001 17.965-14.615 32.581-32.581 32.581zm192.904-56.114H153.038c-8.203-14.349-23.65-24.048-41.329-24.048-17.679 0-33.125 9.699-41.328 24.048H15.516a.516.516 0 0 1-.516-.516v-40.597h289.613v41.113zm102.085-153.338l14.95 41.113h-16.104l-14.95-41.113h16.104zm-87.085-32.065h69.448a8.559 8.559 0 0 1 8.019 5.616l4.163 11.448h-81.63v-17.064zm0 32.065h55.02l14.95 41.113h-69.97v-41.113zm112.742 209.452c-17.965 0-32.581-14.616-32.581-32.581 0-17.965 14.616-32.581 32.581-32.581 17.965 0 32.581 14.616 32.581 32.581 0 17.965-14.616 32.581-32.581 32.581zM497 280.563h-8.532a7.5 7.5 0 0 0 0 15H497v17.718c0 6.31-3.505 11.981-9.147 14.803l-14.847 7.423c-8.36-13.707-23.454-22.878-40.651-22.878-17.679 0-33.125 9.699-41.328 24.048h-71.414v-41.113h136.791a7.5 7.5 0 0 0 0-15H319.613v-41.113h111.525l60.028 20.009a8.52 8.52 0 0 1 5.834 8.094v13.009z"/><path d="M251.705 193.375l-56.113-32.064a7.501 7.501 0 0 0-7.442 13.024l31.592 18.053H71.629a7.5 7.5 0 0 0 0 14.999h148.113L188.15 225.44a7.5 7.5 0 0 0 7.442 13.023l56.113-32.064a7.5 7.5 0 0 0 0-13.024z"/></symbol><symbol id="3_landing" viewBox="0 0 512 512"><path d="M392.274 240.483c-66.017 0-119.726 53.709-119.726 119.727 0 66.017 53.709 119.726 119.726 119.726S512 426.227 512 360.21c0-66.018-53.709-119.727-119.726-119.727zm0 224.453c-57.746 0-104.726-46.979-104.726-104.726s46.979-104.727 104.726-104.727S497 302.464 497 360.21s-46.979 104.726-104.726 104.726z"/><path d="M368.225 32.064H31.548C14.152 32.064 0 46.217 0 63.613v272.548c0 17.396 14.152 31.549 31.548 31.549h216.437c4.142 0 7.5-3.357 7.5-7.5s-3.358-7.5-7.5-7.5H31.548c-9.125 0-16.548-7.424-16.548-16.549V111.193h313.144c4.143 0 7.5-3.357 7.5-7.5s-3.357-7.5-7.5-7.5H15v-32.58c0-9.125 7.423-16.549 16.548-16.549h336.677c9.125 0 16.549 7.424 16.549 16.549v32.58h-24.562c-4.143 0-7.5 3.357-7.5 7.5s3.357 7.5 7.5 7.5h24.562v104.724c0 4.143 3.357 7.5 7.5 7.5s7.5-3.357 7.5-7.5V63.613c0-17.396-14.152-31.549-31.549-31.549z"/><path d="M39.644 64.129h-.08c-4.142 0-7.46 3.357-7.46 7.5s3.398 7.5 7.54 7.5a7.5 7.5 0 0 0 7.5-7.5 7.5 7.5 0 0 0-7.5-7.5zM87.741 64.129h-.08c-4.142 0-7.46 3.357-7.46 7.5s3.398 7.5 7.54 7.5a7.5 7.5 0 0 0 7.5-7.5 7.5 7.5 0 0 0-7.5-7.5zM63.613 64.129h-.08c-4.142 0-7.46 3.357-7.46 7.5s3.398 7.5 7.54 7.5a7.5 7.5 0 0 0 7.5-7.5 7.5 7.5 0 0 0-7.5-7.5zM272.033 64.129H119.726a7.5 7.5 0 0 0-7.5 7.5 7.5 7.5 0 0 0 7.5 7.5h152.307c4.143 0 7.5-3.357 7.5-7.5s-3.357-7.5-7.5-7.5zM360.21 64.129h-56.113a7.499 7.499 0 0 0-7.5 7.5c0 4.143 3.357 7.5 7.5 7.5h56.113a7.5 7.5 0 0 0 7.5-7.5c0-4.143-3.357-7.5-7.5-7.5zM231.165 191.149l-7.771-31.082a25.081 25.081 0 0 0-20.563-18.747 433.463 433.463 0 0 0-131.953 0 25.08 25.08 0 0 0-20.563 18.747l-7.771 31.082c-1.533 6.13 1.343 12.385 6.996 15.211l26.907 13.453v94.438c.001 7.377 6.003 13.378 13.38 13.378h94.056c7.377 0 13.378-6.001 13.378-13.378v-94.438l26.908-13.453c5.651-2.826 8.528-9.081 6.996-15.211zm-66.785-38.954c-6.831 9.713-16.055 20.14-27.494 27.015-11.445-6.879-20.676-17.319-27.498-27.019a417.86 417.86 0 0 1 54.992.004zm32.882 50.847v-11.378a7.5 7.5 0 0 0-7.5-7.5 7.5 7.5 0 0 0-7.5 7.5v120.965H91.448V191.664a7.5 7.5 0 0 0-7.5-7.5 7.5 7.5 0 0 0-7.5 7.5v11.379l-19.035-9.518 7.455-29.821a10.113 10.113 0 0 1 8.292-7.559c6.394-.984 12.802-1.8 19.219-2.486 8.184 13.093 20.99 29.427 38.32 39.308 1.885 1.076 4.024 1.646 6.188 1.646s4.304-.569 6.184-1.643c17.316-9.873 30.113-26.177 38.32-39.305a419.675 419.675 0 0 1 19.16 2.48c4.045.622 7.3 3.59 8.292 7.56l7.455 29.819-19.036 9.518z"/><path d="M295.341 191.148l-7.771-31.082a25.083 25.083 0 0 0-20.563-18.747 436.757 436.757 0 0 0-24.201-3.029 7.5 7.5 0 1 0-1.445 14.93c7.769.752 15.63 1.736 23.364 2.926 4.045.622 7.3 3.59 8.292 7.56l7.455 29.819-19.035 9.518v-11.378a7.5 7.5 0 0 0-7.5-7.5 7.5 7.5 0 0 0-7.5 7.5V312.63h-28.406c-4.142 0-7.5 3.357-7.5 7.5s3.358 7.5 7.5 7.5h30.028c7.377 0 13.379-6.001 13.379-13.378v-94.438l26.907-13.455c5.65-2.825 8.528-9.08 6.996-15.211zM359.469 191.148l-7.771-31.082a25.083 25.083 0 0 0-20.563-18.747 436.043 436.043 0 0 0-24.201-3.029c-4.129-.407-7.788 2.62-8.187 6.743a7.5 7.5 0 0 0 6.743 8.187 420.518 420.518 0 0 1 23.364 2.926 10.113 10.113 0 0 1 8.291 7.56l7.455 29.819-19.035 9.518v-11.378c.001-4.144-3.356-7.501-7.499-7.501s-7.5 3.357-7.5 7.5v48.304c0 4.143 3.357 7.5 7.5 7.5s7.5-3.357 7.5-7.5v-20.155l26.907-13.454c5.65-2.825 8.528-9.08 6.996-15.211zM437.658 314.825a7.502 7.502 0 0 0-10.607 0l-80.161 80.161a7.5 7.5 0 1 0 10.608 10.607l80.161-80.161a7.501 7.501 0 0 0-.001-10.607zM360.21 304.614c-12.975 0-23.532 10.557-23.532 23.532s10.557 23.532 23.532 23.532 23.532-10.557 23.532-23.532c0-12.976-10.557-23.532-23.532-23.532zm0 32.064c-4.705 0-8.532-3.827-8.532-8.532s3.827-8.532 8.532-8.532 8.532 3.827 8.532 8.532-3.827 8.532-8.532 8.532zM424.339 368.742c-12.976 0-23.532 10.557-23.532 23.532s10.557 23.532 23.532 23.532 23.532-10.557 23.532-23.532-10.557-23.532-23.532-23.532zm0 32.065c-4.705 0-8.532-3.827-8.532-8.532s3.827-8.532 8.532-8.532 8.532 3.827 8.532 8.532-3.827 8.532-8.532 8.532z"/></symbol><symbol id="3_olx" viewBox="0 0 512 512"><path d="M368.232 36.084H31.55C14.152 36.084 0 50.238 0 67.634v272.553c0 17.396 14.152 31.55 31.55 31.55h211.763c4.143 0 7.5-3.357 7.5-7.5s-3.358-7.5-7.5-7.5H31.55c-9.125 0-16.549-7.424-16.549-16.549V115.215h313.15c4.143 0 7.5-3.357 7.5-7.5s-3.357-7.5-7.5-7.5H15V67.634c0-9.125 7.424-16.549 16.549-16.549h336.683c9.125 0 16.549 7.424 16.549 16.549v32.581h-24.562a7.499 7.499 0 0 0-7.5 7.5c0 4.143 3.357 7.5 7.5 7.5h24.562v91.952c0 4.143 3.357 7.5 7.5 7.5s7.5-3.357 7.5-7.5V67.634c.001-17.396-14.151-31.55-31.549-31.55z"/><path d="M39.645 68.15h-.08c-4.143 0-7.46 3.357-7.46 7.5s3.397 7.5 7.54 7.5 7.5-3.357 7.5-7.5-3.357-7.5-7.5-7.5zM87.743 68.15h-.08c-4.143 0-7.46 3.357-7.46 7.5s3.397 7.5 7.54 7.5 7.5-3.357 7.5-7.5-3.357-7.5-7.5-7.5zM63.614 68.15h-.08c-4.143 0-7.46 3.357-7.46 7.5s3.397 7.5 7.54 7.5 7.5-3.357 7.5-7.5-3.357-7.5-7.5-7.5zM272.038 68.15h-152.31c-4.143 0-7.5 3.357-7.5 7.5s3.357 7.5 7.5 7.5h152.31c4.143 0 7.5-3.357 7.5-7.5s-3.357-7.5-7.5-7.5zM360.216 68.15h-56.114c-4.143 0-7.5 3.357-7.5 7.5s3.357 7.5 7.5 7.5h56.114c4.143 0 7.5-3.357 7.5-7.5s-3.357-7.5-7.5-7.5zM510.834 323.24c-2.987-9.191-11.147-15.553-20.789-16.206l-60.726-4.118-22.681-56.48c-3.601-8.968-12.172-14.763-21.836-14.764h-.001c-9.664 0-18.236 5.796-21.838 14.764l-22.68 56.48-60.726 4.118c-9.642.653-17.802 7.015-20.789 16.206-2.986 9.19-.123 19.134 7.293 25.33l46.708 39.024-14.85 59.025c-2.357 9.373 1.171 19.1 8.99 24.78 4.134 3.003 8.972 4.516 13.823 4.516 4.325 0 8.663-1.203 12.521-3.625l51.548-32.362 51.548 32.362c8.186 5.14 18.526 4.788 26.344-.891 7.819-5.681 11.348-15.407 8.99-24.78l-14.85-59.025 46.708-39.024c7.416-6.195 10.28-16.139 7.293-25.33zm-16.91 13.819l-50.321 42.044a7.503 7.503 0 0 0-2.465 7.586l15.998 63.592c1.306 5.19-2.165 8.189-3.26 8.984-1.096.796-5.021 3.167-9.551.323l-55.536-34.866a7.501 7.501 0 0 0-7.977 0l-55.536 34.866c-4.529 2.846-8.456.474-9.551-.323-1.095-.795-4.565-3.794-3.26-8.984l15.998-63.592a7.503 7.503 0 0 0-2.465-7.586l-50.321-42.044c-4.107-3.432-3.062-7.896-2.644-9.184.418-1.286 2.197-5.514 7.538-5.876l65.423-4.437a7.498 7.498 0 0 0 6.452-4.688l24.435-60.85c1.994-4.967 6.564-5.354 7.918-5.354s5.923.387 7.917 5.354l24.436 60.85a7.5 7.5 0 0 0 6.452 4.688l65.423 4.437c5.341.362 7.12 4.59 7.538 5.876.421 1.287 1.466 5.753-2.641 9.184zM159.81 140.296H79.647c-12.976 0-23.532 10.557-23.532 23.532v144.293c0 12.976 10.557 23.532 23.532 23.532h80.162c12.976 0 23.532-10.557 23.532-23.532V163.829c.001-12.977-10.556-23.533-23.531-23.533zm8.532 167.826c0 4.705-3.827 8.532-8.532 8.532H79.647c-4.705 0-8.532-3.827-8.532-8.532V163.83c0-4.705 3.827-8.532 8.532-8.532h80.162c4.705-.001 8.532 3.827 8.532 8.532v144.292z"/><path d="M127.744 292.606h-16.032c-4.143 0-7.5 3.357-7.5 7.5s3.357 7.5 7.5 7.5h16.032c4.143 0 7.5-3.357 7.5-7.5s-3.357-7.5-7.5-7.5zM336.167 140.296H231.955c-8.556 0-15.516 6.961-15.516 15.517v16.032c0 8.556 6.96 15.516 15.516 15.516h104.212c8.556 0 15.517-6.96 15.517-15.516v-16.032c0-8.556-6.961-15.517-15.517-15.517zm.518 31.55a.517.517 0 0 1-.517.516H231.956a.517.517 0 0 1-.516-.516v-16.032c0-.285.231-.517.516-.517h104.212c.285 0 .517.231.517.517v16.032zM320.135 204.426h-88.18c-4.143 0-7.5 3.357-7.5 7.5s3.357 7.5 7.5 7.5h88.18c4.142 0 7.5-3.357 7.5-7.5s-3.357-7.5-7.5-7.5zM296.086 236.492h-64.131a7.499 7.499 0 0 0-7.5 7.5c0 4.143 3.357 7.5 7.5 7.5h64.131c4.143 0 7.5-3.357 7.5-7.5s-3.357-7.5-7.5-7.5z"/></symbol><symbol id="3_shop" viewBox="0 0 512 512"><path d="M392.274 240.483c-66.017 0-119.726 53.709-119.726 119.727 0 66.017 53.709 119.726 119.726 119.726S512 426.227 512 360.21c0-66.018-53.708-119.727-119.726-119.727zm0 224.453c-57.746 0-104.726-46.979-104.726-104.726s46.98-104.727 104.726-104.727S497 302.464 497 360.21s-46.979 104.726-104.726 104.726z"/><path d="M368.225 32.064H31.548C14.152 32.064 0 46.217 0 63.613v272.548c0 17.396 14.152 31.549 31.548 31.549h216.437c4.142 0 7.5-3.357 7.5-7.5s-3.358-7.5-7.5-7.5H31.548c-9.125 0-16.548-7.424-16.548-16.549V111.193h313.143c4.142 0 7.5-3.357 7.5-7.5s-3.358-7.5-7.5-7.5H15v-32.58c0-9.125 7.423-16.549 16.548-16.549h336.677c9.125 0 16.549 7.424 16.549 16.549v32.58h-24.562c-4.142 0-7.5 3.357-7.5 7.5s3.358 7.5 7.5 7.5h24.562v104.724a7.5 7.5 0 0 0 7.5 7.5 7.5 7.5 0 0 0 7.5-7.5V63.613c0-17.396-14.153-31.549-31.549-31.549z"/><path d="M39.644 64.129h-.08c-4.142 0-7.46 3.357-7.46 7.5s3.398 7.5 7.54 7.5a7.5 7.5 0 0 0 7.5-7.5 7.5 7.5 0 0 0-7.5-7.5zM87.741 64.129h-.08c-4.142 0-7.46 3.357-7.46 7.5s3.398 7.5 7.54 7.5a7.5 7.5 0 0 0 7.5-7.5 7.5 7.5 0 0 0-7.5-7.5zM63.613 64.129h-.08c-4.142 0-7.46 3.357-7.46 7.5s3.398 7.5 7.54 7.5a7.5 7.5 0 0 0 7.5-7.5 7.5 7.5 0 0 0-7.5-7.5zM272.033 64.129H119.726a7.5 7.5 0 0 0-7.5 7.5 7.5 7.5 0 0 0 7.5 7.5h152.307a7.5 7.5 0 0 0 7.5-7.5 7.5 7.5 0 0 0-7.5-7.5zM360.209 64.129h-56.113a7.5 7.5 0 0 0-7.5 7.5 7.5 7.5 0 0 0 7.5 7.5h56.113a7.5 7.5 0 0 0 7.5-7.5 7.5 7.5 0 0 0-7.5-7.5zM431.839 338.62v-10.475c0-21.815-17.749-39.564-39.565-39.564s-39.564 17.749-39.564 39.564v10.475c-4.774 2.648-8.016 7.737-8.016 13.573v56.113c0 8.556 6.96 15.516 15.516 15.516h64.129c8.556 0 15.516-6.96 15.516-15.516v-56.113c0-5.836-3.242-10.924-8.016-13.573zm-64.13-10.475c0-13.544 11.02-24.564 24.565-24.564 13.545 0 24.564 11.02 24.564 24.564v8.532h-49.129v-8.532zm57.146 80.162a.517.517 0 0 1-.516.516H360.21a.516.516 0 0 1-.516-.516v-56.113c0-.284.231-.516.516-.516h64.129c.285 0 .516.231.516.516v56.113z"/><path d="M392.274 368.742a7.5 7.5 0 0 0-7.5 7.5v8.016a7.5 7.5 0 0 0 7.5 7.5 7.5 7.5 0 0 0 7.5-7.5v-8.016a7.5 7.5 0 0 0-7.5-7.5zM247.984 200.403h-.516v-24.564c0-12.976-10.557-23.532-23.532-23.532H79.645c-12.976 0-23.532 10.557-23.532 23.532v112.226c0 12.976 10.557 23.532 23.532 23.532h144.291c12.976 0 23.532-10.557 23.532-23.532V263.5h.516c8.556 0 15.516-6.961 15.516-15.517v-32.064c0-8.556-6.96-15.516-15.516-15.516zm-15.516 87.661c0 4.705-3.828 8.532-8.532 8.532H79.645c-4.705 0-8.532-3.827-8.532-8.532V175.839c0-4.705 3.828-8.532 8.532-8.532h144.291c4.705 0 8.532 3.827 8.532 8.532v24.564h-40.597c-8.556 0-15.516 6.96-15.516 15.516v32.064c0 8.556 6.96 15.517 15.516 15.517h40.597v24.564zm16.032-40.081a.517.517 0 0 1-.516.517h-56.113a.516.516 0 0 1-.516-.517v-32.064c0-.284.231-.516.516-.516h56.113c.285 0 .516.231.516.516v32.064z"/><path d="M207.903 224.451h-.08c-4.142 0-7.46 3.357-7.46 7.5s3.398 7.5 7.54 7.5c4.142 0 7.5-3.357 7.5-7.5s-3.358-7.5-7.5-7.5zM352.193 168.339h-64.129c-4.142 0-7.5 3.357-7.5 7.5s3.358 7.5 7.5 7.5h64.129a7.5 7.5 0 0 0 0-15zM304.096 232.468h-16.032c-4.142 0-7.5 3.357-7.5 7.5s3.358 7.5 7.5 7.5h16.032c4.142 0 7.5-3.357 7.5-7.5s-3.358-7.5-7.5-7.5zM328.145 200.403h-40.081c-4.142 0-7.5 3.357-7.5 7.5s3.358 7.5 7.5 7.5h40.081c4.142 0 7.5-3.357 7.5-7.5s-3.358-7.5-7.5-7.5z"/></symbol><symbol id="3_social" viewBox="0 0 512 512"><path d="M368.226 33.029H31.549C14.152 33.029 0 47.182 0 64.577v272.549c0 17.396 14.152 31.548 31.549 31.548h216.436c4.143 0 7.5-3.357 7.5-7.5s-3.358-7.5-7.501-7.5H31.549c-9.125 0-16.549-7.423-16.549-16.548V112.158h313.144c4.143 0 7.5-3.357 7.5-7.5s-3.357-7.5-7.5-7.5H15V64.577c0-9.125 7.424-16.548 16.549-16.548h336.677c9.125 0 16.549 7.423 16.549 16.548v32.581h-24.562c-4.143 0-7.5 3.357-7.5 7.5s3.357 7.5 7.5 7.5h24.562v136.79c0 4.143 3.357 7.5 7.5 7.5s7.5-3.357 7.5-7.5V64.577c0-17.396-14.152-31.548-31.549-31.548z"/><path d="M39.644 65.094h-.08c-4.143 0-7.46 3.357-7.46 7.5s3.397 7.5 7.54 7.5 7.5-3.357 7.5-7.5-3.357-7.5-7.5-7.5zM87.741 65.094h-.08c-4.143 0-7.46 3.357-7.46 7.5s3.397 7.5 7.54 7.5 7.5-3.357 7.5-7.5-3.357-7.5-7.5-7.5zM63.613 65.094h-.08c-4.143 0-7.46 3.357-7.46 7.5s3.397 7.5 7.54 7.5c4.143 0 7.5-3.357 7.5-7.5s-3.357-7.5-7.5-7.5zM272.033 65.094H119.726c-4.143 0-7.5 3.357-7.5 7.5s3.357 7.5 7.5 7.5h152.307c4.143 0 7.5-3.357 7.5-7.5s-3.357-7.5-7.5-7.5zM360.21 65.094h-56.113c-4.143 0-7.5 3.357-7.5 7.5s3.357 7.5 7.5 7.5h56.113a7.5 7.5 0 0 0 7.5-7.5c0-4.143-3.357-7.5-7.5-7.5zM439.041 265.496c-15.741 0-30.733 4.938-43.356 14.28-1.732 1.281-3.969 1.281-5.701 0-12.623-9.343-27.615-14.28-43.355-14.28-40.23 0-72.96 32.729-72.96 72.96 0 51.136 55.237 110.298 108.639 137.953a22.873 22.873 0 0 0 10.527 2.562c3.615 0 7.231-.854 10.527-2.561C456.763 448.754 512 389.592 512 338.456c0-40.23-32.729-72.96-72.959-72.96zm-42.578 197.595a7.9 7.9 0 0 1-7.258-.001c-62.1-32.159-100.537-89.734-100.537-124.634 0-31.959 26.001-57.96 57.96-57.96 12.504 0 24.41 3.92 34.432 11.337 7.042 5.212 16.507 5.214 23.549 0 10.021-7.417 21.928-11.337 34.433-11.337 31.959 0 57.959 26.001 57.959 57.96-.001 44.823-52.188 99.595-100.538 124.635zM344.177 137.238h-104.21c-8.556 0-15.517 6.961-15.517 15.517v16.032c0 8.556 6.961 15.516 15.517 15.516h104.21c8.556 0 15.516-6.96 15.516-15.516v-16.032c0-8.556-6.96-15.517-15.516-15.517zm.517 31.549a.517.517 0 0 1-.516.516h-104.21a.517.517 0 0 1-.517-.516v-16.032c0-.285.231-.517.517-.517h104.21c.284 0 .516.231.516.517v16.032zM328.146 201.367h-88.178c-4.143 0-7.5 3.357-7.5 7.5s3.357 7.5 7.5 7.5h88.178c4.142 0 7.5-3.357 7.5-7.5s-3.357-7.5-7.5-7.5zM304.097 233.432h-64.129c-4.143 0-7.5 3.357-7.5 7.5s3.357 7.5 7.5 7.5h64.129c4.143 0 7.5-3.357 7.5-7.5s-3.357-7.5-7.5-7.5zM151.988 187.212l21.138-21.138a7.5 7.5 0 0 0 0-10.607l-16.032-16.032a7.502 7.502 0 0 0-5.304-2.196h-32.064c-1.989 0-3.896.79-5.304 2.196L98.39 155.467a7.5 7.5 0 0 0 0 10.607l21.138 21.138c-31.701 7.376-55.399 35.839-55.399 69.752 0 39.497 32.133 71.63 71.629 71.63s71.629-32.133 71.629-71.63c0-33.913-23.698-62.376-55.399-69.752zM114.3 160.771l8.532-8.533h25.852l8.532 8.532-21.458 21.458-21.458-21.457zm21.458 152.823c-31.226 0-56.629-25.404-56.629-56.63s25.403-56.629 56.629-56.629 56.629 25.403 56.629 56.629-25.403 56.63-56.629 56.63z"/></symbol><symbol id="4_board" viewBox="0 0 512 512"><path d="M400.292 32.064h-48.613v-5.276c0-12.572-18.105-17.987-31.724-20.966C302.789 2.068 280.076 0 256 0s-46.789 2.068-63.954 5.823c-13.619 2.979-31.724 8.394-31.724 20.966v5.276h-48.613c-21.816 0-39.564 17.749-39.564 39.565v400.806c0 21.816 17.749 39.564 39.564 39.564H400.29c21.816 0 39.564-17.749 39.564-39.564V71.629c.002-21.816-17.747-39.565-39.562-39.565zm-224.968-4.313C179.771 23.209 207.419 15 256 15c48.582 0 76.229 8.209 80.677 12.751v35.862a.516.516 0 0 1-.516.516H175.839a.517.517 0 0 1-.516-.516V27.751zM400.292 497H111.709c-13.545 0-24.564-11.02-24.564-24.564V71.629c0-13.545 11.02-24.565 24.564-24.565h48.613v16.548c0 8.556 6.96 15.516 15.516 15.516H336.16c8.556 0 15.516-6.961 15.516-15.516V47.064h48.613c13.545 0 24.564 11.02 24.564 24.565v400.807h.002c.001 13.545-11.019 24.564-24.563 24.564z"/><path d="M392.274 64.129h-16.033a7.5 7.5 0 0 0 0 15h16.033c.285 0 .516.231.516.516v352.709a.516.516 0 0 1-.516.516H119.727a.516.516 0 0 1-.516-.516V79.645c0-.285.231-.516.516-.516h16.033a7.5 7.5 0 0 0 0-15h-16.033c-8.556 0-15.516 6.96-15.516 15.516v352.709c0 8.556 6.96 15.516 15.516 15.516h272.549c8.556 0 15.516-6.96 15.516-15.516V79.645c0-8.555-6.961-15.516-15.518-15.516z"/><path d="M183.855 128.259c-12.975 0-23.532 10.557-23.532 23.532s10.556 23.532 23.532 23.532 23.532-10.557 23.532-23.532c.001-12.975-10.556-23.532-23.532-23.532zm0 32.063c-4.704 0-8.532-3.828-8.532-8.532s3.827-8.532 8.532-8.532 8.532 3.828 8.532 8.532-3.827 8.532-8.532 8.532zM344.178 128.258H231.953a7.5 7.5 0 0 0 0 15h112.226a7.5 7.5 0 1 0-.001-15zM239.969 160.323h-8.016a7.5 7.5 0 0 0 0 15h8.016a7.5 7.5 0 0 0 0-15zM304.096 160.323h-32.064a7.5 7.5 0 0 0 0 15h32.064a7.5 7.5 0 0 0 0-15zM183.855 200.404c-12.975 0-23.532 10.557-23.532 23.532s10.556 23.532 23.532 23.532 23.532-10.557 23.532-23.532c.001-12.975-10.556-23.532-23.532-23.532zm0 32.063c-4.704 0-8.532-3.828-8.532-8.532s3.827-8.532 8.532-8.532 8.532 3.828 8.532 8.532-3.827 8.532-8.532 8.532zM344.178 200.403H231.953a7.5 7.5 0 0 0 0 15h112.226a7.5 7.5 0 1 0-.001-15zM239.969 232.468h-8.016a7.5 7.5 0 0 0 0 15h8.016a7.5 7.5 0 0 0 0-15zM304.096 232.468h-32.064a7.5 7.5 0 0 0 0 15h32.064a7.5 7.5 0 0 0 0-15zM183.855 272.549c-12.975 0-23.532 10.557-23.532 23.532s10.556 23.532 23.532 23.532 23.532-10.557 23.532-23.532c.001-12.975-10.556-23.532-23.532-23.532zm0 32.063c-4.704 0-8.532-3.828-8.532-8.532 0-4.704 3.827-8.532 8.532-8.532s8.532 3.828 8.532 8.532c.001 4.704-3.827 8.532-8.532 8.532zM344.178 272.548H231.953a7.5 7.5 0 0 0 0 15h112.226a7.5 7.5 0 1 0-.001-15zM239.969 304.613h-8.016a7.5 7.5 0 0 0 0 15h8.016a7.5 7.5 0 0 0 0-15zM304.096 304.613h-32.064a7.5 7.5 0 0 0 0 15h32.064a7.5 7.5 0 0 0 0-15zM183.855 344.694c-12.975 0-23.532 10.557-23.532 23.532s10.556 23.532 23.532 23.532 23.532-10.557 23.532-23.532c.001-12.975-10.556-23.532-23.532-23.532zm0 32.064c-4.704 0-8.532-3.828-8.532-8.532 0-4.704 3.827-8.532 8.532-8.532s8.532 3.828 8.532 8.532c.001 4.704-3.827 8.532-8.532 8.532zM344.178 344.694H231.953a7.5 7.5 0 0 0 0 15h112.226a7.5 7.5 0 1 0-.001-15zM239.969 376.758h-8.016a7.5 7.5 0 0 0 0 15h8.016a7.5 7.5 0 0 0 0-15zM304.096 376.758h-32.064a7.5 7.5 0 0 0 0 15h32.064a7.5 7.5 0 0 0 0-15zM256.041 32.064h-.08c-4.142 0-7.46 3.358-7.46 7.5 0 4.142 3.398 7.5 7.54 7.5a7.5 7.5 0 0 0 0-15z"/></symbol><symbol id="4_box" viewBox="0 0 512 512"><path d="M403.734 91.798L215.126.746a7.496 7.496 0 0 0-6.521 0L19.998 91.798a7.5 7.5 0 0 0-4.239 6.754v221.125a7.5 7.5 0 0 0 4.239 6.754l188.607 91.051a7.49 7.49 0 0 0 6.522 0l70.512-34.041a7.5 7.5 0 0 0-6.522-13.507l-59.751 28.846V194.311l37.175-17.947a7.5 7.5 0 1 0-6.522-13.508l-38.154 18.419L40.51 98.552l57.193-27.61 181.456 87.599v72.197a7.502 7.502 0 0 0 10.761 6.754l45.525-21.978a7.499 7.499 0 0 0 4.239-6.754v-72.533l53.289-25.725V296.43c0 4.142 3.357 7.5 7.5 7.5s7.5-3.358 7.5-7.5V98.552a7.5 7.5 0 0 0-4.239-6.754zM204.366 194.311V398.78L30.759 314.97V110.501l173.607 83.81zm81.943-48.975L115.274 62.768l32.39-15.699 171.1 82.6-32.455 15.667zm38.375 58.716l-30.525 14.737v-60.585l30.525-14.736v60.584zm11.284-82.688c-.173-.102-.34-.211-.523-.3L164.66 38.617l47.206-22.789 171.356 82.724-47.254 22.812z"/><path d="M86.679 290.287l-27.678-13.362a7.5 7.5 0 0 0-6.522 13.508l27.678 13.362a7.477 7.477 0 0 0 3.255.748 7.5 7.5 0 0 0 6.759-4.241 7.499 7.499 0 0 0-3.492-10.015zM112.151 268.69l-53.113-25.641a7.5 7.5 0 0 0-6.522 13.508l53.113 25.641a7.463 7.463 0 0 0 3.255.748 7.5 7.5 0 0 0 6.759-4.241 7.498 7.498 0 0 0-3.492-10.015zM486.964 290.197c-5.992-5.993-13.96-9.293-22.435-9.293-8.475 0-16.442 3.3-22.435 9.293l-34.927 34.927-112.646-19.878a7.499 7.499 0 0 0-8.012 4.032l-13.704 27.41a7.499 7.499 0 0 0 3.354 10.062l72.922 36.461-19.574 19.574-35.933-1.711a7.524 7.524 0 0 0-5.66 2.188l-20.557 20.558a7.5 7.5 0 0 0 2.132 12.099l48.922 22.83 22.83 48.922a7.5 7.5 0 0 0 12.101 2.132l20.558-20.558a7.502 7.502 0 0 0 2.188-5.66l-1.711-35.931 19.575-19.575 36.461 72.922a7.5 7.5 0 0 0 10.062 3.354l27.409-13.705a7.5 7.5 0 0 0 4.031-8.011l-19.878-112.646 34.928-34.928c12.369-12.369 12.369-32.498-.001-44.868zm-197.388 46.49l7.848-15.697 96.797 17.081-33.959 33.959-70.686-35.343zm166.595 143.05l-15.696 7.849-35.344-70.686 33.959-33.959 17.081 96.796zm20.186-155.278L361.423 439.394a7.502 7.502 0 0 0-2.188 5.66l1.711 35.932-10.64 10.64-19.456-41.69a7.49 7.49 0 0 0-3.624-3.625l-41.69-19.456 10.639-10.64 35.933 1.711a7.485 7.485 0 0 0 5.66-2.188l114.935-114.934a16.616 16.616 0 0 1 11.827-4.899c4.468 0 8.669 1.74 11.828 4.899 6.521 6.521 6.521 17.133-.001 23.655z"/></symbol><symbol id="4_laptop" viewBox="0 0 512 512"><path d="M448.387 84.169H63.613c-4.143 0-7.5 3.357-7.5 7.5s3.357 7.5 7.5 7.5h384.773c4.143 0 7.5-3.357 7.5-7.5s-3.357-7.5-7.499-7.5zM448.387 372.75H63.613c-4.143 0-7.5 3.357-7.5 7.5s3.357 7.5 7.5 7.5h384.773c4.143 0 7.5-3.357 7.5-7.5s-3.357-7.5-7.499-7.5z"/><path d="M496.483 404.814h-8.532V83.654c0-17.396-14.152-31.549-31.548-31.549H55.597c-17.396 0-31.548 14.152-31.548 31.549v321.161h-8.532C6.961 404.814 0 411.775 0 420.331v16.032c0 12.976 10.557 23.532 23.532 23.532h464.936c12.976 0 23.532-10.557 23.532-23.532v-16.032c0-8.556-6.961-15.517-15.517-15.517zM39.049 83.654c0-9.125 7.423-16.549 16.548-16.549h400.807c9.125 0 16.548 7.424 16.548 16.549v321.161H39.049V83.654zm457.953 352.709H497c0 4.705-3.827 8.532-8.532 8.532H23.532c-4.705 0-8.532-3.827-8.532-8.532v-16.032c0-.285.231-.517.517-.517h208.961c-.012.171-.026.342-.026.517 0 4.143 3.357 7.5 7.5 7.5h48.098c4.143 0 7.5-3.357 7.5-7.5 0-.174-.014-.345-.026-.517h208.961c.285 0 .517.231.517.517v16.032z"/><path d="M331.115 195.098l-20.313-5.078v-30.569a15.515 15.515 0 0 0-21.086-14.479L197.7 180.363h-38.688c-12.976 0-23.532 10.557-23.532 23.532v32.064c0 9.931 6.187 18.439 14.906 21.887l23.732 71.196a15.493 15.493 0 0 0 14.72 10.61h23.181c4.974 0 9.679-2.408 12.587-6.443a15.557 15.557 0 0 0 2.134-13.979l-18.57-55.712 81.547 31.364a15.508 15.508 0 0 0 14.353-1.692 15.512 15.512 0 0 0 6.732-12.791V249.83l20.312-5.078a15.492 15.492 0 0 0 11.753-15.053v-19.547a15.496 15.496 0 0 0-11.752-15.054zm-180.636 40.863v-32.065c0-4.705 3.827-8.532 8.532-8.532h32.581v49.129h-32.581c-4.705 0-8.532-3.826-8.532-8.532zm62.03 88.011c.027.083.083.253-.071.466-.154.215-.333.215-.419.215h-23.181a.514.514 0 0 1-.489-.354l-21.604-64.808h24.271l21.493 64.481zm83.293-43.572c0 .089 0 .272-.224.426s-.396.089-.478.057l-88.508-34.042v-53.827l88.507-34.042a.462.462 0 0 1 .479.056.467.467 0 0 1 .224.426V280.4zm32.065-50.699c0 .237-.16.442-.391.5l-16.674 4.168v-28.885l16.673 4.168c.23.058.392.265.392.502v19.547zM407.512 212.428h-40.081c-4.143 0-7.5 3.357-7.5 7.5s3.357 7.5 7.5 7.5h40.081a7.5 7.5 0 0 0 0-15zM382.156 176.492a7.502 7.502 0 0 0-10.063-3.353l-16.032 8.017a7.502 7.502 0 0 0 3.36 14.21 7.482 7.482 0 0 0 3.349-.794l16.032-8.017a7.501 7.501 0 0 0 3.354-10.063zM378.801 253.3l-16.032-8.016a7.497 7.497 0 0 0-10.062 3.354 7.5 7.5 0 0 0 3.354 10.062l16.032 8.016a7.458 7.458 0 0 0 3.348.794 7.5 7.5 0 0 0 6.714-4.148 7.5 7.5 0 0 0-3.354-10.062z"/></symbol><symbol id="4_phone" viewBox="0 0 512 512"><path d="M391.465 405.755c-1.286-9.729-6.902-18.117-15.408-23.014l-96.078-55.318c-12.236-7.044-27.755-4.993-37.739 4.991l-24.861 24.861c-4.885 4.886-12.644 5.282-18.045.921-14.665-11.84-29.11-24.852-42.934-38.675-13.823-13.823-26.836-28.269-38.675-42.934-4.361-5.402-3.965-13.159.922-18.045l24.861-24.861c9.983-9.984 12.035-25.503 4.991-37.738L93.182 99.864c-4.897-8.504-13.285-14.12-23.015-15.408-9.723-1.284-19.289 1.954-26.23 8.894l-28.516 28.516c-40.705 40.705 1.781 146.963 96.725 241.908 70.565 70.564 147.368 112.152 198.875 112.146 17.795-.002 32.582-4.969 43.033-15.421l28.516-28.516c6.939-6.938 10.182-16.499 8.895-26.228zm-19.502 15.62l-3.804 3.804-82.26-46.947a7.5 7.5 0 1 0-7.436 13.029l78.7 44.915-13.717 13.715c-15.452 15.452-47.317 14.695-87.418-2.075-42.807-17.901-90.137-51.515-133.272-94.65C79.62 310.031 46.007 262.7 28.105 219.894c-16.771-40.104-17.526-71.967-2.074-87.419l14.644-14.644 5.198 9.028a7.503 7.503 0 0 0 10.244 2.758 7.501 7.501 0 0 0 2.758-10.244l-7.214-12.528 2.885-2.885c3.094-3.093 7.185-4.774 11.476-4.774.722 0 1.449.047 2.178.144a16.167 16.167 0 0 1 11.98 8.02l55.319 96.078c3.668 6.369 2.599 14.448-2.599 19.644l-9.087 9.088-48.907-84.945a7.5 7.5 0 0 0-10.244-2.757 7.5 7.5 0 0 0-2.758 10.244l50.924 88.445-4.788 4.788c-10.324 10.323-11.178 26.693-1.987 38.078 12.172 15.078 25.542 29.922 39.74 44.12s29.041 27.568 44.119 39.739c11.384 9.191 27.755 8.338 38.078-1.986l3.456-3.456 18.519 10.569a7.498 7.498 0 0 0 10.234-2.797 7.5 7.5 0 0 0-2.796-10.233l-14.959-8.537 10.408-10.408c5.196-5.197 13.273-6.266 19.645-2.598l96.078 55.318c4.428 2.549 7.351 6.916 8.021 11.98.668 5.063-1.02 10.04-4.633 13.651zM434.685 118.932c-4.066-19.517-19.912-35.363-39.43-39.431-15.565-3.244-31.436.547-43.552 10.398-12.116 9.852-19.066 24.45-19.066 40.052a7.5 7.5 0 0 0 7.501 7.501 7.5 7.5 0 0 0 7.501-7.501c0-11.065 4.931-21.421 13.527-28.412 8.595-6.989 19.901-9.669 31.026-7.351 13.763 2.869 24.936 14.042 27.805 27.805 4.006 19.221-6.999 37.761-25.598 43.125-10.566 3.047-17.666 12.2-17.666 22.776a7.5 7.5 0 1 0 15.002 0c0-3.825 2.74-7.185 6.82-8.36 26.223-7.563 41.754-33.615 36.13-60.602zM384.317 209.14h-.08c-4.144 0-7.461 3.359-7.461 7.501s3.398 7.501 7.541 7.501a7.5 7.5 0 1 0 0-15.002z"/><path d="M480.446 36.079h-192.42c-17.399 0-31.553 14.154-31.553 31.553V236c0 17.399 14.154 31.553 31.553 31.553h32.587v38.944c0 4.672 2.789 8.846 7.105 10.634a11.473 11.473 0 0 0 12.543-2.496l47.081-47.082h93.103C497.844 267.554 512 253.399 512 236V67.632c0-17.399-14.155-31.553-31.554-31.553zM496.998 236c0 9.127-7.425 16.551-16.552 16.551h-96.21c-1.989 0-3.897.79-5.305 2.197l-43.316 43.317v-38.013a7.5 7.5 0 0 0-7.501-7.501h-40.088c-9.127 0-16.551-7.424-16.551-16.551V67.632c0-9.127 7.424-16.551 16.551-16.551h192.42c9.127 0 16.552 7.424 16.552 16.551V236z"/></symbol><symbol id="5_bag" viewBox="0 0 512 512"><path d="M406.46 90.141c-31.352-28.457-69.678-47.279-111.101-54.621C293.326 15.596 276.451 0 256 0c-21.816 0-39.564 17.749-39.564 39.564 0 21.817 17.748 39.565 39.564 39.565 18.015 0 33.245-12.107 38.009-28.608 38.149 7.006 73.439 24.467 102.369 50.726a7.473 7.473 0 0 0 5.039 1.947 7.5 7.5 0 0 0 5.043-13.053zM256 64.129c-13.545 0-24.564-11.02-24.564-24.564S242.455 15 256 15s24.564 11.02 24.564 24.564S269.545 64.129 256 64.129zM256 432.871c-18.016 0-33.247 12.108-38.01 28.611-38.136-7.005-73.44-24.478-102.349-50.711a7.5 7.5 0 1 0-10.08 11.108c31.329 28.43 69.672 47.262 111.081 54.604C218.674 496.404 235.55 512 256 512c21.816 0 39.564-17.749 39.564-39.564 0-21.817-17.748-39.565-39.564-39.565zM256 497c-13.545 0-24.564-11.02-24.564-24.564s11.02-24.564 24.564-24.564 24.564 11.02 24.564 24.564S269.545 497 256 497zM199.032 47.004a7.498 7.498 0 0 0-9.384-4.944c-40.963 12.69-77.147 36.728-104.885 69.625-8.291-3.74-17.54-4.505-26.443-2.119-10.208 2.735-18.739 9.282-24.023 18.434-10.907 18.893-4.411 43.138 14.482 54.046a39.303 39.303 0 0 0 19.716 5.293c13.683-.001 27.011-7.097 34.33-19.774 5.284-9.152 6.688-19.814 3.952-30.022-1.758-6.563-5.1-12.428-9.69-17.188 25.772-30.186 59.207-52.258 97.001-63.967a7.5 7.5 0 0 0 4.944-9.384zM89.834 160.065c-6.772 11.729-21.825 15.765-33.556 8.991-11.729-6.773-15.762-21.826-8.99-33.556a24.401 24.401 0 0 1 14.916-11.445 24.701 24.701 0 0 1 6.397-.848c4.256 0 8.457 1.116 12.242 3.302 5.683 3.281 9.747 8.578 11.445 14.916s.826 12.957-2.454 18.64zM463.221 329.954c-18.892-10.908-43.138-4.413-54.046 14.481-5.284 9.152-6.688 19.814-3.952 30.022 1.758 6.563 5.1 12.428 9.69 17.188-25.771 30.186-59.2 52.256-97 63.967a7.5 7.5 0 0 0-4.944 9.383 7.504 7.504 0 0 0 7.162 5.283c.734 0 1.482-.109 2.222-.338 40.976-12.695 77.159-36.733 104.899-69.64 5.115 2.306 10.586 3.499 16.124 3.499 3.437 0 6.896-.452 10.305-1.365 10.208-2.735 18.739-9.282 24.023-18.434 10.906-18.893 4.41-43.138-14.483-54.046zm1.491 46.546a24.401 24.401 0 0 1-14.916 11.445 24.405 24.405 0 0 1-18.64-2.454 24.401 24.401 0 0 1-11.445-14.916c-1.698-6.338-.826-12.957 2.454-18.64 4.545-7.872 12.818-12.277 21.315-12.277 4.164 0 8.382 1.059 12.24 3.286 11.731 6.773 15.764 21.826 8.992 33.556zM477.702 128.001c-5.284-9.152-13.815-15.699-24.023-18.434-10.21-2.735-20.871-1.332-30.022 3.953-9.152 5.284-15.699 13.815-18.434 24.023-2.736 10.207-1.332 20.869 3.952 30.021 7.32 12.679 20.646 19.775 34.33 19.774 3.16 0 6.337-.393 9.465-1.168 7.934 22.363 11.965 45.818 11.965 69.83 0 15.67-1.741 31.294-5.177 46.436a7.501 7.501 0 0 0 14.629 3.319c3.682-16.229 5.548-32.969 5.548-49.754 0-26.202-4.475-51.795-13.296-76.168 16.223-11.725 21.284-34.128 11.063-51.832zm-21.982 41.055c-11.731 6.773-26.782 2.738-33.556-8.991-3.279-5.683-4.151-12.302-2.453-18.64s5.763-11.635 11.445-14.916a24.412 24.412 0 0 1 18.639-2.454c6.338 1.698 11.635 5.763 14.916 11.445 6.772 11.73 2.739 26.783-8.991 33.556zM102.825 344.436c-9.011-15.608-27.125-22.743-43.802-18.607-7.933-22.371-11.959-45.84-11.959-69.829 0-15.673 1.742-31.297 5.178-46.438a7.5 7.5 0 0 0-14.629-3.319c-3.682 16.229-5.549 32.969-5.549 49.757 0 26.178 4.483 51.783 13.302 76.164-16.228 11.724-21.291 34.13-11.068 51.836 5.284 9.152 13.815 15.699 24.023 18.434a39.76 39.76 0 0 0 10.305 1.365c6.855 0 13.622-1.798 19.718-5.318 9.152-5.284 15.699-13.815 18.434-24.023 2.735-10.208 1.331-20.87-3.953-30.022zm-10.536 26.139c-1.698 6.338-5.763 11.635-11.445 14.916s-12.302 4.152-18.64 2.454c-6.338-1.698-11.635-5.763-14.916-11.445-6.772-11.73-2.739-26.783 8.991-33.556 11.732-6.772 26.783-2.738 33.556 8.991 3.28 5.683 4.152 12.302 2.454 18.64zM342.499 338.478l-13.941-160.322c-.884-10.167-9.245-17.833-19.45-17.833h-21.557v-8.532c0-17.396-14.152-31.548-31.549-31.548s-31.549 14.152-31.549 31.548v8.532h-21.557c-10.207-.001-18.568 7.666-19.452 17.832l-13.941 160.323a19.57 19.57 0 0 0 5.061 14.886 19.574 19.574 0 0 0 14.391 6.329h134.092a19.574 19.574 0 0 0 14.391-6.329 19.577 19.577 0 0 0 5.061-14.886zM256 135.242c9.125 0 16.549 7.423 16.549 16.548v8.532h-33.098v-8.532c0-9.125 7.424-16.548 16.549-16.548zm70.382 207.985a4.488 4.488 0 0 1-3.335 1.467H188.954a4.488 4.488 0 0 1-3.335-1.467 4.492 4.492 0 0 1-1.173-3.449l13.941-160.323a4.5 4.5 0 0 1 4.508-4.133h21.557v8.532c0 4.143 3.357 7.5 7.5 7.5s7.5-3.357 7.5-7.5v-8.532h33.098v8.532c0 4.143 3.357 7.5 7.5 7.5s7.5-3.357 7.5-7.5v-8.532h21.557a4.499 4.499 0 0 1 4.507 4.133l13.941 160.322a4.493 4.493 0 0 1-1.173 3.45z"/></symbol><symbol id="5_code" viewBox="0 0 512.001 512.001"><path d="M151.791 256.517a7.5 7.5 0 0 0-7.5 7.5v16.032a7.5 7.5 0 0 0 7.5 7.5 7.5 7.5 0 0 0 7.5-7.5v-16.032a7.5 7.5 0 0 0-7.5-7.5zM87.661 256.517a7.5 7.5 0 0 0-7.5 7.5v16.032a7.5 7.5 0 0 0 7.5 7.5 7.5 7.5 0 0 0 7.5-7.5v-16.032a7.5 7.5 0 0 0-7.5-7.5zM119.726 256.517a7.5 7.5 0 0 0-7.5 7.5v16.032a7.5 7.5 0 0 0 7.5 7.5 7.5 7.5 0 0 0 7.5-7.5v-16.032a7.5 7.5 0 0 0-7.5-7.5zM87.661 88.178a7.5 7.5 0 0 0-7.5 7.5v136.273a7.5 7.5 0 0 0 7.5 7.5 7.5 7.5 0 0 0 7.5-7.5V95.678a7.5 7.5 0 0 0-7.5-7.5zM119.726 88.178a7.5 7.5 0 0 0-7.5 7.5v136.273a7.5 7.5 0 0 0 7.5 7.5 7.5 7.5 0 0 0 7.5-7.5V95.678a7.5 7.5 0 0 0-7.5-7.5zM151.791 88.178a7.5 7.5 0 0 0-7.5 7.5v136.273a7.5 7.5 0 0 0 7.5 7.5 7.5 7.5 0 0 0 7.5-7.5V95.678a7.5 7.5 0 0 0-7.5-7.5zM183.855 88.178a7.5 7.5 0 0 0-7.5 7.5v184.371a7.5 7.5 0 0 0 7.5 7.5 7.5 7.5 0 0 0 7.5-7.5V95.678a7.5 7.5 0 0 0-7.5-7.5zM55.597 88.177a7.5 7.5 0 0 0-7.5 7.5v184.371a7.5 7.5 0 0 0 7.5 7.5 7.5 7.5 0 0 0 7.5-7.5V95.677a7.5 7.5 0 0 0-7.5-7.5zM215.919 88.178a7.5 7.5 0 0 0-7.5 7.5v128.258a7.5 7.5 0 0 0 7.5 7.5 7.5 7.5 0 0 0 7.5-7.5V95.678c0-4.143-3.357-7.5-7.5-7.5zM247.984 88.178a7.5 7.5 0 0 0-7.5 7.5v88.177a7.5 7.5 0 0 0 7.5 7.5 7.5 7.5 0 0 0 7.5-7.5V95.678a7.5 7.5 0 0 0-7.5-7.5zM280.048 88.177a7.5 7.5 0 0 0-7.5 7.5v72.146a7.5 7.5 0 0 0 7.5 7.5 7.5 7.5 0 0 0 7.5-7.5V95.677a7.5 7.5 0 0 0-7.5-7.5zM505.127 431.767l-64.836-64.837c-7.319-7.318-18.293-8.78-27.094-4.421l-20.352-20.352c14.307-16.726 22.962-38.424 22.962-62.108 0-52.757-42.921-95.678-95.678-95.678s-95.677 42.921-95.677 95.678c0 52.756 42.92 95.677 95.677 95.677 23.684 0 45.383-8.654 62.109-22.961l20.352 20.351c-4.358 8.801-2.897 19.776 4.422 27.096l64.836 64.835c4.432 4.433 10.342 6.874 16.64 6.874s12.208-2.441 16.64-6.873v-.001c4.432-4.432 6.873-10.342 6.873-16.64 0-6.299-2.442-12.208-6.874-16.64zm-184.998-71.042c-44.485 0-80.677-36.191-80.677-80.677 0-44.486 36.192-80.678 80.677-80.678 44.486 0 80.678 36.192 80.678 80.678 0 44.487-36.192 80.677-80.678 80.677zm174.391 93.716c-1.599 1.599-3.742 2.479-6.033 2.479-2.292 0-4.434-.881-6.033-2.48l-64.836-64.835c-3.327-3.327-3.327-8.741-.001-12.067 1.664-1.663 3.849-2.495 6.034-2.495s4.37.832 6.033 2.495l64.836 64.837c1.599 1.599 2.479 3.741 2.479 6.032a8.467 8.467 0 0 1-2.479 6.034z"/><path d="M304.096 40.081H31.548C14.152 40.082 0 54.233 0 71.629v232.468c0 17.396 14.152 31.549 31.548 31.549h176.355c4.142 0 7.5-3.357 7.5-7.5s-3.358-7.5-7.5-7.5H31.548c-9.125 0-16.548-7.424-16.548-16.549V71.629c0-9.124 7.423-16.548 16.548-16.548h272.548c9.125 0 16.548 7.424 16.548 16.548v88.178a7.5 7.5 0 0 0 7.5 7.5 7.5 7.5 0 0 0 7.5-7.5V71.629c0-17.396-14.152-31.548-31.548-31.548z"/></symbol><symbol id="5_shop" viewBox="0 0 512.001 512.001"><path d="M392.269 144.296h-81.69l-65.593-131.27c-5.8-11.607-19.962-16.331-31.569-10.532a23.427 23.427 0 0 0-5.506 3.836 23.625 23.625 0 0 0-5.529-3.836c-5.623-2.81-12.002-3.261-17.966-1.272a23.382 23.382 0 0 0-13.603 11.804L102.67 149.402c-4.594 9.193-2.58 19.985 4.221 26.959H23.532c-4.705 0-8.532-3.828-8.532-8.532s3.828-8.532 8.532-8.532h53.774a7.5 7.5 0 0 0 0-15H23.532C10.557 144.297 0 154.854 0 167.829c0 10.718 7.206 19.779 17.025 22.61L44.85 357.383a31.45 31.45 0 0 0 31.119 26.362h180.025a7.5 7.5 0 0 0 0-15h-40.592v-49.128h32.581a7.5 7.5 0 0 0 0-15h-32.581v-49.128h74.935l-1.6 18.403a7.5 7.5 0 1 0 14.943 1.3l1.713-19.703h76.189a7.498 7.498 0 0 0 7.397-6.267l9.799-58.784c9.819-2.831 17.025-11.892 17.025-22.61-.002-12.976-10.559-23.532-23.534-23.532zM207.9 44.098l63.128 126.34a23.424 23.424 0 0 0 4.23 5.922H140.543a23.406 23.406 0 0 0 4.23-5.922l5.567-11.142h83.947a7.5 7.5 0 0 0 0-15h-76.452L207.9 44.098zm-91.811 112.009L184.232 19.73a8.481 8.481 0 0 1 4.932-4.28 8.48 8.48 0 0 1 6.515.461c4.208 2.103 5.921 7.237 3.818 11.446l-68.143 136.376c-2.103 4.209-7.236 5.922-11.447 3.819-4.207-2.102-5.921-7.236-3.818-11.445zM32.385 191.36h72.447l4.272 49.128H40.573l-8.188-49.128zm18.876 113.256l-8.188-49.128h67.335l4.272 49.128H51.261zm24.706 64.128a16.495 16.495 0 0 1-16.322-13.828l-5.884-35.3h62.223l4.272 49.128H75.967zm124.433 0h-65.087l-4.272-49.128H200.4v49.128zm0-64.128h-70.664l-4.272-49.128H200.4v49.128zm0-64.128h-76.24l-4.272-49.128H200.4v49.128zm91.239.001H215.4v-49.128h80.512l-4.273 49.128zm4.253-72.936c-4.207 2.103-9.343.39-11.446-3.819L216.303 27.358c-2.102-4.208-.389-9.343 3.82-11.446a8.483 8.483 0 0 1 3.8-.899 8.541 8.541 0 0 1 7.646 4.718l68.143 136.375c2.102 4.209.388 9.344-3.82 11.447zm79.335 72.936h-68.532l4.272-49.128h72.447l-8.187 49.128zm17.042-64.129h-83.361a23.656 23.656 0 0 0 6.688-17.064h76.673c4.705 0 8.532 3.828 8.532 8.532 0 4.705-3.827 8.532-8.532 8.532z"/><path d="M511.889 311.689a7.5 7.5 0 0 0-5.427-6.784L394.33 272.842a7.485 7.485 0 0 0-4.123 0l-112.132 32.063a7.501 7.501 0 0 0-5.426 6.772c-.079 1.358-1.798 33.743 11.568 74.601 12.354 37.765 40.5 90.076 104.427 124.812a7.5 7.5 0 0 0 7.004.083c64.085-32.867 92.291-85.336 104.667-123.565 13.368-41.286 11.653-74.524 11.574-75.919zm-25.844 71.299c-7.333 22.65-18.018 43.168-31.756 60.986-16.383 21.247-37.213 38.727-61.965 52.006-45.776-25.888-77.279-64.159-93.669-113.811-9.587-29.045-10.985-53.938-11.096-64.374l104.708-29.941 104.717 29.944c-.086 10.541-1.423 35.795-10.939 65.19z"/><path d="M473.35 328.785l-79.02-22.596a7.513 7.513 0 0 0-4.123.001l-79.017 22.595a7.501 7.501 0 0 0-5.388 8.085c3.896 33.172 19.813 95.048 82.661 136.736a7.49 7.49 0 0 0 4.146 1.25 7.492 7.492 0 0 0 4.04-1.181c62.393-39.889 78.214-102.849 82.091-136.828a7.5 7.5 0 0 0-5.39-8.062zm-80.669 129.539c-50.794-35.72-66.419-86.067-71.128-116.9l70.716-20.222 70.746 20.23c-4.647 31.49-20.083 82.632-70.334 116.892z"/></symbol><symbol id="6_mail" viewBox="0 0 511.626 511.626"><path d="M49.106 178.729c6.472 4.567 25.981 18.131 58.528 40.685 32.548 22.554 57.482 39.92 74.803 52.099 1.903 1.335 5.946 4.237 12.131 8.71 6.186 4.476 11.326 8.093 15.416 10.852 4.093 2.758 9.041 5.852 14.849 9.277 5.806 3.422 11.279 5.996 16.418 7.7 5.14 1.718 9.898 2.569 14.275 2.569h.575c4.377 0 9.137-.852 14.277-2.569 5.137-1.704 10.615-4.281 16.416-7.7 5.804-3.429 10.752-6.52 14.845-9.277 4.093-2.759 9.229-6.376 15.417-10.852 6.184-4.477 10.232-7.375 12.135-8.71 17.508-12.179 62.051-43.11 133.615-92.79 13.894-9.703 25.502-21.411 34.827-35.116 9.332-13.699 13.993-28.07 13.993-43.105 0-12.564-4.523-23.319-13.565-32.264-9.041-8.947-19.749-13.418-32.117-13.418H45.679c-14.655 0-25.933 4.948-33.832 14.844C3.949 79.562 0 91.934 0 106.779c0 11.991 5.236 24.985 15.703 38.974 10.466 13.99 21.604 24.983 33.403 32.976z"/><path d="M483.072 209.275c-62.424 42.251-109.824 75.087-142.177 98.501-10.849 7.991-19.65 14.229-26.409 18.699-6.759 4.473-15.748 9.041-26.98 13.702-11.228 4.668-21.692 6.995-31.401 6.995h-.578c-9.707 0-20.177-2.327-31.405-6.995-11.228-4.661-20.223-9.229-26.98-13.702-6.755-4.47-15.559-10.708-26.407-18.699-25.697-18.842-72.995-51.68-141.896-98.501C17.987 202.047 8.375 193.762 0 184.437v226.685c0 12.57 4.471 23.319 13.418 32.265 8.945 8.949 19.701 13.422 32.264 13.422h420.266c12.56 0 23.315-4.473 32.261-13.422 8.949-8.949 13.418-19.694 13.418-32.265V184.437c-8.186 9.132-17.7 17.417-28.555 24.838z"/></symbol><symbol id="6_phone" viewBox="0 0 401.998 401.998"><path d="M401.129 311.475c-1.137-3.426-8.371-8.473-21.697-15.129-3.61-2.098-8.754-4.949-15.41-8.566a1437.412 1437.412 0 0 1-18.13-9.996 605.612 605.612 0 0 1-15.276-8.846c-.76-.571-3.139-2.234-7.136-5-4.001-2.758-7.375-4.805-10.14-6.14-2.759-1.327-5.473-1.995-8.138-1.995-3.806 0-8.56 2.714-14.268 8.135a139.01 139.01 0 0 0-15.7 17.706c-4.757 6.379-9.802 12.275-15.126 17.7-5.332 5.427-9.713 8.138-13.135 8.138-1.718 0-3.86-.479-6.427-1.424-2.566-.951-4.518-1.766-5.858-2.423-1.328-.671-3.607-1.999-6.845-4.004-3.244-1.999-5.048-3.094-5.428-3.285-26.075-14.469-48.438-31.029-67.093-49.676-18.649-18.658-35.211-41.019-49.676-67.097-.19-.381-1.287-2.19-3.284-5.424-2-3.237-3.333-5.518-3.999-6.854-.666-1.331-1.475-3.283-2.425-5.852s-1.427-4.709-1.427-6.424c0-3.424 2.713-7.804 8.138-13.134 5.424-5.327 11.326-10.373 17.7-15.128a138.95 138.95 0 0 0 17.701-15.699c5.424-5.711 8.136-10.467 8.136-14.273 0-2.663-.666-5.378-1.997-8.137-1.332-2.765-3.378-6.139-6.139-10.138-2.762-3.997-4.427-6.374-4.999-7.139a627.13 627.13 0 0 1-8.848-15.271 1441.4 1441.4 0 0 1-9.995-18.131c-3.615-6.658-6.468-11.799-8.564-15.415C98.986 9.233 93.943 1.997 90.516.859 89.183.288 87.183 0 84.521 0c-5.142 0-11.85.95-20.129 2.856-8.282 1.903-14.799 3.899-19.558 5.996-9.517 3.995-19.604 15.605-30.264 34.826C4.863 61.566.01 79.271.01 96.78c0 5.135.333 10.131.999 14.989.666 4.853 1.856 10.326 3.571 16.418 1.712 6.09 3.093 10.614 4.137 13.56 1.045 2.948 2.996 8.229 5.852 15.845 2.852 7.614 4.567 12.275 5.138 13.988 6.661 18.654 14.56 35.307 23.695 49.964 15.03 24.362 35.541 49.539 61.521 75.521 25.981 25.98 51.153 46.49 75.517 61.526 14.655 9.134 31.314 17.032 49.965 23.698 1.714.568 6.375 2.279 13.986 5.141 7.614 2.854 12.897 4.805 15.845 5.852 2.949 1.048 7.474 2.43 13.559 4.145 6.098 1.715 11.566 2.905 16.419 3.576 4.856.657 9.853.996 14.989.996 17.508 0 35.214-4.856 53.105-14.562 19.219-10.656 30.826-20.745 34.823-30.269 2.102-4.754 4.093-11.273 5.996-19.555 1.909-8.278 2.857-14.985 2.857-20.126.006-2.673-.281-4.668-.855-6.012z"/></symbol><symbol id="7_phone" viewBox="0 0 401.998 401.998"><path d="M401.129 311.475c-1.137-3.426-8.371-8.473-21.697-15.129-3.61-2.098-8.754-4.949-15.41-8.566a1437.412 1437.412 0 0 1-18.13-9.996 605.612 605.612 0 0 1-15.276-8.846c-.76-.571-3.139-2.234-7.136-5-4.001-2.758-7.375-4.805-10.14-6.14-2.759-1.327-5.473-1.995-8.138-1.995-3.806 0-8.56 2.714-14.268 8.135a139.01 139.01 0 0 0-15.7 17.706c-4.757 6.379-9.802 12.275-15.126 17.7-5.332 5.427-9.713 8.138-13.135 8.138-1.718 0-3.86-.479-6.427-1.424-2.566-.951-4.518-1.766-5.858-2.423-1.328-.671-3.607-1.999-6.845-4.004-3.244-1.999-5.048-3.094-5.428-3.285-26.075-14.469-48.438-31.029-67.093-49.676-18.649-18.658-35.211-41.019-49.676-67.097-.19-.381-1.287-2.19-3.284-5.424-2-3.237-3.333-5.518-3.999-6.854-.666-1.331-1.475-3.283-2.425-5.852s-1.427-4.709-1.427-6.424c0-3.424 2.713-7.804 8.138-13.134 5.424-5.327 11.326-10.373 17.7-15.128a138.95 138.95 0 0 0 17.701-15.699c5.424-5.711 8.136-10.467 8.136-14.273 0-2.663-.666-5.378-1.997-8.137-1.332-2.765-3.378-6.139-6.139-10.138-2.762-3.997-4.427-6.374-4.999-7.139a627.13 627.13 0 0 1-8.848-15.271 1441.4 1441.4 0 0 1-9.995-18.131c-3.615-6.658-6.468-11.799-8.564-15.415C98.986 9.233 93.943 1.997 90.516.859 89.183.288 87.183 0 84.521 0c-5.142 0-11.85.95-20.129 2.856-8.282 1.903-14.799 3.899-19.558 5.996-9.517 3.995-19.604 15.605-30.264 34.826C4.863 61.566.01 79.271.01 96.78c0 5.135.333 10.131.999 14.989.666 4.853 1.856 10.326 3.571 16.418 1.712 6.09 3.093 10.614 4.137 13.56 1.045 2.948 2.996 8.229 5.852 15.845 2.852 7.614 4.567 12.275 5.138 13.988 6.661 18.654 14.56 35.307 23.695 49.964 15.03 24.362 35.541 49.539 61.521 75.521 25.981 25.98 51.153 46.49 75.517 61.526 14.655 9.134 31.314 17.032 49.965 23.698 1.714.568 6.375 2.279 13.986 5.141 7.614 2.854 12.897 4.805 15.845 5.852 2.949 1.048 7.474 2.43 13.559 4.145 6.098 1.715 11.566 2.905 16.419 3.576 4.856.657 9.853.996 14.989.996 17.508 0 35.214-4.856 53.105-14.562 19.219-10.656 30.826-20.745 34.823-30.269 2.102-4.754 4.093-11.273 5.996-19.555 1.909-8.278 2.857-14.985 2.857-20.126.006-2.673-.281-4.668-.855-6.012z"/></symbol><symbol id="7_user" viewBox="0 0 438.529 438.529"><path d="M219.265 219.267c30.271 0 56.108-10.71 77.518-32.121 21.412-21.411 32.12-47.248 32.12-77.515 0-30.262-10.708-56.1-32.12-77.516C275.366 10.705 249.528 0 219.265 0S163.16 10.705 141.75 32.115c-21.414 21.416-32.121 47.253-32.121 77.516 0 30.267 10.707 56.104 32.121 77.515 21.416 21.411 47.251 32.121 77.515 32.121z"/><path d="M419.258 335.036c-.668-9.609-2.002-19.985-3.997-31.121-1.999-11.136-4.524-21.457-7.57-30.978-3.046-9.514-7.139-18.794-12.278-27.836-5.137-9.041-11.037-16.748-17.703-23.127-6.666-6.377-14.801-11.465-24.406-15.271-9.617-3.805-20.229-5.711-31.84-5.711-1.711 0-5.709 2.046-11.991 6.139a2716.072 2716.072 0 0 1-21.266 13.708c-7.898 5.037-18.182 9.609-30.834 13.695-12.658 4.093-25.361 6.14-38.118 6.14-12.752 0-25.456-2.047-38.112-6.14-12.655-4.086-22.936-8.658-30.835-13.695a2784.143 2784.143 0 0 1-21.267-13.708c-6.283-4.093-10.278-6.139-11.991-6.139-11.61 0-22.222 1.906-31.833 5.711-9.613 3.806-17.749 8.898-24.412 15.271-6.661 6.379-12.562 14.086-17.699 23.127-5.137 9.042-9.229 18.326-12.275 27.836-3.045 9.521-5.568 19.842-7.566 30.978-2 11.136-3.332 21.505-3.999 31.121a427.742 427.742 0 0 0-.998 29.554c0 22.836 6.949 40.875 20.842 54.104 13.896 13.224 32.36 19.835 55.39 19.835h249.533c23.028 0 41.49-6.611 55.388-19.835 13.901-13.229 20.845-31.265 20.845-54.104-.002-10.088-.334-19.938-1.008-29.554z"/></symbol></svg>